P3
100 50
255
0 0 0
0 0 0
0 0 0
0 0 0
0 0 0
0 0 0
0 0 0
0 0 0
0 0 0
0 0 0
0 0 0
0 0 0
0 0 0
0 0 0
0 0 0
0 0 0
0 0 0
0 0 0
0 0 0
0 0 0
0 0 0
0 0 0
0 0 0
0 0 0
0 0 0
0 0 0
0 0 0
0 0 0
0 0 0
0 0 0
0 0 0
0 0 0
0 0 0
0 0 0
0 0 0
0 0 0
0 0 0
0 0 0
0 0 0
0 0 0
0 0 0
0 0 0
0 0 0
0 0 0
0 0 0
0 0 0
0 0 0
0 0 0
0 0 0
0 0 0
0 0 0
0 0 0
0 0 0
0 0 0
0 0 0
0 0 0
0 0 0
0 0 0
0 0 0
0 0 0
0 0 0
0 0 0
0 0 0
0 0 0
0 0 0
0 0 0
0 0 0
0 0 0
0 0 0
0 0 0
0 0 0
0 0 0
0 0 0
0 0 0
0 0 0
0 0 0
0 0 0
0 0 0
0 0 0
0 0 0
0 0 0
0 0 0
0 0 0
0 0 0
0 0 0
0 0 0
0 0 0
0 0 0
0 0 0
0 0 0
0 0 0
0 0 0
0 0 0
0 0 0
0 0 0
0 0 0
0 0 0
0 0 0
0 0 0
0 0 0
0 0 0
0 0 0
0 0 0
0 0 0
0 0 0
0 0 0
0 0 0
0 0 0
0 0 0
0 0 0
0 0 0
0 0 0
0 0 0
0 0 0
0 0 0
0 0 0
0 0 0
0 0 0
0 0 0
0 0 0
0 0 0
0 0 0
0 0 0
0 0 0
0 0 0
0 0 0
0 0 0
0 0 0
0 0 0
0 0 0
0 0 0
0 0 0
0 0 0
0 0 0
0 0 0
0 0 0
0 0 0
0 0 0
0 0 0
0 0 0
0 0 0
0 0 0
0 0 0
0 0 0
0 0 0
0 0 0
0 0 0
0 0 0
0 0 0
0 0 0
0 0 0
0 0 0
0 0 0
0 0 0
0 0 0
0 0 0
0 0 0
0 0 0
0 0 0
0 0 0
0 0 0
0 0 0
0 0 0
0 0 0
0 0 0
0 0 0
0 0 0
0 0 0
0 0 0
0 0 0
0 0 0
0 0 0
0 0 0
0 0 0
0 0 0
0 0 0
0 0 0
0 0 0
0 0 0
0 0 0
0 0 0
0 0 0
0 0 0
0 0 0
0 0 0
0 0 0
0 0 0
0 0 0
0 0 0
0 0 0
0 0 0
0 0 0
0 0 0
0 0 0
0 0 0
0 0 0
0 0 0
0 0 0
0 0 0
0 0 0
0 0 0
0 0 0
0 0 0
0 0 0
0 0 0
0 0 0
0 0 0
0 0 0
0 0 0
0 0 0
0 0 0
0 0 0
0 0 0
0 0 0
0 0 0
0 0 0
0 0 0
0 0 0
0 0 0
0 0 0
0 0 0
0 0 0
0 0 0
0 0 0
0 0 0
0 0 0
0 0 0
0 0 0
0 0 0
0 0 0
0 0 0
0 0 0
0 0 0
0 0 0
0 0 0
0 0 0
0 0 0
0 0 0
0 0 0
0 0 0
0 0 0
0 0 0
0 0 0
0 0 0
0 0 0
0 0 0
0 0 0
0 0 0
0 0 0
0 0 0
0 0 0
0 0 0
0 0 0
0 0 0
0 0 0
0 0 0
0 0 0
0 0 0
0 0 0
0 0 0
0 0 0
0 0 0
0 0 0
0 0 0
0 0 0
0 0 0
0 0 0
0 0 0
0 0 0
0 0 0
0 0 0
0 0 0
0 0 0
0 0 0
0 0 0
0 0 0
0 0 0
0 0 0
0 0 0
0 0 0
0 0 0
0 0 0
0 0 0
0 0 0
0 0 0
0 0 0
0 0 0
0 0 0
0 0 0
0 0 0
0 0 0
0 0 0
0 0 0
0 0 0
0 0 0
0 0 0
0 0 0
0 0 0
0 0 0
0 0 0
0 0 0
0 0 0
0 0 0
0 0 0
0 0 0
0 0 0
0 0 0
0 0 0
0 0 0
0 0 0
0 0 0
0 0 0
0 0 0
0 0 0
0 0 0
0 0 0
0 0 0
0 0 0
0 0 0
0 0 0
0 0 0
0 0 0
0 0 0
0 0 0
0 0 0
0 0 0
0 0 0
0 0 0
0 0 0
0 0 0
0 0 0
0 0 0
0 0 0
0 0 0
0 0 0
0 0 0
0 0 0
0 0 0
0 0 0
0 0 0
0 0 0
0 0 0
0 0 0
0 0 0
0 0 0
0 0 0
0 0 0
0 0 0
0 0 0
0 0 0
0 0 0
0 0 0
0 0 0
0 0 0
0 0 0
0 0 0
0 0 0
0 0 0
0 0 0
0 0 0
0 0 0
0 0 0
0 0 0
0 0 0
0 0 0
0 0 0
0 0 0
0 0 0
0 0 0
0 0 0
0 0 0
0 0 0
0 0 0
0 0 0
0 0 0
0 0 0
0 0 0
0 0 0
0 0 0
0 0 0
0 0 0
0 0 0
0 0 0
0 0 0
0 0 0
0 0 0
0 0 0
0 0 0
0 0 0
0 0 0
0 0 0
0 0 0
0 0 0
0 0 0
0 0 0
0 0 0
0 0 0
0 0 0
0 0 0
0 0 0
0 0 0
0 0 0
0 0 0
0 0 0
0 0 0
0 0 0
0 0 0
0 0 0
0 0 0
0 0 0
0 0 0
0 0 0
0 0 0
0 0 0
0 0 0
0 0 0
0 0 0
0 0 0
0 0 0
0 0 0
0 0 0
0 0 0
0 0 0
0 0 0
0 0 0
0 0 0
0 0 0
0 0 0
0 0 0
0 0 0
0 0 0
0 0 0
0 0 0
0 0 0
0 0 0
0 0 0
0 0 0
0 0 0
0 0 0
0 0 0
0 0 0
0 0 0
0 0 0
0 0 0
0 0 0
0 0 0
0 0 0
0 0 0
0 0 0
0 0 0
0 0 0
0 0 0
0 0 0
0 0 0
0 0 0
0 0 0
0 0 0
0 0 0
0 0 0
0 0 0
0 0 0
0 0 0
0 0 0
0 0 0
0 0 0
0 0 0
0 0 0
0 0 0
0 0 0
0 0 0
0 0 0
0 0 0
0 0 0
0 0 0
0 0 0
0 0 0
0 0 0
0 0 0
0 0 0
0 0 0
0 0 0
0 0 0
0 0 0
0 0 0
0 0 0
0 0 0
0 0 0
0 0 0
0 0 0
0 0 0
0 0 0
0 0 0
0 0 0
0 0 0
0 0 0
0 0 0
0 0 0
0 0 0
0 0 0
0 0 0
0 0 0
0 0 0
0 0 0
0 0 0
0 0 0
0 0 0
0 0 0
0 0 0
0 0 0
0 0 0
0 0 0
0 0 0
0 0 0
0 0 0
0 0 0
0 0 0
0 0 0
0 0 0
0 0 0
0 0 0
0 0 0
0 0 0
0 0 0
0 0 0
0 0 0
0 0 0
0 0 0
0 0 0
0 0 0
0 0 0
0 0 0
0 0 0
0 0 0
0 0 0
0 0 0
0 0 0
0 0 0
0 0 0
0 0 0
0 0 0
0 0 0
0 0 0
0 0 0
0 0 0
0 0 0
0 0 0
0 0 0
0 0 0
0 0 0
0 0 0
0 0 0
0 0 0
0 0 0
0 0 0
0 0 0
0 0 0
0 0 0
0 0 0
0 0 0
0 0 0
0 0 0
0 0 0
0 0 0
0 0 0
0 0 0
0 0 0
0 0 0
0 0 0
0 0 0
0 0 0
0 0 0
0 0 0
0 0 0
0 0 0
0 0 0
0 0 0
0 0 0
0 0 0
0 0 0
0 0 0
0 0 0
0 0 0
0 0 0
0 0 0
0 0 0
0 0 0
0 0 0
0 0 0
0 0 0
0 0 0
0 0 0
0 0 0
0 0 0
0 0 0
0 0 0
0 0 0
0 0 0
0 0 0
0 0 0
0 0 0
0 0 0
0 0 0
0 0 0
0 0 0
0 0 0
0 0 0
0 0 0
0 0 0
0 0 0
0 0 0
0 0 0
0 0 0
0 0 0
0 0 0
0 0 0
0 0 0
0 0 0
0 0 0
0 0 0
0 0 0
0 0 0
0 0 0
0 0 0
0 0 0
0 0 0
0 0 0
0 0 0
0 0 0
0 0 0
0 0 0
0 0 0
0 0 0
0 0 0
0 0 0
0 0 0
0 0 0
0 0 0
0 0 0
0 0 0
0 0 0
0 0 0
0 0 0
0 0 0
0 0 0
0 0 0
0 0 0
0 0 0
0 0 0
0 0 0
0 0 0
0 0 0
0 0 0
0 0 0
0 0 0
0 0 0
0 0 0
0 0 0
0 0 0
0 0 0
0 0 0
0 0 0
0 0 0
0 0 0
0 0 0
0 0 0
0 0 0
0 0 0
0 0 0
0 0 0
0 0 0
0 0 0
0 0 0
0 0 0
0 0 0
0 0 0
0 0 0
0 0 0
0 0 0
0 0 0
0 0 0
0 0 0
0 0 0
0 0 0
0 0 0
0 0 0
0 0 0
0 0 0
0 0 0
0 0 0
0 0 0
0 0 0
0 0 0
0 0 0
0 0 0
0 0 0
0 0 0
0 0 0
0 0 0
0 0 0
0 0 0
0 0 0
0 0 0
0 0 0
0 0 0
0 0 0
0 0 0
0 0 0
0 0 0
0 0 0
0 0 0
0 0 0
0 0 0
0 0 0
0 0 0
0 0 0
0 0 0
0 0 0
0 0 0
0 0 0
0 0 0
0 0 0
0 0 0
0 0 0
0 0 0
0 0 0
0 0 0
0 0 0
0 0 0
0 0 0
0 0 0
0 0 0
0 0 0
0 0 0
0 0 0
0 0 0
0 0 0
0 0 0
0 0 0
0 0 0
0 0 0
0 0 0
0 0 0
0 0 0
0 0 0
0 0 0
0 0 0
0 0 0
0 0 0
0 0 0
0 0 0
0 0 0
0 0 0
0 0 0
0 0 0
0 0 0
0 0 0
0 0 0
0 0 0
0 0 0
0 0 0
0 0 0
0 0 0
0 0 0
0 0 0
0 0 0
0 0 0
0 0 0
0 0 0
0 0 0
0 0 0
0 0 0
0 0 0
0 0 0
0 0 0
0 0 0
0 0 0
0 0 0
0 0 0
0 0 0
0 0 0
0 0 0
0 0 0
0 0 0
0 0 0
0 0 0
0 0 0
0 0 0
0 0 0
0 0 0
0 0 0
0 0 0
0 0 0
0 0 0
0 0 0
0 0 0
0 0 0
0 0 0
0 0 0
0 0 0
0 0 0
0 0 0
0 0 0
0 0 0
0 0 0
0 0 0
0 0 0
0 0 0
0 0 0
0 0 0
0 0 0
0 0 0
0 0 0
0 0 0
0 0 0
0 0 0
0 0 0
0 0 0
0 0 0
0 0 0
0 0 0
0 0 0
0 0 0
0 0 0
0 0 0
0 0 0
0 0 0
0 0 0
0 0 0
0 0 0
0 0 0
0 0 0
0 0 0
0 0 0
0 0 0
0 0 0
0 0 0
0 0 0
0 0 0
0 0 0
0 0 0
14 144 72
14 140 70
13 132 66
12 122 61
0 0 0
0 0 0
0 0 0
0 0 0
0 0 0
0 0 0
0 0 0
0 0 0
0 0 0
0 0 0
0 0 0
0 0 0
0 0 0
0 0 0
0 0 0
0 0 0
0 0 0
0 0 0
0 0 0
0 0 0
0 0 0
0 0 0
0 0 0
0 0 0
0 0 0
0 0 0
0 0 0
0 0 0
0 0 0
0 0 0
0 0 0
0 0 0
0 0 0
0 0 0
0 0 0
0 0 0
0 0 0
0 0 0
0 0 0
0 0 0
0 0 0
0 0 0
0 0 0
0 0 0
0 0 0
0 0 0
0 0 0
0 0 0
0 0 0
0 0 0
0 0 0
0 0 0
0 0 0
0 0 0
0 0 0
0 0 0
0 0 0
0 0 0
0 0 0
0 0 0
0 0 0
0 0 0
0 0 0
0 0 0
0 0 0
0 0 0
0 0 0
0 0 0
0 0 0
0 0 0
0 0 0
0 0 0
0 0 0
0 0 0
0 0 0
0 0 0
0 0 0
0 0 0
0 0 0
0 0 0
0 0 0
0 0 0
0 0 0
0 0 0
0 0 0
0 0 0
0 0 0
0 0 0
0 0 0
0 0 0
0 0 0
0 0 0
17 172 86
17 173 86
17 170 85
16 166 83
16 161 80
15 155 77
14 148 74
14 140 70
13 131 65
12 121 60
10 108 54
9 91 45
0 0 0
0 0 0
0 0 0
0 0 0
0 0 0
0 0 0
0 0 0
0 0 0
0 0 0
0 0 0
0 0 0
0 0 0
0 0 0
0 0 0
0 0 0
0 0 0
0 0 0
0 0 0
0 0 0
0 0 0
0 0 0
0 0 0
0 0 0
0 0 0
0 0 0
0 0 0
0 0 0
0 0 0
0 0 0
0 0 0
0 0 0
0 0 0
0 0 0
0 0 0
0 0 0
0 0 0
0 0 0
0 0 0
0 0 0
0 0 0
0 0 0
0 0 0
0 0 0
0 0 0
0 0 0
0 0 0
0 0 0
0 0 0
0 0 0
0 0 0
0 0 0
0 0 0
0 0 0
0 0 0
0 0 0
0 0 0
0 0 0
0 0 0
0 0 0
0 0 0
0 0 0
0 0 0
0 0 0
0 0 0
0 0 0
0 0 0
0 0 0
0 0 0
0 0 0
0 0 0
0 0 0
0 0 0
0 0 0
0 0 0
0 0 0
0 0 0
0 0 0
0 0 0
0 0 0
0 0 0
0 0 0
0 0 0
0 0 0
0 0 0
0 0 0
0 0 0
18 183 91
18 186 93
18 184 92
18 182 91
17 178 89
17 173 86
16 167 83
16 161 80
15 154 77
14 147 73
13 138 69
12 129 64
11 119 59
10 107 53
9 94 47
7 75 37
0 0 0
0 0 0
0 0 0
0 0 0
0 0 0
0 0 0
0 0 0
0 0 0
0 0 0
0 0 0
0 0 0
0 0 0
0 0 0
0 0 0
0 0 0
0 0 0
0 0 0
0 0 0
0 0 0
0 0 0
0 0 0
0 0 0
0 0 0
0 0 0
0 0 0
0 0 0
0 0 0
0 0 0
0 0 0
0 0 0
0 0 0
0 0 0
0 0 0
0 0 0
0 0 0
0 0 0
0 0 0
0 0 0
0 0 0
0 0 0
0 0 0
0 0 0
0 0 0
0 0 0
0 0 0
0 0 0
0 0 0
0 0 0
0 0 0
0 0 0
0 0 0
0 0 0
0 0 0
0 0 0
0 0 0
0 0 0
0 0 0
0 0 0
0 0 0
0 0 0
0 0 0
0 0 0
0 0 0
0 0 0
0 0 0
0 0 0
0 0 0
0 0 0
0 0 0
0 0 0
0 0 0
0 0 0
0 0 0
0 0 0
0 0 0
0 0 0
0 0 0
0 0 0
0 0 0
0 0 0
0 0 0
0 0 0
18 184 92
19 192 96
19 193 96
19 192 96
18 189 94
18 185 92
18 181 90
17 176 88
17 170 85
16 164 82
15 157 78
15 150 75
14 142 71
13 133 66
12 124 62
11 114 57
10 102 51
8 89 44
7 72 36
0 0 0
0 0 0
0 0 0
0 0 0
0 0 0
0 0 0
0 0 0
0 0 0
0 0 0
0 0 0
0 0 0
0 0 0
0 0 0
0 0 0
0 0 0
0 0 0
0 0 0
0 0 0
0 0 0
0 0 0
0 0 0
0 0 0
0 0 0
0 0 0
0 0 0
0 0 0
0 0 0
0 0 0
0 0 0
0 0 0
0 0 0
0 0 0
0 0 0
0 0 0
0 0 0
0 0 0
0 0 0
0 0 0
0 0 0
0 0 0
0 0 0
0 0 0
0 0 0
0 0 0
0 0 0
0 0 0
0 0 0
0 0 0
0 0 0
0 0 0
0 0 0
0 0 0
0 0 0
0 0 0
0 0 0
0 0 0
0 0 0
0 0 0
0 0 0
0 0 0
0 0 0
0 0 0
0 0 0
0 0 0
0 0 0
0 0 0
0 0 0
0 0 0
0 0 0
0 0 0
0 0 0
0 0 0
0 0 0
0 0 0
0 0 0
0 0 0
0 0 0
0 0 0
0 0 0
0 0 0
19 191 95
19 198 99
19 198 99
19 197 98
19 195 97
19 191 95
18 187 93
18 182 91
17 177 88
17 171 85
16 165 82
15 158 79
15 151 75
14 143 71
13 135 67
12 126 63
11 117 58
10 106 53
9 95 47
8 81 40
6 65 32
3 39 19
0 0 0
0 0 0
0 0 0
0 0 0
0 0 0
0 0 0
0 0 0
0 0 0
0 0 0
0 0 0
0 0 0
0 0 0
0 0 0
0 0 0
0 0 0
0 0 0
0 0 0
0 0 0
0 0 0
0 0 0
0 0 0
0 0 0
0 0 0
0 0 0
0 0 0
0 0 0
0 0 0
0 0 0
0 0 0
0 0 0
0 0 0
0 0 0
0 0 0
0 0 0
0 0 0
0 0 0
0 0 0
0 0 0
0 0 0
0 0 0
0 0 0
0 0 0
0 0 0
0 0 0
0 0 0
0 0 0
0 0 0
0 0 0
0 0 0
0 0 0
0 0 0
0 0 0
0 0 0
0 0 0
0 0 0
0 0 0
0 0 0
0 0 0
0 0 0
0 0 0
0 0 0
0 0 0
0 0 0
0 0 0
0 0 0
0 0 0
0 0 0
0 0 0
0 0 0
0 0 0
0 0 0
0 0 0
0 0 0
0 0 0
0 0 0
0 0 0
0 0 0
19 194 97
20 201 100
20 202 101
20 201 100
19 199 99
19 195 97
19 192 96
18 187 93
18 182 91
17 177 88
17 171 85
16 165 82
15 158 79
15 151 75
14 144 72
13 136 68
12 127 63
11 118 59
10 108 54
9 97 48
8 85 42
7 71 35
5 54 27
2 27 13
0 0 0
0 0 0
0 0 0
0 0 0
0 0 0
0 0 0
0 0 0
0 0 0
0 0 0
0 0 0
0 0 0
0 0 0
0 0 0
0 0 0
0 0 0
0 0 0
0 0 0
0 0 0
0 0 0
0 0 0
0 0 0
0 0 0
0 0 0
0 0 0
0 0 0
0 0 0
0 0 0
0 0 0
0 0 0
0 0 0
0 0 0
0 0 0
0 0 0
0 0 0
0 0 0
0 0 0
0 0 0
0 0 0
0 0 0
0 0 0
0 0 0
0 0 0
0 0 0
0 0 0
0 0 0
0 0 0
0 0 0
0 0 0
0 0 0
0 0 0
0 0 0
0 0 0
0 0 0
0 0 0
0 0 0
0 0 0
0 0 0
0 0 0
0 0 0
0 0 0
0 0 0
0 0 0
0 0 0
0 0 0
0 0 0
0 0 0
0 0 0
0 0 0
0 0 0
0 0 0
0 0 0
0 0 0
0 0 0
0 0 0
0 0 0
19 192 96
20 201 100
20 204 102
20 203 101
20 201 100
19 199 99
19 195 97
19 191 95
18 187 93
18 182 91
17 176 88
17 170 85
16 164 82
15 158 79
15 151 75
14 143 71
13 136 68
12 127 63
11 118 59
10 109 54
9 98 49
8 87 43
7 74 37
6 60 30
4 41 20
2 25 12
0 0 0
0 0 0
0 0 0
0 0 0
0 0 0
0 0 0
0 0 0
0 0 0
0 0 0
0 0 0
0 0 0
0 0 0
0 0 0
0 0 0
0 0 0
0 0 0
0 0 0
0 0 0
0 0 0
0 0 0
0 0 0
0 0 0
0 0 0
0 0 0
0 0 0
0 0 0
0 0 0
0 0 0
0 0 0
0 0 0
0 0 0
0 0 0
0 0 0
0 0 0
0 0 0
0 0 0
0 0 0
0 0 0
0 0 0
0 0 0
0 0 0
0 0 0
0 0 0
0 0 0
0 0 0
0 0 0
0 0 0
0 0 0
0 0 0
0 0 0
0 0 0
0 0 0
0 0 0
0 0 0
0 0 0
0 0 0
0 0 0
0 0 0
0 0 0
0 0 0
0 0 0
0 0 0
0 0 0
0 0 0
0 0 0
0 0 0
0 0 0
0 0 0
0 0 0
0 0 0
0 0 0
0 0 0
0 0 0
0 0 0
20 200 100
20 204 102
20 204 102
20 203 101
20 201 100
19 198 99
19 194 97
19 190 95
18 185 92
18 180 90
17 175 87
16 169 84
16 163 81
15 156 78
14 149 74
14 142 71
13 135 67
12 126 63
11 118 59
10 108 54
9 99 49
8 88 44
7 76 38
6 62 31
4 46 23
2 26 13
0 0 0
0 0 0
0 0 0
0 0 0
0 0 0
0 0 0
0 0 0
0 0 0
0 0 0
0 0 0
0 0 0
0 0 0
0 0 0
0 0 0
0 0 0
0 0 0
0 0 0
0 0 0
0 0 0
0 0 0
0 0 0
0 0 0
0 0 0
0 0 0
0 0 0
0 0 0
0 0 0
0 0 0
0 0 0
0 0 0
0 0 0
0 0 0
0 0 0
0 0 0
0 0 0
0 0 0
0 0 0
0 0 0
0 0 0
0 0 0
0 0 0
0 0 0
0 0 0
0 0 0
0 0 0
0 0 0
27 27 27
0 0 0
27 27 27
0 0 0
0 0 0
27 27 27
0 0 0
27 27 27
0 0 0
27 27 27
0 0 0
0 0 0
27 27 27
0 0 0
27 27 27
0 0 0
27 27 27
0 0 0
0 0 0
27 27 27
0 0 0
27 27 27
0 0 0
27 27 27
0 0 0
0 0 0
27 27 27
19 196 98
20 202 101
20 204 102
20 204 102
20 202 101
19 199 99
19 196 98
19 192 96
18 188 94
18 183 91
17 178 89
17 173 86
16 167 83
16 161 80
15 154 77
14 148 74
14 140 70
13 133 66
12 125 62
11 116 58
10 107 53
9 98 49
8 87 43
7 76 38
6 63 31
4 49 24
3 31 15
2 25 12
0 0 0
27 27 27
0 0 0
27 27 27
27 27 27
0 0 0
27 27 27
0 0 0
27 27 27
0 0 0
27 27 27
27 27 27
0 0 0
27 27 27
0 0 0
27 27 27
0 0 0
27 27 27
27 27 27
0 0 0
27 27 27
0 0 0
27 27 27
0 0 0
27 27 27
27 27 27
0 0 0
27 27 27
0 0 0
27 27 27
0 0 0
27 27 27
27 27 27
0 0 0
27 27 27
0 0 0
27 27 27
0 0 0
27 27 27
27 27 27
0 0 0
27 27 27
0 0 0
27 27 27
0 0 0
42 42 42
0 0 0
0 0 0
42 42 42
0 0 0
0 0 0
43 43 43
43 43 43
0 0 0
43 43 43
43 43 43
0 0 0
43 43 43
43 43 43
0 0 0
43 43 43
43 43 43
0 0 0
43 43 43
43 43 43
0 0 0
44 44 44
44 44 44
0 0 0
44 44 44
44 44 44
18 181 90
19 199 99
20 202 101
20 203 101
20 202 101
20 200 100
19 197 98
19 194 97
19 190 95
18 186 93
18 181 90
17 176 88
17 170 85
16 165 82
15 159 79
15 152 76
14 145 72
13 138 69
13 131 65
12 123 61
11 115 57
10 106 53
9 96 48
8 86 43
7 75 37
6 63 31
4 49 24
3 33 16
2 25 12
44 44 44
44 44 44
0 0 0
44 44 44
44 44 44
0 0 0
44 44 44
43 43 43
0 0 0
43 43 43
43 43 43
0 0 0
43 43 43
43 43 43
0 0 0
0 0 0
43 43 43
0 0 0
0 0 0
43 43 43
0 0 0
0 0 0
43 43 43
0 0 0
0 0 0
42 42 42
0 0 0
0 0 0
42 42 42
0 0 0
0 0 0
42 42 42
0 0 0
0 0 0
42 42 42
0 0 0
0 0 0
42 42 42
41 41 41
0 0 0
41 41 41
41 41 41
0 0 0
41 41 41
57 57 57
0 0 0
57 57 57
57 57 57
0 0 0
58 58 58
0 0 0
0 0 0
58 58 58
0 0 0
0 0 0
58 58 58
0 0 0
58 58 58
59 59 59
0 0 0
59 59 59
59 59 59
0 0 0
59 59 59
59 59 59
0 0 0
59 59 59
0 0 0
0 0 0
59 59 59
0 0 0
19 191 95
19 199 99
20 201 100
20 201 100
20 200 100
19 197 98
19 194 97
19 191 95
25 194 100
34 199 107
19 180 90
17 173 86
16 167 83
16 162 81
15 156 78
14 149 74
14 143 71
13 136 68
12 128 64
12 120 60
11 112 56
10 103 51
9 94 47
8 84 42
7 73 36
6 62 31
4 48 24
3 33 16
2 25 12
2 25 12
0 0 0
58 58 58
58 58 58
0 0 0
58 58 58
58 58 58
0 0 0
58 58 58
0 0 0
0 0 0
58 58 58
0 0 0
0 0 0
57 57 57
0 0 0
57 57 57
57 57 57
0 0 0
57 57 57
57 57 57
0 0 0
56 56 56
0 0 0
0 0 0
56 56 56
0 0 0
0 0 0
56 56 56
0 0 0
0 0 0
55 55 55
0 0 0
55 55 55
55 55 55
0 0 0
54 54 54
54 54 54
0 0 0
54 54 54
0 0 0
0 0 0
54 54 54
0 0 0
71 71 71
72 72 72
0 0 0
0 0 0
0 0 0
72 72 72
72 72 72
0 0 0
0 0 0
72 72 72
72 72 72
0 0 0
0 0 0
73 73 73
73 73 73
0 0 0
0 0 0
73 73 73
73 73 73
0 0 0
0 0 0
73 73 73
73 73 73
0 0 0
0 0 0
73 73 73
73 73 73
19 192 96
19 197 98
19 199 99
19 198 99
19 197 98
19 194 97
19 191 95
20 189 95
65 231 139
74 236 146
20 178 90
17 170 85
16 164 82
15 159 79
15 153 76
14 146 73
14 140 70
13 133 66
12 125 62
11 117 58
10 109 54
10 101 50
9 91 45
8 82 41
7 71 35
6 60 30
4 47 23
3 32 16
2 25 12
2 25 12
0 0 0
71 71 71
71 71 71
0 0 0
0 0 0
71 71 71
71 71 71
0 0 0
0 0 0
0 0 0
70 70 70
70 70 70
0 0 0
0 0 0
69 69 69
69 69 69
0 0 0
0 0 0
69 69 69
69 69 69
0 0 0
0 0 0
68 68 68
68 68 68
0 0 0
0 0 0
67 67 67
67 67 67
0 0 0
0 0 0
67 67 67
66 66 66
0 0 0
0 0 0
66 66 66
66 66 66
0 0 0
0 0 0
65 65 65
65 65 65
65 65 65
0 0 0
0 0 0
0 0 0
85 85 85
85 85 85
85 85 85
0 0 0
0 0 0
85 85 85
85 85 85
85 85 85
0 0 0
0 0 0
0 0 0
86 86 86
86 86 86
0 0 0
0 0 0
0 0 0
86 86 86
86 86 86
86 86 86
0 0 0
0 0 0
0 0 0
86 86 86
86 86 86
0 0 0
17 175 87
19 191 95
19 195 97
19 196 98
19 195 97
19 193 96
19 191 95
18 188 94
19 185 93
36 199 108
29 188 100
17 172 86
16 166 83
16 161 80
15 155 77
14 149 74
14 143 71
13 136 68
12 129 64
12 122 61
11 114 57
10 106 53
9 97 48
8 88 44
7 79 39
6 68 34
5 57 28
4 44 22
3 30 15
2 25 12
2 25 12
83 83 83
0 0 0
0 0 0
0 0 0
82 82 82
82 82 82
82 82 82
0 0 0
0 0 0
81 81 81
81 81 81
81 81 81
0 0 0
0 0 0
0 0 0
80 80 80
80 80 80
79 79 79
0 0 0
0 0 0
79 79 79
79 79 79
78 78 78
0 0 0
0 0 0
0 0 0
78 78 78
77 77 77
77 77 77
0 0 0
0 0 0
76 76 76
76 76 76
76 76 76
0 0 0
0 0 0
0 0 0
75 75 75
75 75 75
0 0 0
0 0 0
0 0 0
74 74 74
0 0 0
0 0 0
97 97 97
97 97 97
97 97 97
97 97 97
0 0 0
0 0 0
0 0 0
97 97 97
97 97 97
97 97 97
97 97 97
0 0 0
0 0 0
0 0 0
97 97 97
97 97 97
97 97 97
0 0 0
0 0 0
0 0 0
0 0 0
97 97 97
97 97 97
97 97 97
17 178 89
18 189 94
19 192 96
19 192 96
19 191 95
19 190 95
18 187 93
18 184 92
18 180 90
18 177 88
17 172 86
16 167 83
16 162 81
15 157 78
15 151 75
14 145 72
13 139 69
13 132 66
12 125 62
11 118 59
11 110 55
10 102 51
9 94 47
8 85 42
7 75 37
6 65 32
5 54 27
4 41 20
2 28 14
2 25 12
2 25 12
2 25 12
92 92 92
92 92 92
0 0 0
0 0 0
0 0 0
0 0 0
91 91 91
91 91 91
90 90 90
0 0 0
0 0 0
0 0 0
90 90 90
89 89 89
89 89 89
89 89 89
0 0 0
0 0 0
0 0 0
88 88 88
88 88 88
87 87 87
87 87 87
0 0 0
0 0 0
0 0 0
86 86 86
86 86 86
86 86 86
0 0 0
0 0 0
0 0 0
0 0 0
84 84 84
84 84 84
84 84 84
0 0 0
0 0 0
0 0 0
0 0 0
82 82 82
82 82 82
0 0 0
107 107 107
107 107 107
107 107 107
107 107 107
0 0 0
0 0 0
0 0 0
0 0 0
107 107 107
107 107 107
107 107 107
107 107 107
0 0 0
0 0 0
0 0 0
0 0 0
0 0 0
107 107 107
107 107 107
107 107 107
107 107 107
0 0 0
0 0 0
0 0 0
0 0 0
17 176 88
18 185 92
18 188 94
18 188 94
18 187 93
18 185 92
18 183 91
18 180 90
17 176 88
17 172 86
16 168 84
16 163 81
15 158 79
15 153 76
14 147 73
14 141 70
13 135 67
12 128 64
12 121 60
11 114 57
10 106 53
9 98 49
9 90 45
8 81 40
7 71 35
6 61 30
5 50 25
3 38 19
2 25 12
2 25 12
2 25 12
2 25 12
101 101 101
100 100 100
100 100 100
100 100 100
0 0 0
0 0 0
0 0 0
0 0 0
99 99 99
98 98 98
98 98 98
98 98 98
0 0 0
0 0 0
0 0 0
0 0 0
96 96 96
96 96 96
96 96 96
96 96 96
0 0 0
0 0 0
0 0 0
0 0 0
94 94 94
94 94 94
94 94 94
93 93 93
93 93 93
0 0 0
0 0 0
0 0 0
0 0 0
92 92 92
91 91 91
91 91 91
91 91 91
0 0 0
0 0 0
0 0 0
0 0 0
90 90 90
0 0 0
0 0 0
0 0 0
116 116 116
116 116 116
116 116 116
116 116 116
116 116 116
0 0 0
0 0 0
0 0 0
0 0 0
116 116 116
116 116 116
116 116 116
116 116 116
116 116 116
0 0 0
0 0 0
0 0 0
0 0 0
0 0 0
115 115 115
115 115 115
115 115 115
115 115 115
17 172 86
18 180 90
18 183 91
18 184 92
18 183 91
18 181 90
17 178 89
17 175 87
17 172 86
16 168 84
16 163 81
15 159 79
15 153 76
14 148 74
14 143 71
13 137 68
13 130 65
12 124 62
11 117 58
11 110 55
10 102 51
9 94 47
8 86 43
7 77 38
6 67 33
5 57 28
4 46 23
3 34 17
2 25 12
2 25 12
2 25 12
2 25 12
0 0 0
107 107 107
107 107 107
107 107 107
107 107 107
106 106 106
0 0 0
0 0 0
0 0 0
0 0 0
0 0 0
105 105 105
104 104 104
104 104 104
104 104 104
104 104 104
0 0 0
0 0 0
0 0 0
0 0 0
102 102 102
102 102 102
102 102 102
101 101 101
101 101 101
0 0 0
0 0 0
0 0 0
0 0 0
0 0 0
99 99 99
99 99 99
99 99 99
98 98 98
0 0 0
0 0 0
0 0 0
0 0 0
0 0 0
97 97 97
96 96 96
96 96 96
124 124 124
124 124 124
0 0 0
0 0 0
0 0 0
0 0 0
0 0 0
124 124 124
124 124 124
124 124 124
124 124 124
124 124 124
0 0 0
0 0 0
0 0 0
0 0 0
0 0 0
0 0 0
123 123 123
123 123 123
123 123 123
122 122 122
122 122 122
0 0 0
0 0 0
0 0 0
16 167 83
17 175 87
17 178 89
17 178 89
17 178 89
17 176 88
17 173 86
17 170 85
16 167 83
16 163 81
15 158 79
15 154 77
14 149 74
14 143 71
13 138 69
13 132 66
12 126 63
11 119 59
11 112 56
10 105 52
9 97 48
8 89 44
8 81 40
7 72 36
6 62 31
5 52 26
4 41 20
2 29 14
2 25 12
2 25 12
2 25 12
2 25 12
0 0 0
0 0 0
0 0 0
113 113 113
113 113 113
113 113 113
112 112 112
112 112 112
0 0 0
0 0 0
0 0 0
0 0 0
0 0 0
0 0 0
110 110 110
110 110 110
109 109 109
109 109 109
109 109 109
0 0 0
0 0 0
0 0 0
0 0 0
0 0 0
107 107 107
106 106 106
106 106 106
106 106 106
106 106 106
105 105 105
0 0 0
0 0 0
0 0 0
0 0 0
0 0 0
103 103 103
103 103 103
103 103 103
103 103 103
102 102 102
0 0 0
0 0 0
0 0 0
0 0 0
131 131 131
131 131 131
131 131 131
131 131 131
131 131 131
131 131 131
0 0 0
0 0 0
0 0 0
0 0 0
0 0 0
0 0 0
130 130 130
130 130 130
129 129 129
129 129 129
129 129 129
129 129 129
0 0 0
0 0 0
0 0 0
0 0 0
0 0 0
0 0 0
16 160 80
16 169 84
17 172 86
17 173 86
17 172 86
17 170 85
16 168 84
16 165 82
16 161 80
15 157 78
15 153 76
14 149 74
14 144 72
13 138 69
13 133 66
12 127 63
12 121 60
11 114 57
10 107 53
10 100 50
9 92 46
8 84 42
7 76 38
6 67 33
5 57 28
4 47 23
3 36 18
2 25 12
2 25 12
2 25 12
2 25 12
2 25 12
0 0 0
0 0 0
0 0 0
0 0 0
118 118 118
118 118 118
118 118 118
117 117 117
117 117 117
117 117 117
0 0 0
0 0 0
0 0 0
0 0 0
0 0 0
0 0 0
114 114 114
114 114 114
114 114 114
114 114 114
113 113 113
113 113 113
0 0 0
0 0 0
0 0 0
0 0 0
0 0 0
0 0 0
111 111 111
110 110 110
110 110 110
110 110 110
109 109 109
109 109 109
0 0 0
0 0 0
0 0 0
0 0 0
0 0 0
0 0 0
107 107 107
107 107 107
137 137 137
137 137 137
137 137 137
0 0 0
0 0 0
0 0 0
0 0 0
0 0 0
0 0 0
0 0 0
136 136 136
136 136 136
136 136 136
135 135 135
135 135 135
135 135 135
0 0 0
0 0 0
0 0 0
0 0 0
0 0 0
0 0 0
0 0 0
133 133 133
133 133 133
133 133 133
15 152 76
16 162 81
16 166 83
16 167 83
16 166 83
16 164 82
16 162 81
15 159 79
15 156 78
15 152 76
14 148 74
14 143 71
13 138 69
13 133 66
12 127 63
12 121 60
11 115 57
10 109 54
10 102 51
9 95 47
8 87 43
7 79 39
7 70 35
6 61 30
5 52 26
4 42 21
3 30 15
2 25 12
2 25 12
2 25 12
2 25 12
2 25 12
0 0 0
0 0 0
0 0 0
0 0 0
0 0 0
123 123 123
122 122 122
122 122 122
122 122 122
121 121 121
121 121 121
121 121 121
0 0 0
0 0 0
0 0 0
0 0 0
0 0 0
77 154 15
79 158 15
77 155 15
74 148 14
68 137 13
60 121 12
46 93 9
116 116 116
116 116 116
0 0 0
0 0 0
0 0 0
0 0 0
0 0 0
0 0 0
114 114 114
114 114 114
113 113 113
113 113 113
113 113 113
112 112 112
112 112 112
0 0 0
0 0 0
0 0 0
0 0 0
0 0 0
0 0 0
0 0 0
0 0 0
0 0 0
141 141 141
141 141 141
141 141 141
141 141 141
141 141 141
141 141 141
140 140 140
0 0 0
0 0 0
0 0 0
0 0 0
0 0 0
0 0 0
0 0 0
0 0 0
138 138 138
138 138 138
138 138 138
138 138 138
138 138 138
14 140 70
15 154 77
15 159 79
16 160 80
16 160 80
15 158 79
15 156 78
15 153 76
15 150 75
14 146 73
14 142 71
13 137 68
13 132 66
12 127 63
12 121 60
11 116 58
10 109 54
10 103 51
9 96 48
8 89 44
8 81 40
7 73 36
6 65 32
5 56 28
4 46 23
3 35 17
2 25 12
2 25 12
2 25 12
2 25 12
2 25 12
2 25 12
0 0 0
0 0 0
0 0 0
0 0 0
0 0 0
0 0 0
0 0 0
126 126 126
126 126 126
125 125 125
125 125 125
125 125 125
124 124 124
124 124 124
0 0 0
86 172 17
90 180 18
91 182 18
89 179 17
87 174 17
83 167 16
79 158 15
72 145 14
65 130 13
55 110 11
39 78 7
120 120 120
120 120 120
119 119 119
0 0 0
0 0 0
0 0 0
0 0 0
0 0 0
0 0 0
0 0 0
117 117 117
116 116 116
116 116 116
116 116 116
115 115 115
115 115 115
0 0 0
0 0 0
146 146 146
146 146 146
146 146 146
146 146 146
146 146 146
145 145 145
145 145 145
145 145 145
0 0 0
0 0 0
0 0 0
0 0 0
0 0 0
0 0 0
0 0 0
0 0 0
143 143 143
143 143 143
143 143 143
142 142 142
142 142 142
142 142 142
142 142 142
141 141 141
0 0 0
14 145 72
15 151 75
15 152 76
15 152 76
15 151 75
14 149 74
14 147 73
14 143 71
14 140 70
13 135 67
13 131 65
12 126 63
12 121 60
11 115 57
11 110 55
10 103 51
9 97 48
9 90 45
8 83 41
7 75 37
6 67 33
5 58 29
4 49 24
3 39 19
2 29 14
2 25 12
2 25 12
2 25 12
2 25 12
2 25 12
132 132 132
0 0 0
0 0 0
0 0 0
0 0 0
0 0 0
0 0 0
0 0 0
0 0 0
129 129 129
129 129 129
129 129 129
128 128 128
128 128 128
75 151 15
91 183 18
95 191 19
97 194 19
96 193 19
95 190 19
92 184 18
88 177 17
84 168 16
78 156 15
71 143 14
63 127 12
53 107 10
39 79 7
123 123 123
123 123 123
123 123 123
122 122 122
122 122 122
0 0 0
0 0 0
0 0 0
0 0 0
0 0 0
0 0 0
0 0 0
0 0 0
119 119 119
119 119 119
150 150 150
150 150 150
150 150 150
150 150 150
150 150 150
150 150 150
0 0 0
0 0 0
0 0 0
0 0 0
0 0 0
0 0 0
0 0 0
0 0 0
0 0 0
147 147 147
147 147 147
147 147 147
147 147 147
146 146 146
146 146 146
146 146 146
146 146 146
145 145 145
0 0 0
0 0 0
0 0 0
13 134 67
14 142 71
14 144 72
14 145 72
14 144 72
14 142 71
14 140 70
13 136 68
13 133 66
12 129 64
12 124 62
12 120 60
11 114 57
10 109 54
10 103 51
9 97 48
9 90 45
8 83 41
7 76 38
6 68 34
6 60 30
5 52 26
4 42 21
3 32 16
2 25 12
2 25 12
2 25 12
2 25 12
2 25 12
2 25 12
135 135 135
135 135 135
0 0 0
0 0 0
0 0 0
0 0 0
0 0 0
0 0 0
0 0 0
0 0 0
132 132 132
132 132 132
131 131 131
131 131 131
92 185 18
98 196 19
100 200 20
100 201 20
99 199 19
97 195 19
94 189 18
91 182 18
86 173 17
81 162 16
75 150 15
67 135 13
59 118 11
48 97 9
33 67 6
126 126 126
126 126 126
125 125 125
125 125 125
125 125 125
125 125 125
124 124 124
124 124 124
0 0 0
0 0 0
0 0 0
0 0 0
0 0 0
0 0 0
154 154 154
153 153 153
153 153 153
0 0 0
0 0 0
0 0 0
0 0 0
0 0 0
0 0 0
0 0 0
0 0 0
0 0 0
0 0 0
151 151 151
151 151 151
150 150 150
150 150 150
150 150 150
150 150 150
149 149 149
149 149 149
149 149 149
0 0 0
0 0 0
0 0 0
0 0 0
0 0 0
11 118 59
13 131 65
13 135 67
13 136 68
13 136 68
13 134 67
13 132 66
12 129 64
12 126 63
12 122 61
11 117 58
11 113 56
10 107 53
10 102 51
9 96 48
9 90 45
8 83 41
7 76 38
6 69 34
6 61 30
5 53 26
4 44 22
3 35 17
2 25 12
2 25 12
2 25 12
2 25 12
2 25 12
2 25 12
2 25 12
138 138 138
138 138 138
0 0 0
0 0 0
0 0 0
0 0 0
0 0 0
0 0 0
0 0 0
0 0 0
0 0 0
0 0 0
134 134 134
89 179 17
97 195 19
100 201 20
102 204 20
101 203 20
100 201 20
98 196 19
95 191 19
91 183 18
87 175 17
82 165 16
76 153 15
69 139 13
62 124 12
52 105 10
40 81 8
23 46 4
129 129 129
128 128 128
128 128 128
128 128 128
127 127 127
127 127 127
127 127 127
126 126 126
126 126 126
126 126 126
0 0 0
0 0 0
0 0 0
0 0 0
0 0 0
0 0 0
0 0 0
0 0 0
0 0 0
0 0 0
0 0 0
0 0 0
0 0 0
154 154 154
154 154 154
154 154 154
153 153 153
153 153 153
153 153 153
153 153 153
152 152 152
152 152 152
152 152 152
0 0 0
0 0 0
0 0 0
0 0 0
0 0 0
0 0 0
0 0 0
0 0 0
11 118 59
12 125 62
12 127 63
12 127 63
12 126 63
12 124 62
12 121 60
11 118 59
11 114 57
11 110 55
10 105 52
10 100 50
9 95 47
8 89 44
8 83 41
7 76 38
6 69 34
6 62 31
5 54 27
4 45 22
3 36 18
2 27 13
2 25 12
2 25 12
2 25 12
2 25 12
2 25 12
2 25 12
141 141 141
141 141 141
140 140 140
140 140 140
0 0 0
0 0 0
0 0 0
0 0 0
0 0 0
0 0 0
0 0 0
0 0 0
0 0 0
78 157 15
93 187 18
99 198 19
101 203 20
102 204 20
101 203 20
100 200 20
98 196 19
95 190 19
91 183 18
87 174 17
82 165 16
76 153 15
70 140 14
63 126 12
54 108 10
43 87 8
29 59 5
12 25 2
0 0 0
0 0 0
130 130 130
130 130 130
130 130 130
129 129 129
129 129 129
129 129 129
129 129 129
128 128 128
128 128 128
128 128 128
0 0 0
0 0 0
0 0 0
0 0 0
0 0 0
0 0 0
0 0 0
157 157 157
157 157 157
157 157 157
156 156 156
156 156 156
156 156 156
156 156 156
155 155 155
155 155 155
155 155 155
155 155 155
0 0 0
0 0 0
0 0 0
0 0 0
0 0 0
0 0 0
0 0 0
0 0 0
0 0 0
0 0 0
9 98 49
11 112 56
11 116 58
11 117 58
11 117 58
11 115 57
11 113 56
10 109 54
10 106 53
10 102 51
9 97 48
9 92 46
8 87 43
8 81 40
7 75 37
6 68 34
6 61 30
5 53 26
4 45 22
3 37 18
2 28 14
2 25 12
2 25 12
2 25 12
2 25 12
2 25 12
2 25 12
2 25 12
25 25 25
25 25 25
25 25 25
25 25 25
25 25 25
0 0 0
0 0 0
0 0 0
0 0 0
0 0 0
0 0 0
0 0 0
0 0 0
84 169 16
94 189 18
98 197 19
100 201 20
101 202 20
100 201 20
105 204 25
100 197 22
94 188 18
90 181 18
86 172 17
81 163 16
76 152 15
69 139 13
62 125 12
54 108 10
44 89 8
32 64 6
14 28 2
0 0 0
0 0 0
0 0 0
0 0 0
0 0 0
132 132 132
132 132 132
131 131 131
131 131 131
131 131 131
130 130 130
130 130 130
0 0 0
0 0 0
0 0 0
0 0 0
0 0 0
160 160 160
160 160 160
159 159 159
159 159 159
159 159 159
159 159 159
158 158 158
158 158 158
158 158 158
157 157 157
157 157 157
0 0 0
0 0 0
157 126 15
149 119 14
132 106 13
110 88 11
78 62 7
0 0 0
0 0 0
0 0 0
0 0 0
154 154 154
154 154 154
9 95 47
10 103 51
10 106 53
10 106 53
10 105 52
10 103 51
10 100 50
9 97 48
9 93 46
8 88 44
8 83 41
7 78 39
7 72 36
6 66 33
5 59 29
5 52 26
4 45 22
3 37 18
2 28 14
2 25 12
2 25 12
2 25 12
2 25 12
2 25 12
2 25 12
2 25 12
25 25 25
25 25 25
25 25 25
25 25 25
25 25 25
25 25 25
0 0 0
0 0 0
0 0 0
0 0 0
0 0 0
0 0 0
0 0 0
0 0 0
85 171 17
93 187 18
97 195 19
99 198 19
99 199 19
98 197 19
128 225 50
103 198 27
92 184 18
88 177 17
84 169 16
79 159 15
74 149 14
68 136 13
61 122 12
53 106 10
44 88 8
32 65 6
16 33 3
0 0 0
0 0 0
0 0 0
0 0 0
0 0 0
0 0 0
0 0 0
133 133 133
133 133 133
133 133 133
133 133 133
132 132 132
0 0 0
0 0 0
162 162 162
162 162 162
162 162 162
162 162 162
161 161 161
161 161 161
161 161 161
161 161 161
160 160 160
160 160 160
160 160 160
160 160 160
0 0 0
0 0 0
187 150 18
185 148 18
175 140 17
160 128 16
143 114 14
122 98 12
98 79 9
69 55 6
25 20 2
0 0 0
156 156 156
156 156 156
155 155 155
155 155 155
8 86 43
9 92 46
9 94 47
9 94 47
9 93 46
9 90 45
8 87 43
8 83 41
7 79 39
7 74 37
6 69 34
6 63 31
5 57 28
5 50 25
4 43 21
3 35 17
2 27 13
2 25 12
2 25 12
2 25 12
2 25 12
2 25 12
2 25 12
2 25 12
25 25 25
25 25 25
25 25 25
25 25 25
25 25 25
25 25 25
25 25 25
25 25 25
0 0 0
0 0 0
0 0 0
0 0 0
0 0 0
0 0 0
0 0 0
83 167 16
91 182 18
94 189 18
96 193 19
96 193 19
96 192 19
94 189 18
92 184 18
89 179 17
86 172 17
82 164 16
77 154 15
72 144 14
66 132 13
59 118 11
51 102 10
42 84 8
31 62 6
16 33 3
0 0 0
0 0 0
0 0 0
0 0 0
0 0 0
0 0 0
0 0 0
0 0 0
0 0 0
0 0 0
135 135 135
134 134 134
164 164 164
164 164 164
164 164 164
164 164 164
163 163 163
163 163 163
163 163 163
163 163 163
162 162 162
162 162 162
162 162 162
162 162 162
0 0 0
0 0 0
0 0 0
199 159 19
198 158 19
189 151 18
176 141 17
161 128 16
143 114 14
123 98 12
101 80 10
75 60 7
43 35 4
25 20 2
158 158 158
157 157 157
157 157 157
157 157 157
156 156 156
7 74 37
8 80 40
8 81 40
8 81 40
7 79 39
7 76 38
7 72 36
6 68 34
6 64 32
5 58 29
5 53 26
4 46 23
4 40 20
3 32 16
2 25 12
2 25 12
2 25 12
2 25 12
2 25 12
2 25 12
2 25 12
2 25 12
25 25 25
25 25 25
25 25 25
25 25 25
25 25 25
25 25 25
25 25 25
25 25 25
25 25 25
25 25 25
0 0 0
0 0 0
0 0 0
0 0 0
0 0 0
0 0 0
80 160 16
87 175 17
91 182 18
93 186 18
93 186 18
92 185 18
91 182 18
89 178 17
86 172 17
82 165 16
78 157 15
74 148 14
69 138 13
63 126 12
56 112 11
48 97 9
39 79 7
28 57 5
14 29 2
12 25 2
0 0 0
0 0 0
0 0 0
0 0 0
0 0 0
0 0 0
0 0 0
0 0 0
0 0 0
0 0 0
0 0 0
166 166 166
166 166 166
165 165 165
165 165 165
165 165 165
165 165 165
164 164 164
164 164 164
164 164 164
164 164 164
0 0 0
0 0 0
0 0 0
0 0 0
200 160 20
203 163 20
197 157 19
186 149 18
172 138 17
157 125 15
139 111 13
119 95 11
97 78 9
73 58 7
44 35 4
25 20 2
159 159 159
159 159 159
158 158 158
158 158 158
158 158 158
158 158 158
5 59 29
6 65 32
6 66 33
6 65 32
6 63 31
6 60 30
5 56 28
5 52 26
4 47 23
4 41 20
3 35 17
2 28 14
2 25 12
2 25 12
2 25 12
2 25 12
2 25 12
2 25 12
2 25 12
2 25 12
25 25 25
25 25 25
25 25 25
25 25 25
25 25 25
25 25 25
25 25 25
25 25 25
25 25 25
25 25 25
25 25 25
0 0 0
0 0 0
0 0 0
0 0 0
0 0 0
0 0 0
74 149 14
82 165 16
86 173 17
88 177 17
89 178 17
88 177 17
87 174 17
85 170 17
82 164 16
78 157 15
74 149 14
70 140 14
65 130 13
59 118 11
52 105 10
44 89 8
35 71 7
24 49 4
12 25 2
12 25 2
141 141 141
0 0 0
0 0 0
0 0 0
0 0 0
0 0 0
0 0 0
0 0 0
0 0 0
0 0 0
0 0 0
167 167 167
167 167 167
167 167 167
166 166 166
166 166 166
166 166 166
166 166 166
165 165 165
0 0 0
0 0 0
0 0 0
0 0 0
0 0 0
0 0 0
203 162 20
200 160 20
191 153 19
193 157 31
166 132 16
150 120 15
132 106 13
112 90 11
91 73 9
67 53 6
39 31 3
25 20 2
25 20 2
160 160 160
160 160 160
159 159 159
159 159 159
159 159 159
159 159 159
3 38 19
4 47 23
4 49 24
4 48 24
4 46 23
4 43 21
3 38 19
3 33 16
2 28 14
2 25 12
2 25 12
2 25 12
2 25 12
2 25 12
2 25 12
2 25 12
2 25 12
2 25 12
25 25 25
25 25 25
25 25 25
25 25 25
25 25 25
25 25 25
25 25 25
25 25 25
25 25 25
25 25 25
25 25 25
25 25 25
25 25 25
0 0 0
0 0 0
0 0 0
0 0 0
0 0 0
66 133 13
76 152 15
81 162 16
83 166 16
83 167 16
83 167 16
82 164 16
80 160 16
77 155 15
74 148 14
70 140 14
65 131 13
60 121 12
54 109 10
47 95 9
40 80 8
31 62 6
20 40 4
12 25 2
143 143 143
142 142 142
142 142 142
142 142 142
0 0 0
0 0 0
0 0 0
0 0 0
0 0 0
0 0 0
0 0 0
0 0 0
168 168 168
168 168 168
168 168 168
167 167 167
167 167 167
167 167 167
0 0 0
0 0 0
0 0 0
0 0 0
0 0 0
0 0 0
0 0 0
188 151 18
197 158 19
192 154 19
183 146 18
174 139 19
157 125 15
141 112 14
123 98 12
103 83 10
82 65 8
58 46 5
31 25 3
25 20 2
25 20 2
161 161 161
161 161 161
160 160 160
160 160 160
160 160 160
160 160 160
159 159 159
159 159 159
2 25 12
2 27 13
2 27 13
2 25 12
2 25 12
2 25 12
2 25 12
2 25 12
2 25 12
2 25 12
2 25 12
2 25 12
2 25 12
2 25 12
0 0 0
25 25 25
25 25 25
25 25 25
25 25 25
25 25 25
25 25 25
25 25 25
25 25 25
25 25 25
25 25 25
25 25 25
25 25 25
25 25 25
25 25 25
25 25 25
0 0 0
0 0 0
0 0 0
0 0 0
54 109 10
68 136 13
74 148 14
76 153 15
77 155 15
77 155 15
76 153 15
74 149 14
72 144 14
68 137 13
65 130 13
60 121 12
55 110 11
49 98 9
42 85 8
34 69 6
25 50 5
13 27 2
12 25 2
25 25 25
25 25 25
144 144 144
143 143 143
143 143 143
143 143 143
0 0 0
0 0 0
0 0 0
0 0 0
0 0 0
0 0 0
169 169 169
169 169 169
169 169 169
168 168 168
0 0 0
0 0 0
0 0 0
0 0 0
0 0 0
0 0 0
0 0 0
0 0 0
0 0 0
184 147 18
188 150 18
182 146 18
172 138 17
160 128 16
146 117 14
130 104 13
112 90 11
93 74 9
71 57 7
47 38 4
25 20 2
25 20 2
25 20 2
162 162 162
162 162 162
162 162 162
161 161 161
161 161 161
161 161 161
160 160 160
160 160 160
0 0 0
0 0 0
0 0 0
2 25 12
2 25 12
2 25 12
2 25 12
2 25 12
2 25 12
2 25 12
2 25 12
0 0 0
0 0 0
0 0 0
0 0 0
25 25 25
25 25 25
25 25 25
25 25 25
25 25 25
25 25 25
25 25 25
25 25 25
25 25 25
25 25 25
25 25 25
25 25 25
25 25 25
152 152 152
152 152 152
0 0 0
0 0 0
0 0 0
0 0 0
0 0 0
57 115 11
65 131 13
69 138 13
70 141 14
70 141 14
70 140 14
68 136 13
65 131 13
62 125 12
58 117 11
54 108 10
49 98 9
43 86 8
36 72 7
27 55 5
18 36 3
12 25 2
12 25 2
25 25 25
25 25 25
25 25 25
25 25 25
25 25 25
25 25 25
25 25 25
144 144 144
0 0 0
0 0 0
0 0 0
0 0 0
170 170 170
170 170 170
0 0 0
0 0 0
0 0 0
0 0 0
0 0 0
0 0 0
0 0 0
0 0 0
0 0 0
0 0 0
0 0 0
171 137 17
175 140 17
170 136 17
160 128 16
148 118 14
133 107 13
117 94 11
99 79 9
80 64 8
58 46 5
34 27 3
25 20 2
25 20 2
25 20 2
163 163 163
163 163 163
162 162 162
162 162 162
162 162 162
162 162 162
161 161 161
0 0 0
0 0 0
0 0 0
0 0 0
0 0 0
0 0 0
0 0 0
0 0 0
0 0 0
0 0 0
0 0 0
0 0 0
0 0 0
0 0 0
0 0 0
0 0 0
25 25 25
25 25 25
25 25 25
25 25 25
25 25 25
25 25 25
25 25 25
25 25 25
155 155 155
154 154 154
154 154 154
154 154 154
154 154 154
153 153 153
153 153 153
153 153 153
0 0 0
0 0 0
0 0 0
0 0 0
39 79 7
54 108 10
59 119 11
62 124 12
62 125 12
62 124 12
61 122 12
58 117 11
55 111 11
51 103 10
47 94 9
41 83 8
35 71 7
28 56 5
19 39 3
12 25 2
12 25 2
25 25 25
25 25 25
25 25 25
25 25 25
25 25 25
25 25 25
25 25 25
25 25 25
25 25 25
25 25 25
144 144 144
0 0 0
0 0 0
0 0 0
0 0 0
0 0 0
0 0 0
0 0 0
0 0 0
0 0 0
0 0 0
0 0 0
0 0 0
0 0 0
0 0 0
0 0 0
153 122 15
160 128 16
155 124 15
145 116 14
133 106 13
119 95 11
103 82 10
85 68 8
65 52 6
43 34 4
25 20 2
25 20 2
25 20 2
25 20 2
164 164 164
164 164 164
163 163 163
163 163 163
163 163 163
163 163 163
0 0 0
0 0 0
0 0 0
0 0 0
0 0 0
0 0 0
0 0 0
0 0 0
0 0 0
0 0 0
0 0 0
0 0 0
0 0 0
0 0 0
0 0 0
0 0 0
0 0 0
158 158 158
158 158 158
157 157 157
157 157 157
157 157 157
156 156 156
156 156 156
156 156 156
156 156 156
155 155 155
155 155 155
155 155 155
155 155 155
154 154 154
154 154 154
154 154 154
154 154 154
0 0 0
0 0 0
0 0 0
0 0 0
37 74 7
47 95 9
51 103 10
53 106 10
53 106 10
52 104 10
50 100 10
47 94 9
43 87 8
38 77 7
33 66 6
26 53 5
19 38 3
12 25 2
12 25 2
12 25 2
25 25 25
25 25 25
25 25 25
25 25 25
25 25 25
25 25 25
25 25 25
25 25 25
25 25 25
25 25 25
146 146 146
145 145 145
145 145 145
0 0 0
0 0 0
0 0 0
0 0 0
0 0 0
0 0 0
0 0 0
0 0 0
0 0 0
0 0 0
0 0 0
0 0 0
0 0 0
0 0 0
140 112 14
137 110 13
128 103 12
117 93 11
102 82 10
86 69 8
68 54 6
48 38 4
26 21 2
25 20 2
25 20 2
25 20 2
25 25 25
25 25 25
25 25 25
25 25 25
25 25 25
25 25 25
25 25 25
0 0 0
0 0 0
0 0 0
0 0 0
0 0 0
0 0 0
0 0 0
0 0 0
0 0 0
0 0 0
0 0 0
0 0 0
0 0 0
0 0 0
0 0 0
0 0 0
0 0 0
159 159 159
158 158 158
158 158 158
158 158 158
158 158 158
157 157 157
157 157 157
157 157 157
157 157 157
156 156 156
156 156 156
156 156 156
156 156 156
155 155 155
155 155 155
155 155 155
155 155 155
0 0 0
0 0 0
0 0 0
0 0 0
0 0 0
27 55 5
37 75 7
41 82 8
42 84 8
41 83 8
39 79 7
37 74 7
33 67 6
28 57 5
23 46 4
15 31 3
12 25 2
12 25 2
12 25 2
25 25 25
25 25 25
25 25 25
25 25 25
25 25 25
25 25 25
25 25 25
25 25 25
25 25 25
25 25 25
25 25 25
147 147 147
146 146 146
146 146 146
0 0 0
0 0 0
0 0 0
0 0 0
0 0 0
0 0 0
0 0 0
0 0 0
0 0 0
0 0 0
0 0 0
0 0 0
0 0 0
0 0 0
114 91 11
115 92 11
108 87 10
97 78 9
83 67 8
67 54 6
49 39 4
29 23 2
25 20 2
25 20 2
25 20 2
25 20 2
25 25 25
25 25 25
25 25 25
25 25 25
25 25 25
25 25 25
0 0 0
0 0 0
0 0 0
0 0 0
0 0 0
0 0 0
0 0 0
0 0 0
0 0 0
0 0 0
0 0 0
0 0 0
0 0 0
0 0 0
0 0 0
0 0 0
0 0 0
0 0 0
159 159 159
159 159 159
159 159 159
159 159 159
158 158 158
158 158 158
158 158 158
158 158 158
157 157 157
157 157 157
157 157 157
157 157 157
156 156 156
156 156 156
156 156 156
156 156 156
155 155 155
155 155 155
0 0 0
0 0 0
0 0 0
0 0 0
0 0 0
0 0 0
23 46 4
27 54 5
27 55 5
26 53 5
24 49 4
20 41 4
15 31 3
12 25 2
12 25 2
12 25 2
0 0 0
0 0 0
25 25 25
25 25 25
25 25 25
25 25 25
25 25 25
25 25 25
25 25 25
25 25 25
25 25 25
148 148 148
148 148 148
148 148 148
147 147 147
147 147 147
0 0 0
0 0 0
0 0 0
0 0 0
0 0 0
0 0 0
0 0 0
0 0 0
0 0 0
0 0 0
0 0 0
0 0 0
0 0 0
169 169 169
169 169 169
86 69 8
83 67 8
74 59 7
61 48 6
45 36 4
26 21 2
25 20 2
25 20 2
25 20 2
25 20 2
25 25 25
25 25 25
25 25 25
25 25 25
25 25 25
25 25 25
0 0 0
0 0 0
0 0 0
0 0 0
0 0 0
0 0 0
0 0 0
0 0 0
0 0 0
0 0 0
0 0 0
0 0 0
0 0 0
0 0 0
0 0 0
0 0 0
0 0 0
0 0 0
0 0 0
160 160 160
160 160 160
160 160 160
159 159 159
159 159 159
159 159 159
159 159 159
158 158 158
158 158 158
158 158 158
158 158 158
157 157 157
157 157 157
157 157 157
157 157 157
157 157 157
156 156 156
156 156 156
156 156 156
0 0 0
0 0 0
0 0 0
0 0 0
0 0 0
0 0 0
0 0 0
12 25 2
12 25 2
12 25 2
12 25 2
12 25 2
12 25 2
0 0 0
0 0 0
0 0 0
0 0 0
0 0 0
25 25 25
25 25 25
25 25 25
25 25 25
25 25 25
25 25 25
150 150 150
149 149 149
149 149 149
149 149 149
149 149 149
148 148 148
148 148 148
0 0 0
0 0 0
0 0 0
0 0 0
0 0 0
0 0 0
0 0 0
0 0 0
0 0 0
0 0 0
0 0 0
170 170 170
170 170 170
170 170 170
170 170 170
169 169 169
44 35 4
42 34 4
31 25 3
25 20 2
25 20 2
25 20 2
25 20 2
25 25 25
25 25 25
25 25 25
25 25 25
25 25 25
25 25 25
25 25 25
25 25 25
0 0 0
0 0 0
0 0 0
0 0 0
0 0 0
0 0 0
0 0 0
0 0 0
0 0 0
0 0 0
0 0 0
0 0 0
0 0 0
0 0 0
0 0 0
0 0 0
0 0 0
0 0 0
0 0 0
161 161 161
161 161 161
160 160 160
160 160 160
160 160 160
160 160 160
159 159 159
159 159 159
159 159 159
159 159 159
159 159 159
158 158 158
158 158 158
158 158 158
158 158 158
157 157 157
157 157 157
157 157 157
157 157 157
0 0 0
0 0 0
0 0 0
0 0 0
0 0 0
0 0 0
0 0 0
0 0 0
0 0 0
0 0 0
0 0 0
0 0 0
0 0 0
0 0 0
0 0 0
0 0 0
0 0 0
0 0 0
0 0 0
0 0 0
152 152 152
151 151 151
151 151 151
151 151 151
151 151 151
150 150 150
150 150 150
150 150 150
150 150 150
149 149 149
149 149 149
0 0 0
0 0 0
0 0 0
0 0 0
0 0 0
0 0 0
0 0 0
0 0 0
0 0 0
0 0 0
171 171 171
171 171 171
171 171 171
170 170 170
170 170 170
170 170 170
170 170 170
170 170 170
25 25 25
25 25 25
25 25 25
25 25 25
25 25 25
25 25 25
25 25 25
25 25 25
25 25 25
167 167 167
167 167 167
167 167 167
0 0 0
0 0 0
0 0 0
0 0 0
0 0 0
0 0 0
0 0 0
0 0 0
0 0 0
0 0 0
0 0 0
0 0 0
0 0 0
0 0 0
0 0 0
0 0 0
0 0 0
0 0 0
0 0 0
0 0 0
162 162 162
161 161 161
161 161 161
161 161 161
161 161 161
160 160 160
160 160 160
160 160 160
160 160 160
159 159 159
159 159 159
159 159 159
159 159 159
158 158 158
158 158 158
158 158 158
158 158 158
158 158 158
157 157 157
157 157 157
0 0 0
0 0 0
0 0 0
0 0 0
0 0 0
0 0 0
0 0 0
0 0 0
0 0 0
0 0 0
0 0 0
0 0 0
0 0 0
0 0 0
0 0 0
0 0 0
0 0 0
0 0 0
0 0 0
0 0 0
152 152 152
152 152 152
152 152 152
151 151 151
151 151 151
151 151 151
151 151 151
151 151 151
150 150 150
150 150 150
0 0 0
0 0 0
0 0 0
0 0 0
0 0 0
0 0 0
0 0 0
0 0 0
0 0 0
172 172 172
172 172 172
171 171 171
171 171 171
171 171 171
171 171 171
170 170 170
170 170 170
170 170 170
170 170 170
170 170 170
169 169 169
169 169 169
169 169 169
169 169 169
168 168 168
168 168 168
168 168 168
168 168 168
167 167 167
0 0 0
0 0 0
0 0 0
0 0 0
0 0 0
0 0 0
0 0 0
0 0 0
0 0 0
0 0 0
0 0 0
0 0 0
0 0 0
0 0 0
0 0 0
0 0 0
0 0 0
0 0 0
0 0 0
0 0 0
0 0 0
162 162 162
162 162 162
162 162 162
162 162 162
161 161 161
161 161 161
161 161 161
161 161 161
160 160 160
160 160 160
160 160 160
160 160 160
159 159 159
159 159 159
159 159 159
159 159 159
158 158 158
158 158 158
158 158 158
158 158 158
158 158 158
0 0 0
0 0 0
0 0 0
0 0 0
0 0 0
0 0 0
0 0 0
0 0 0
0 0 0
0 0 0
0 0 0
0 0 0
0 0 0
0 0 0
0 0 0
0 0 0
0 0 0
0 0 0
0 0 0
0 0 0
153 153 153
152 152 152
152 152 152
152 152 152
152 152 152
152 152 152
151 151 151
151 151 151
151 151 151
0 0 0
0 0 0
0 0 0
0 0 0
0 0 0
0 0 0
0 0 0
173 173 173
173 173 173
172 172 172
172 172 172
172 172 172
172 172 172
171 171 171
171 171 171
171 171 171
171 171 171
170 170 170
170 170 170
170 170 170
170 170 170
170 170 170
169 169 169
169 169 169
169 169 169
169 169 169
168 168 168
168 168 168
168 168 168
0 0 0
0 0 0
0 0 0
0 0 0
0 0 0
0 0 0
0 0 0
0 0 0
0 0 0
0 0 0
0 0 0
0 0 0
0 0 0
0 0 0
0 0 0
0 0 0
0 0 0
0 0 0
0 0 0
0 0 0
0 0 0
163 163 163
163 163 163
162 162 162
162 162 162
162 162 162
162 162 162
161 161 161
161 161 161
161 161 161
161 161 161
160 160 160
160 160 160
160 160 160
160 160 160
160 160 160
159 159 159
159 159 159
159 159 159
159 159 159
158 158 158
158 158 158
0 0 0
0 0 0
0 0 0
0 0 0
0 0 0
0 0 0
0 0 0
0 0 0
0 0 0
0 0 0
0 0 0
0 0 0
0 0 0
0 0 0
0 0 0
0 0 0
0 0 0
0 0 0
0 0 0
0 0 0
0 0 0
0 0 0
153 153 153
153 153 153
153 153 153
152 152 152
152 152 152
152 152 152
152 152 152
0 0 0
0 0 0
0 0 0
0 0 0
0 0 0
0 0 0
173 173 173
173 173 173
173 173 173
173 173 173
172 172 172
172 172 172
172 172 172
172 172 172
172 172 172
171 171 171
171 171 171
171 171 171
171 171 171
170 170 170
170 170 170
170 170 170
170 170 170
169 169 169
169 169 169
169 169 169
169 169 169
169 169 169
0 0 0
0 0 0
0 0 0
0 0 0
0 0 0
0 0 0
0 0 0
0 0 0
0 0 0
0 0 0
0 0 0
0 0 0
0 0 0
0 0 0
0 0 0
0 0 0
0 0 0
0 0 0
0 0 0
0 0 0
0 0 0
0 0 0
163 163 163
163 163 163
163 163 163
163 163 163
162 162 162
162 162 162
162 162 162
162 162 162
162 162 162
161 161 161
161 161 161
161 161 161
161 161 161
160 160 160
160 160 160
160 160 160
160 160 160
160 160 160
159 159 159
159 159 159
159 159 159
159 159 159
0 0 0
0 0 0
0 0 0
0 0 0
0 0 0
0 0 0
0 0 0
0 0 0
0 0 0
0 0 0
0 0 0
0 0 0
0 0 0
0 0 0
0 0 0
0 0 0
0 0 0
0 0 0
0 0 0
0 0 0
0 0 0
0 0 0
154 154 154
153 153 153
153 153 153
153 153 153
153 153 153
152 152 152

