P3
100 50
255
0 0 0
0 0 0
0 0 0
0 0 0
0 0 0
0 0 0
0 0 0
0 0 0
0 0 0
0 0 0
0 0 0
0 0 0
0 0 0
0 0 0
0 0 0
0 0 0
0 0 0
0 0 0
0 0 0
0 0 0
0 0 0
0 0 0
0 0 0
0 0 0
0 0 0
0 0 0
0 0 0
0 0 0
0 0 0
0 0 0
0 0 0
0 0 0
0 0 0
0 0 0
0 0 0
0 0 0
0 0 0
0 0 0
0 0 0
0 0 0
0 0 0
0 0 0
0 0 0
0 0 0
0 0 0
0 0 0
0 0 0
0 0 0
0 0 0
0 0 0
0 0 0
0 0 0
0 0 0
0 0 0
0 0 0
0 0 0
0 0 0
0 0 0
0 0 0
0 0 0
0 0 0
0 0 0
0 0 0
0 0 0
0 0 0
0 0 0
0 0 0
0 0 0
0 0 0
0 0 0
0 0 0
0 0 0
0 0 0
0 0 0
0 0 0
0 0 0
0 0 0
0 0 0
0 0 0
0 0 0
0 0 0
0 0 0
0 0 0
0 0 0
0 0 0
0 0 0
0 0 0
0 0 0
0 0 0
0 0 0
0 0 0
0 0 0
0 0 0
0 0 0
0 0 0
0 0 0
0 0 0
0 0 0
0 0 0
0 0 0
0 0 0
0 0 0
0 0 0
0 0 0
0 0 0
0 0 0
0 0 0
0 0 0
0 0 0
0 0 0
0 0 0
0 0 0
0 0 0
0 0 0
0 0 0
0 0 0
0 0 0
0 0 0
0 0 0
0 0 0
0 0 0
0 0 0
0 0 0
0 0 0
0 0 0
0 0 0
0 0 0
0 0 0
0 0 0
0 0 0
0 0 0
0 0 0
0 0 0
0 0 0
0 0 0
0 0 0
0 0 0
0 0 0
0 0 0
0 0 0
0 0 0
0 0 0
0 0 0
0 0 0
0 0 0
0 0 0
0 0 0
0 0 0
0 0 0
0 0 0
0 0 0
0 0 0
0 0 0
0 0 0
0 0 0
0 0 0
0 0 0
0 0 0
0 0 0
0 0 0
0 0 0
0 0 0
0 0 0
0 0 0
0 0 0
0 0 0
0 0 0
0 0 0
0 0 0
0 0 0
0 0 0
0 0 0
0 0 0
0 0 0
0 0 0
0 0 0
0 0 0
0 0 0
0 0 0
0 0 0
0 0 0
0 0 0
0 0 0
0 0 0
0 0 0
0 0 0
0 0 0
0 0 0
0 0 0
0 0 0
0 0 0
0 0 0
0 0 0
0 0 0
0 0 0
0 0 0
0 0 0
0 0 0
0 0 0
0 0 0
0 0 0
0 0 0
0 0 0
0 0 0
0 0 0
0 0 0
0 0 0
0 0 0
0 0 0
0 0 0
0 0 0
0 0 0
0 0 0
0 0 0
0 0 0
0 0 0
0 0 0
0 0 0
0 0 0
0 0 0
0 0 0
0 0 0
0 0 0
0 0 0
0 0 0
0 0 0
0 0 0
0 0 0
0 0 0
0 0 0
0 0 0
0 0 0
0 0 0
0 0 0
0 0 0
0 0 0
0 0 0
0 0 0
0 0 0
0 0 0
0 0 0
0 0 0
0 0 0
0 0 0
0 0 0
0 0 0
0 0 0
0 0 0
0 0 0
0 0 0
0 0 0
0 0 0
0 0 0
0 0 0
0 0 0
0 0 0
0 0 0
0 0 0
0 0 0
0 0 0
0 0 0
0 0 0
0 0 0
0 0 0
0 0 0
0 0 0
0 0 0
0 0 0
0 0 0
0 0 0
0 0 0
0 0 0
0 0 0
0 0 0
0 0 0
0 0 0
0 0 0
0 0 0
0 0 0
0 0 0
0 0 0
0 0 0
0 0 0
0 0 0
0 0 0
0 0 0
0 0 0
0 0 0
0 0 0
0 0 0
0 0 0
0 0 0
0 0 0
0 0 0
0 0 0
0 0 0
0 0 0
0 0 0
0 0 0
0 0 0
0 0 0
0 0 0
0 0 0
0 0 0
0 0 0
0 0 0
0 0 0
0 0 0
0 0 0
0 0 0
0 0 0
0 0 0
0 0 0
0 0 0
0 0 0
0 0 0
0 0 0
0 0 0
0 0 0
0 0 0
0 0 0
0 0 0
0 0 0
0 0 0
0 0 0
0 0 0
0 0 0
0 0 0
0 0 0
0 0 0
0 0 0
0 0 0
0 0 0
0 0 0
0 0 0
0 0 0
0 0 0
0 0 0
0 0 0
0 0 0
0 0 0
0 0 0
0 0 0
0 0 0
0 0 0
0 0 0
0 0 0
0 0 0
0 0 0
0 0 0
0 0 0
0 0 0
0 0 0
0 0 0
0 0 0
0 0 0
0 0 0
0 0 0
0 0 0
0 0 0
0 0 0
0 0 0
0 0 0
0 0 0
0 0 0
0 0 0
0 0 0
0 0 0
0 0 0
0 0 0
0 0 0
0 0 0
0 0 0
0 0 0
0 0 0
0 0 0
0 0 0
0 0 0
0 0 0
0 0 0
0 0 0
0 0 0
0 0 0
0 0 0
0 0 0
0 0 0
0 0 0
0 0 0
0 0 0
0 0 0
0 0 0
0 0 0
0 0 0
0 0 0
0 0 0
0 0 0
0 0 0
0 0 0
0 0 0
0 0 0
0 0 0
0 0 0
0 0 0
0 0 0
0 0 0
0 0 0
0 0 0
0 0 0
0 0 0
0 0 0
0 0 0
0 0 0
0 0 0
0 0 0
0 0 0
0 0 0
0 0 0
0 0 0
0 0 0
0 0 0
0 0 0
0 0 0
0 0 0
0 0 0
0 0 0
0 0 0
0 0 0
0 0 0
0 0 0
0 0 0
0 0 0
0 0 0
0 0 0
0 0 0
0 0 0
0 0 0
0 0 0
0 0 0
0 0 0
0 0 0
0 0 0
0 0 0
0 0 0
0 0 0
0 0 0
0 0 0
0 0 0
0 0 0
0 0 0
0 0 0
0 0 0
0 0 0
0 0 0
0 0 0
0 0 0
0 0 0
0 0 0
0 0 0
0 0 0
0 0 0
0 0 0
0 0 0
0 0 0
0 0 0
0 0 0
0 0 0
0 0 0
0 0 0
0 0 0
0 0 0
0 0 0
0 0 0
0 0 0
0 0 0
0 0 0
0 0 0
0 0 0
0 0 0
0 0 0
0 0 0
0 0 0
0 0 0
0 0 0
0 0 0
0 0 0
0 0 0
0 0 0
0 0 0
0 0 0
0 0 0
0 0 0
0 0 0
0 0 0
0 0 0
0 0 0
0 0 0
0 0 0
0 0 0
0 0 0
0 0 0
0 0 0
0 0 0
0 0 0
0 0 0
0 0 0
0 0 0
0 0 0
0 0 0
0 0 0
0 0 0
0 0 0
0 0 0
0 0 0
0 0 0
0 0 0
0 0 0
0 0 0
0 0 0
0 0 0
0 0 0
0 0 0
0 0 0
0 0 0
0 0 0
0 0 0
0 0 0
0 0 0
0 0 0
0 0 0
0 0 0
0 0 0
0 0 0
0 0 0
0 0 0
0 0 0
0 0 0
0 0 0
0 0 0
0 0 0
0 0 0
0 0 0
0 0 0
0 0 0
0 0 0
0 0 0
0 0 0
0 0 0
0 0 0
0 0 0
0 0 0
0 0 0
0 0 0
0 0 0
0 0 0
0 0 0
0 0 0
0 0 0
0 0 0
0 0 0
0 0 0
0 0 0
0 0 0
0 0 0
0 0 0
0 0 0
0 0 0
0 0 0
0 0 0
0 0 0
0 0 0
0 0 0
0 0 0
0 0 0
0 0 0
0 0 0
0 0 0
0 0 0
0 0 0
0 0 0
0 0 0
0 0 0
0 0 0
0 0 0
0 0 0
0 0 0
0 0 0
0 0 0
0 0 0
0 0 0
0 0 0
0 0 0
0 0 0
0 0 0
0 0 0
0 0 0
0 0 0
0 0 0
0 0 0
0 0 0
0 0 0
0 0 0
0 0 0
0 0 0
0 0 0
0 0 0
0 0 0
0 0 0
0 0 0
0 0 0
0 0 0
0 0 0
0 0 0
0 0 0
0 0 0
0 0 0
0 0 0
0 0 0
0 0 0
0 0 0
0 0 0
0 0 0
0 0 0
0 0 0
0 0 0
0 0 0
0 0 0
0 0 0
0 0 0
0 0 0
0 0 0
0 0 0
0 0 0
0 0 0
0 0 0
0 0 0
0 0 0
0 0 0
0 0 0
0 0 0
0 0 0
0 0 0
0 0 0
0 0 0
0 0 0
0 0 0
0 0 0
0 0 0
0 0 0
0 0 0
0 0 0
0 0 0
0 0 0
0 0 0
0 0 0
0 0 0
0 0 0
0 0 0
0 0 0
0 0 0
0 0 0
0 0 0
0 0 0
0 0 0
0 0 0
0 0 0
0 0 0
0 0 0
0 0 0
0 0 0
0 0 0
0 0 0
0 0 0
0 0 0
0 0 0
0 0 0
0 0 0
0 0 0
0 0 0
0 0 0
0 0 0
0 0 0
0 0 0
0 0 0
0 0 0
0 0 0
0 0 0
0 0 0
0 0 0
0 0 0
0 0 0
0 0 0
0 0 0
0 0 0
0 0 0
0 0 0
0 0 0
0 0 0
0 0 0
0 0 0
0 0 0
0 0 0
0 0 0
0 0 0
0 0 0
0 0 0
0 0 0
0 0 0
0 0 0
0 0 0
0 0 0
0 0 0
0 0 0
0 0 0
0 0 0
0 0 0
0 0 0
0 0 0
0 0 0
0 0 0
0 0 0
0 0 0
0 0 0
0 0 0
0 0 0
0 0 0
0 0 0
0 0 0
0 0 0
0 0 0
0 0 0
0 0 0
0 0 0
0 0 0
0 0 0
0 0 0
0 0 0
0 0 0
0 0 0
0 0 0
0 0 0
0 0 0
0 0 0
0 0 0
0 0 0
0 0 0
0 0 0
0 0 0
0 0 0
0 0 0
0 0 0
0 0 0
0 0 0
0 0 0
0 0 0
0 0 0
0 0 0
0 0 0
0 0 0
0 0 0
0 0 0
0 0 0
0 0 0
0 0 0
0 0 0
0 0 0
0 0 0
0 0 0
0 0 0
0 0 0
0 0 0
0 0 0
0 0 0
0 0 0
0 0 0
0 0 0
0 0 0
0 0 0
0 0 0
0 0 0
0 0 0
0 0 0
0 0 0
0 0 0
0 0 0
0 0 0
0 0 0
0 0 0
0 0 0
0 0 0
0 0 0
0 0 0
0 0 0
0 0 0
0 0 0
0 0 0
0 0 0
0 0 0
0 0 0
0 0 0
0 0 0
0 0 0
0 0 0
0 0 0
0 0 0
0 0 0
0 0 0
0 0 0
0 0 0
0 0 0
0 0 0
0 0 0
0 0 0
0 0 0
0 0 0
0 0 0
0 0 0
0 0 0
0 0 0
0 0 0
0 0 0
0 0 0
0 0 0
0 0 0
0 0 0
0 0 0
0 0 0
0 0 0
0 0 0
0 0 0
0 0 0
0 0 0
0 0 0
0 0 0
0 0 0
0 0 0
0 0 0
0 0 0
0 0 0
0 0 0
0 0 0
144 0 0
140 0 0
0 132 0
0 122 0
0 0 0
0 0 0
0 0 0
0 0 0
0 0 0
0 0 0
0 0 0
0 0 0
0 0 0
0 0 0
0 0 0
0 0 0
0 0 0
0 0 0
0 0 0
0 0 0
0 0 0
0 0 0
0 0 0
0 0 0
0 0 0
0 0 0
0 0 0
0 0 0
0 0 0
0 0 0
0 0 0
0 0 0
0 0 0
0 0 0
0 0 0
0 0 0
0 0 0
0 0 0
0 0 0
0 0 0
0 0 0
0 0 0
0 0 0
0 0 0
0 0 0
0 0 0
0 0 0
0 0 0
0 0 0
0 0 0
0 0 0
0 0 0
0 0 0
0 0 0
0 0 0
0 0 0
0 0 0
0 0 0
0 0 0
0 0 0
0 0 0
0 0 0
0 0 0
0 0 0
0 0 0
0 0 0
0 0 0
0 0 0
0 0 0
0 0 0
0 0 0
0 0 0
0 0 0
0 0 0
0 0 0
0 0 0
0 0 0
0 0 0
0 0 0
0 0 0
0 0 0
0 0 0
0 0 0
0 0 0
0 0 0
0 0 0
0 0 0
0 0 0
0 0 0
0 0 0
0 0 0
0 0 0
0 0 0
0 0 0
0 0 0
0 0 0
172 0 0
173 0 0
0 170 0
0 166 0
0 161 0
155 0 0
148 0 0
0 140 0
0 131 0
121 0 0
108 0 0
91 0 0
0 0 0
0 0 0
0 0 0
0 0 0
0 0 0
0 0 0
0 0 0
0 0 0
0 0 0
0 0 0
0 0 0
0 0 0
0 0 0
0 0 0
0 0 0
0 0 0
0 0 0
0 0 0
0 0 0
0 0 0
0 0 0
0 0 0
0 0 0
0 0 0
0 0 0
0 0 0
0 0 0
0 0 0
0 0 0
0 0 0
0 0 0
0 0 0
0 0 0
0 0 0
0 0 0
0 0 0
0 0 0
0 0 0
0 0 0
0 0 0
0 0 0
0 0 0
0 0 0
0 0 0
0 0 0
0 0 0
0 0 0
0 0 0
0 0 0
0 0 0
0 0 0
0 0 0
0 0 0
0 0 0
0 0 0
0 0 0
0 0 0
0 0 0
0 0 0
0 0 0
0 0 0
0 0 0
0 0 0
0 0 0
0 0 0
0 0 0
0 0 0
0 0 0
0 0 0
0 0 0
0 0 0
0 0 0
0 0 0
0 0 0
0 0 0
0 0 0
0 0 0
0 0 0
0 0 0
0 0 0
0 0 0
0 0 0
0 0 0
0 0 0
0 0 0
0 0 0
0 183 0
0 186 0
0 184 0
182 0 0
178 0 0
0 173 0
0 167 0
161 0 0
154 0 0
147 0 0
0 138 0
0 129 0
119 0 0
107 0 0
94 0 0
0 75 0
0 0 0
0 0 0
0 0 0
0 0 0
0 0 0
0 0 0
0 0 0
0 0 0
0 0 0
0 0 0
0 0 0
0 0 0
0 0 0
0 0 0
0 0 0
0 0 0
0 0 0
0 0 0
0 0 0
0 0 0
0 0 0
0 0 0
0 0 0
0 0 0
0 0 0
0 0 0
0 0 0
0 0 0
0 0 0
0 0 0
0 0 0
0 0 0
0 0 0
0 0 0
0 0 0
0 0 0
0 0 0
0 0 0
0 0 0
0 0 0
0 0 0
0 0 0
0 0 0
0 0 0
0 0 0
0 0 0
0 0 0
0 0 0
0 0 0
0 0 0
0 0 0
0 0 0
0 0 0
0 0 0
0 0 0
0 0 0
0 0 0
0 0 0
0 0 0
0 0 0
0 0 0
0 0 0
0 0 0
0 0 0
0 0 0
0 0 0
0 0 0
0 0 0
0 0 0
0 0 0
0 0 0
0 0 0
0 0 0
0 0 0
0 0 0
0 0 0
0 0 0
0 0 0
0 0 0
0 0 0
0 0 0
0 0 0
0 184 0
192 0 0
193 0 0
0 192 0
0 189 0
185 0 0
181 0 0
176 0 0
0 170 0
0 164 0
157 0 0
150 0 0
142 0 0
0 133 0
0 124 0
114 0 0
102 0 0
89 0 0
0 72 0
0 0 0
0 0 0
0 0 0
0 0 0
0 0 0
0 0 0
0 0 0
0 0 0
0 0 0
0 0 0
0 0 0
0 0 0
0 0 0
0 0 0
0 0 0
0 0 0
0 0 0
0 0 0
0 0 0
0 0 0
0 0 0
0 0 0
0 0 0
0 0 0
0 0 0
0 0 0
0 0 0
0 0 0
0 0 0
0 0 0
0 0 0
0 0 0
0 0 0
0 0 0
0 0 0
0 0 0
0 0 0
0 0 0
0 0 0
0 0 0
0 0 0
0 0 0
0 0 0
0 0 0
0 0 0
0 0 0
0 0 0
0 0 0
0 0 0
0 0 0
0 0 0
0 0 0
0 0 0
0 0 0
0 0 0
0 0 0
0 0 0
0 0 0
0 0 0
0 0 0
0 0 0
0 0 0
0 0 0
0 0 0
0 0 0
0 0 0
0 0 0
0 0 0
0 0 0
0 0 0
0 0 0
0 0 0
0 0 0
0 0 0
0 0 0
0 0 0
0 0 0
0 0 0
0 0 0
0 0 0
191 0 0
0 198 0
0 198 0
197 0 0
195 0 0
0 191 0
0 187 0
182 0 0
177 0 0
171 0 0
0 165 0
0 158 0
151 0 0
143 0 0
135 0 0
0 126 0
0 117 0
106 0 0
95 0 0
81 0 0
0 65 0
0 39 0
0 0 0
0 0 0
0 0 0
0 0 0
0 0 0
0 0 0
0 0 0
0 0 0
0 0 0
0 0 0
0 0 0
0 0 0
0 0 0
0 0 0
0 0 0
0 0 0
0 0 0
0 0 0
0 0 0
0 0 0
0 0 0
0 0 0
0 0 0
0 0 0
0 0 0
0 0 0
0 0 0
0 0 0
0 0 0
0 0 0
0 0 0
0 0 0
0 0 0
0 0 0
0 0 0
0 0 0
0 0 0
0 0 0
0 0 0
0 0 0
0 0 0
0 0 0
0 0 0
0 0 0
0 0 0
0 0 0
0 0 0
0 0 0
0 0 0
0 0 0
0 0 0
0 0 0
0 0 0
0 0 0
0 0 0
0 0 0
0 0 0
0 0 0
0 0 0
0 0 0
0 0 0
0 0 0
0 0 0
0 0 0
0 0 0
0 0 0
0 0 0
0 0 0
0 0 0
0 0 0
0 0 0
0 0 0
0 0 0
0 0 0
0 0 0
0 0 0
0 0 0
194 0 0
201 0 0
0 202 0
0 201 0
199 0 0
195 0 0
192 0 0
0 187 0
0 182 0
177 0 0
171 0 0
165 0 0
0 158 0
0 151 0
144 0 0
136 0 0
127 0 0
0 118 0
0 108 0
97 0 0
85 0 0
71 0 0
0 54 0
0 27 0
0 0 0
0 0 0
0 0 0
0 0 0
0 0 0
0 0 0
0 0 0
0 0 0
0 0 0
0 0 0
0 0 0
0 0 0
0 0 0
0 0 0
0 0 0
0 0 0
0 0 0
0 0 0
0 0 0
0 0 0
0 0 0
0 0 0
0 0 0
0 0 0
0 0 0
0 0 0
0 0 0
0 0 0
0 0 0
0 0 0
0 0 0
0 0 0
0 0 0
0 0 0
0 0 0
0 0 0
0 0 0
0 0 0
0 0 0
0 0 0
0 0 0
0 0 0
0 0 0
0 0 0
0 0 0
0 0 0
0 0 0
0 0 0
0 0 0
0 0 0
0 0 0
0 0 0
0 0 0
0 0 0
0 0 0
0 0 0
0 0 0
0 0 0
0 0 0
0 0 0
0 0 0
0 0 0
0 0 0
0 0 0
0 0 0
0 0 0
0 0 0
0 0 0
0 0 0
0 0 0
0 0 0
0 0 0
0 0 0
0 0 0
0 0 0
0 192 0
0 201 0
204 0 0
203 0 0
0 201 0
0 199 0
195 0 0
191 0 0
187 0 0
0 182 0
0 176 0
170 0 0
164 0 0
158 0 0
0 151 0
0 143 0
136 0 0
127 0 0
118 0 0
0 109 0
0 98 0
87 0 0
74 0 0
60 0 0
0 41 0
0 25 0
0 0 0
0 0 0
0 0 0
0 0 0
0 0 0
0 0 0
0 0 0
0 0 0
0 0 0
0 0 0
0 0 0
0 0 0
0 0 0
0 0 0
0 0 0
0 0 0
0 0 0
0 0 0
0 0 0
0 0 0
0 0 0
0 0 0
0 0 0
0 0 0
0 0 0
0 0 0
0 0 0
0 0 0
0 0 0
0 0 0
0 0 0
0 0 0
0 0 0
0 0 0
0 0 0
0 0 0
0 0 0
0 0 0
0 0 0
0 0 0
0 0 0
0 0 0
0 0 0
0 0 0
0 0 0
0 0 0
0 0 0
0 0 0
0 0 0
0 0 0
0 0 0
0 0 0
0 0 0
0 0 0
0 0 0
0 0 0
0 0 0
0 0 0
0 0 0
0 0 0
0 0 0
0 0 0
0 0 0
0 0 0
0 0 0
0 0 0
0 0 0
0 0 0
0 0 0
0 0 0
0 0 0
0 0 0
0 0 0
0 0 0
0 200 0
0 204 0
204 0 0
203 0 0
201 0 0
0 198 0
0 194 0
190 0 0
185 0 0
0 180 0
0 175 0
0 169 0
163 0 0
156 0 0
149 0 0
0 142 0
0 135 0
126 0 0
118 0 0
108 0 0
0 99 0
0 88 0
76 0 0
62 0 0
46 0 0
0 26 0
0 0 0
0 0 0
0 0 0
0 0 0
0 0 0
0 0 0
0 0 0
0 0 0
0 0 0
0 0 0
0 0 0
0 0 0
0 0 0
0 0 0
0 0 0
0 0 0
0 0 0
0 0 0
0 0 0
0 0 0
0 0 0
0 0 0
0 0 0
0 0 0
0 0 0
0 0 0
0 0 0
0 0 0
0 0 0
0 0 0
0 0 0
0 0 0
0 0 0
0 0 0
0 0 0
0 0 0
0 0 0
0 0 0
0 0 0
0 0 0
0 0 0
0 0 0
0 0 0
0 0 0
0 0 0
27 27 27
27 27 27
27 27 27
27 27 27
27 27 27
27 27 27
27 27 27
27 27 27
27 27 27
27 27 27
27 27 27
27 27 27
27 27 27
27 27 27
27 27 27
27 27 27
27 27 27
27 27 27
27 27 27
27 27 27
27 27 27
27 27 27
27 27 27
27 27 27
27 27 27
27 27 27
27 27 27
27 27 27
196 0 0
202 0 0
0 204 0
0 204 0
202 0 0
199 0 0
0 196 0
0 192 0
0 188 0
183 0 0
178 0 0
0 173 0
0 167 0
0 161 0
154 0 0
148 0 0
140 0 0
0 133 0
0 125 0
116 0 0
107 0 0
98 0 0
0 87 0
0 76 0
63 0 0
49 0 0
31 0 0
0 25 0
27 27 27
27 27 27
27 27 27
27 27 27
27 27 27
27 27 27
27 27 27
27 27 27
27 27 27
27 27 27
27 27 27
27 27 27
27 27 27
27 27 27
27 27 27
27 27 27
27 27 27
27 27 27
27 27 27
27 27 27
27 27 27
27 27 27
27 27 27
27 27 27
27 27 27
27 27 27
27 27 27
27 27 27
27 27 27
27 27 27
27 27 27
27 27 27
27 27 27
27 27 27
27 27 27
27 27 27
27 27 27
27 27 27
27 27 27
27 27 27
27 27 27
27 27 27
27 27 27
27 27 27
42 42 42
42 42 42
42 42 42
42 42 42
42 42 42
43 43 43
43 43 43
43 43 43
43 43 43
43 43 43
43 43 43
43 43 43
43 43 43
43 43 43
43 43 43
43 43 43
43 43 43
43 43 43
43 43 43
43 43 43
43 43 43
43 43 43
44 44 44
44 44 44
44 44 44
44 44 44
44 44 44
181 0 0
0 199 0
202 0 0
203 0 0
0 202 0
0 200 0
197 0 0
194 0 0
0 190 0
0 186 0
0 181 0
176 0 0
170 0 0
0 165 0
0 159 0
0 152 0
145 0 0
138 0 0
131 0 0
0 123 0
0 115 0
106 0 0
96 0 0
86 0 0
0 75 0
0 63 0
49 0 0
33 0 0
25 0 0
44 44 44
44 44 44
44 44 44
44 44 44
44 44 44
44 44 44
44 44 44
43 43 43
43 43 43
43 43 43
43 43 43
43 43 43
43 43 43
43 43 43
43 43 43
43 43 43
43 43 43
43 43 43
43 43 43
43 43 43
43 43 43
43 43 43
43 43 43
43 43 43
43 43 43
42 42 42
42 42 42
42 42 42
42 42 42
42 42 42
42 42 42
42 42 42
42 42 42
42 42 42
42 42 42
42 42 42
42 42 42
42 42 42
41 41 41
41 41 41
41 41 41
41 41 41
41 41 41
41 41 41
57 57 57
57 57 57
57 57 57
57 57 57
58 58 58
58 58 58
58 58 58
58 58 58
58 58 58
58 58 58
58 58 58
58 58 58
58 58 58
58 58 58
59 59 59
59 59 59
59 59 59
59 59 59
59 59 59
59 59 59
59 59 59
59 59 59
59 59 59
59 59 59
59 59 59
59 59 59
59 59 59
191 0 0
0 199 0
201 0 0
201 0 0
0 200 0
0 197 0
0 194 0
191 0 0
194 6 6
15 199 15
1 180 1
0 173 0
167 0 0
162 0 0
0 156 0
0 149 0
0 143 0
136 0 0
128 0 0
120 0 0
0 112 0
0 103 0
94 0 0
84 0 0
73 0 0
0 62 0
0 48 0
33 0 0
25 0 0
25 0 0
58 58 58
58 58 58
58 58 58
58 58 58
58 58 58
58 58 58
58 58 58
58 58 58
58 58 58
58 58 58
58 58 58
57 57 57
57 57 57
57 57 57
57 57 57
57 57 57
57 57 57
57 57 57
57 57 57
57 57 57
56 56 56
56 56 56
56 56 56
56 56 56
56 56 56
56 56 56
56 56 56
56 56 56
55 55 55
55 55 55
55 55 55
55 55 55
55 55 55
55 55 55
55 55 55
54 54 54
54 54 54
54 54 54
54 54 54
54 54 54
54 54 54
54 54 54
54 54 54
71 71 71
72 72 72
72 72 72
72 72 72
72 72 72
72 72 72
72 72 72
72 72 72
72 72 72
72 72 72
72 72 72
73 73 73
73 73 73
73 73 73
73 73 73
73 73 73
73 73 73
73 73 73
73 73 73
73 73 73
73 73 73
73 73 73
73 73 73
73 73 73
73 73 73
73 73 73
73 73 73
192 0 0
0 197 0
0 199 0
198 0 0
197 0 0
0 194 0
0 191 0
189 1 1
231 47 47
236 56 56
3 178 3
0 170 0
0 164 0
159 0 0
153 0 0
0 146 0
0 140 0
0 133 0
125 0 0
117 0 0
109 0 0
0 101 0
0 91 0
82 0 0
71 0 0
60 0 0
0 47 0
0 32 0
25 0 0
25 0 0
71 71 71
71 71 71
71 71 71
71 71 71
71 71 71
71 71 71
71 71 71
71 71 71
70 70 70
70 70 70
70 70 70
70 70 70
70 70 70
70 70 70
69 69 69
69 69 69
69 69 69
69 69 69
69 69 69
69 69 69
68 68 68
68 68 68
68 68 68
68 68 68
68 68 68
68 68 68
67 67 67
67 67 67
67 67 67
67 67 67
67 67 67
66 66 66
66 66 66
66 66 66
66 66 66
66 66 66
66 66 66
65 65 65
65 65 65
65 65 65
65 65 65
65 65 65
64 64 64
85 85 85
85 85 85
85 85 85
85 85 85
85 85 85
85 85 85
85 85 85
85 85 85
85 85 85
85 85 85
85 85 85
86 86 86
86 86 86
86 86 86
86 86 86
86 86 86
86 86 86
86 86 86
86 86 86
86 86 86
86 86 86
86 86 86
86 86 86
86 86 86
86 86 86
86 86 86
0 175 0
191 0 0
195 0 0
0 196 0
0 195 0
193 0 0
191 0 0
0 188 0
1 185 1
199 18 18
188 11 11
172 0 0
0 166 0
0 161 0
155 0 0
149 0 0
143 0 0
0 136 0
0 129 0
0 122 0
114 0 0
106 0 0
97 0 0
0 88 0
0 79 0
68 0 0
57 0 0
44 0 0
0 30 0
0 25 0
25 0 0
83 83 83
83 83 83
82 82 82
82 82 82
82 82 82
82 82 82
82 82 82
81 81 81
81 81 81
81 81 81
81 81 81
81 81 81
80 80 80
80 80 80
80 80 80
80 80 80
80 80 80
79 79 79
79 79 79
79 79 79
79 79 79
79 79 79
78 78 78
78 78 78
78 78 78
78 78 78
78 78 78
77 77 77
77 77 77
77 77 77
77 77 77
76 76 76
76 76 76
76 76 76
76 76 76
75 75 75
75 75 75
75 75 75
75 75 75
75 75 75
74 74 74
74 74 74
74 74 74
96 96 96
97 97 97
97 97 97
97 97 97
97 97 97
97 97 97
97 97 97
97 97 97
97 97 97
97 97 97
97 97 97
97 97 97
97 97 97
97 97 97
97 97 97
97 97 97
97 97 97
97 97 97
97 97 97
97 97 97
97 97 97
97 97 97
97 97 97
97 97 97
97 97 97
97 97 97
0 178 0
0 189 0
192 0 0
0 192 0
0 191 0
190 0 0
187 0 0
184 0 0
0 180 0
0 177 0
172 0 0
167 0 0
162 0 0
0 157 0
0 151 0
145 0 0
139 0 0
132 0 0
0 125 0
0 118 0
0 110 0
102 0 0
94 0 0
85 0 0
0 75 0
0 65 0
54 0 0
41 0 0
28 0 0
0 25 0
0 25 0
25 0 0
92 92 92
92 92 92
92 92 92
92 92 92
91 91 91
91 91 91
91 91 91
91 91 91
90 90 90
90 90 90
90 90 90
90 90 90
90 90 90
89 89 89
89 89 89
89 89 89
89 89 89
88 88 88
88 88 88
88 88 88
88 88 88
87 87 87
87 87 87
87 87 87
87 87 87
86 86 86
86 86 86
86 86 86
86 86 86
85 85 85
85 85 85
85 85 85
85 85 85
84 84 84
84 84 84
84 84 84
84 84 84
83 83 83
83 83 83
83 83 83
82 82 82
82 82 82
107 107 107
107 107 107
107 107 107
107 107 107
107 107 107
107 107 107
107 107 107
107 107 107
107 107 107
107 107 107
107 107 107
107 107 107
107 107 107
107 107 107
107 107 107
107 107 107
107 107 107
107 107 107
107 107 107
107 107 107
107 107 107
107 107 107
107 107 107
107 107 107
107 107 107
106 106 106
176 0 0
0 185 0
188 0 0
188 0 0
0 187 0
0 185 0
183 0 0
180 0 0
176 0 0
0 172 0
0 168 0
163 0 0
158 0 0
153 0 0
0 147 0
0 141 0
135 0 0
128 0 0
121 0 0
0 114 0
0 106 0
0 98 0
90 0 0
81 0 0
71 0 0
0 61 0
0 50 0
38 0 0
25 0 0
25 0 0
0 25 0
0 25 0
101 101 101
100 100 100
100 100 100
100 100 100
100 100 100
99 99 99
99 99 99
99 99 99
99 99 99
98 98 98
98 98 98
98 98 98
98 98 98
97 97 97
97 97 97
97 97 97
96 96 96
96 96 96
96 96 96
96 96 96
95 95 95
95 95 95
95 95 95
95 95 95
94 94 94
94 94 94
94 94 94
93 93 93
93 93 93
93 93 93
93 93 93
92 92 92
92 92 92
92 92 92
91 91 91
91 91 91
91 91 91
91 91 91
90 90 90
90 90 90
90 90 90
90 90 90
116 116 116
116 116 116
116 116 116
116 116 116
116 116 116
116 116 116
116 116 116
116 116 116
116 116 116
116 116 116
116 116 116
116 116 116
116 116 116
116 116 116
116 116 116
116 116 116
116 116 116
116 116 116
116 116 116
115 115 115
115 115 115
115 115 115
115 115 115
115 115 115
115 115 115
115 115 115
172 0 0
0 180 0
0 183 0
184 0 0
183 0 0
0 181 0
0 178 0
175 0 0
172 0 0
168 0 0
0 163 0
0 159 0
153 0 0
148 0 0
143 0 0
0 137 0
0 130 0
124 0 0
117 0 0
110 0 0
0 102 0
0 94 0
0 86 0
77 0 0
67 0 0
57 0 0
0 46 0
0 34 0
25 0 0
25 0 0
25 0 0
0 25 0
108 108 108
107 107 107
107 107 107
107 107 107
107 107 107
106 106 106
106 106 106
106 106 106
106 106 106
105 105 105
105 105 105
105 105 105
104 104 104
104 104 104
104 104 104
104 104 104
103 103 103
103 103 103
103 103 103
102 102 102
102 102 102
102 102 102
102 102 102
101 101 101
101 101 101
101 101 101
100 100 100
100 100 100
100 100 100
99 99 99
99 99 99
99 99 99
99 99 99
98 98 98
98 98 98
98 98 98
97 97 97
97 97 97
97 97 97
97 97 97
96 96 96
96 96 96
124 124 124
124 124 124
124 124 124
124 124 124
124 124 124
124 124 124
124 124 124
124 124 124
124 124 124
124 124 124
124 124 124
124 124 124
124 124 124
123 123 123
123 123 123
123 123 123
123 123 123
123 123 123
123 123 123
123 123 123
123 123 123
122 122 122
122 122 122
122 122 122
122 122 122
122 122 122
167 0 0
175 0 0
0 178 0
0 178 0
178 0 0
176 0 0
0 173 0
0 170 0
167 0 0
163 0 0
0 158 0
0 154 0
0 149 0
143 0 0
138 0 0
132 0 0
0 126 0
0 119 0
112 0 0
105 0 0
97 0 0
0 89 0
0 81 0
0 72 0
62 0 0
52 0 0
41 0 0
0 29 0
0 25 0
25 0 0
25 0 0
25 0 0
114 114 114
114 114 114
113 113 113
113 113 113
113 113 113
113 113 113
112 112 112
112 112 112
112 112 112
111 111 111
111 111 111
111 111 111
110 110 110
110 110 110
110 110 110
110 110 110
109 109 109
109 109 109
109 109 109
108 108 108
108 108 108
108 108 108
107 107 107
107 107 107
107 107 107
106 106 106
106 106 106
106 106 106
106 106 106
105 105 105
105 105 105
105 105 105
104 104 104
104 104 104
104 104 104
103 103 103
103 103 103
103 103 103
103 103 103
102 102 102
102 102 102
102 102 102
131 131 131
131 131 131
131 131 131
131 131 131
131 131 131
131 131 131
131 131 131
131 131 131
131 131 131
130 130 130
130 130 130
130 130 130
130 130 130
130 130 130
130 130 130
130 130 130
129 129 129
129 129 129
129 129 129
129 129 129
129 129 129
129 129 129
128 128 128
128 128 128
128 128 128
128 128 128
0 160 0
169 0 0
172 0 0
0 173 0
172 0 0
170 0 0
168 0 0
0 165 0
0 161 0
157 0 0
153 0 0
0 149 0
0 144 0
0 138 0
133 0 0
127 0 0
121 0 0
0 114 0
0 107 0
0 100 0
92 0 0
84 0 0
0 76 0
0 67 0
0 57 0
47 0 0
36 0 0
25 0 0
0 25 0
0 25 0
25 0 0
25 0 0
119 119 119
119 119 119
119 119 119
118 118 118
118 118 118
118 118 118
118 118 118
117 117 117
117 117 117
117 117 117
116 116 116
116 116 116
116 116 116
115 115 115
115 115 115
115 115 115
114 114 114
114 114 114
114 114 114
114 114 114
113 113 113
113 113 113
113 113 113
112 112 112
112 112 112
112 112 112
111 111 111
111 111 111
111 111 111
110 110 110
110 110 110
110 110 110
109 109 109
109 109 109
109 109 109
109 109 109
108 108 108
108 108 108
108 108 108
107 107 107
107 107 107
107 107 107
137 137 137
137 137 137
137 137 137
137 137 137
137 137 137
137 137 137
137 137 137
136 136 136
136 136 136
136 136 136
136 136 136
136 136 136
136 136 136
135 135 135
135 135 135
135 135 135
135 135 135
135 135 135
135 135 135
134 134 134
134 134 134
134 134 134
134 134 134
133 133 133
133 133 133
133 133 133
0 152 0
0 162 0
166 0 0
0 167 0
0 166 0
164 0 0
162 0 0
0 159 0
0 156 0
0 152 0
148 0 0
143 0 0
0 138 0
0 133 0
0 127 0
121 0 0
115 0 0
109 0 0
0 102 0
0 95 0
0 87 0
79 0 0
70 0 0
0 61 0
0 52 0
0 42 0
30 0 0
25 0 0
25 0 0
0 25 0
0 25 0
0 25 0
124 124 124
124 124 124
123 123 123
123 123 123
123 123 123
123 123 123
122 122 122
122 122 122
122 122 122
121 121 121
121 121 121
121 121 121
120 120 120
120 120 120
120 120 120
119 119 119
119 119 119
77 154 15
79 158 15
77 155 15
74 148 14
68 137 13
60 121 12
46 93 9
116 116 116
116 116 116
116 116 116
116 116 116
115 115 115
115 115 115
115 115 115
114 114 114
114 114 114
114 114 114
113 113 113
113 113 113
113 113 113
112 112 112
112 112 112
112 112 112
111 111 111
111 111 111
142 142 142
142 142 142
142 142 142
142 142 142
142 142 142
142 142 142
141 141 141
141 141 141
141 141 141
141 141 141
141 141 141
141 141 141
140 140 140
140 140 140
140 140 140
140 140 140
140 140 140
139 139 139
139 139 139
139 139 139
139 139 139
138 138 138
138 138 138
138 138 138
138 138 138
138 138 138
140 0 0
0 154 0
159 0 0
160 0 0
0 160 0
0 158 0
156 0 0
153 0 0
0 150 0
0 146 0
0 142 0
137 0 0
132 0 0
0 127 0
0 121 0
0 116 0
109 0 0
103 0 0
96 0 0
0 89 0
0 81 0
0 73 0
65 0 0
56 0 0
0 46 0
0 35 0
0 25 0
25 0 0
25 0 0
25 0 0
0 25 0
0 25 0
128 128 128
128 128 128
128 128 128
127 127 127
127 127 127
127 127 127
126 126 126
126 126 126
126 126 126
125 125 125
125 125 125
125 125 125
124 124 124
124 124 124
124 124 124
86 172 17
90 180 18
91 182 18
89 179 17
87 174 17
83 167 16
79 158 15
72 145 14
65 130 13
55 110 11
39 78 7
120 120 120
120 120 120
119 119 119
119 119 119
119 119 119
118 118 118
118 118 118
118 118 118
117 117 117
117 117 117
117 117 117
116 116 116
116 116 116
116 116 116
115 115 115
115 115 115
147 147 147
147 147 147
146 146 146
146 146 146
146 146 146
146 146 146
146 146 146
145 145 145
145 145 145
145 145 145
145 145 145
145 145 145
144 144 144
144 144 144
144 144 144
144 144 144
144 144 144
143 143 143
143 143 143
143 143 143
143 143 143
142 142 142
142 142 142
142 142 142
142 142 142
141 141 141
141 141 141
145 0 0
0 151 0
152 0 0
152 0 0
0 151 0
0 149 0
147 0 0
143 0 0
0 140 0
0 135 0
0 131 0
126 0 0
121 0 0
0 115 0
0 110 0
0 103 0
97 0 0
90 0 0
83 0 0
0 75 0
0 67 0
0 58 0
49 0 0
39 0 0
29 0 0
0 25 0
0 25 0
25 0 0
25 0 0
25 0 0
132 132 132
132 132 132
131 131 131
131 131 131
131 131 131
131 131 131
130 130 130
130 130 130
130 130 130
129 129 129
129 129 129
129 129 129
128 128 128
128 128 128
75 151 15
91 183 18
95 191 19
97 194 19
96 193 19
95 190 19
92 184 18
88 177 17
84 168 16
78 156 15
71 143 14
63 127 12
53 107 10
39 79 7
123 123 123
123 123 123
123 123 123
122 122 122
122 122 122
122 122 122
121 121 121
121 121 121
121 121 121
120 120 120
120 120 120
120 120 120
119 119 119
119 119 119
119 119 119
150 150 150
150 150 150
150 150 150
150 150 150
150 150 150
150 150 150
149 149 149
149 149 149
149 149 149
149 149 149
148 148 148
148 148 148
148 148 148
148 148 148
148 148 148
147 147 147
147 147 147
147 147 147
147 147 147
146 146 146
146 146 146
146 146 146
146 146 146
145 145 145
145 145 145
145 145 145
144 144 144
134 0 0
0 142 0
0 144 0
145 0 0
144 0 0
0 142 0
0 140 0
136 0 0
133 0 0
0 129 0
0 124 0
0 120 0
114 0 0
109 0 0
103 0 0
0 97 0
0 90 0
83 0 0
76 0 0
68 0 0
0 60 0
0 52 0
0 42 0
32 0 0
25 0 0
25 0 0
0 25 0
0 25 0
0 25 0
25 0 0
135 135 135
135 135 135
135 135 135
134 134 134
134 134 134
134 134 134
133 133 133
133 133 133
133 133 133
132 132 132
132 132 132
132 132 132
131 131 131
131 131 131
92 185 18
98 196 19
100 200 20
100 201 20
99 199 19
97 195 19
94 189 18
91 182 18
86 173 17
81 162 16
75 150 15
67 135 13
59 118 11
48 97 9
33 67 6
126 126 126
126 126 126
125 125 125
125 125 125
125 125 125
125 125 125
124 124 124
124 124 124
124 124 124
123 123 123
123 123 123
123 123 123
122 122 122
122 122 122
154 154 154
153 153 153
153 153 153
153 153 153
153 153 153
153 153 153
152 152 152
152 152 152
152 152 152
152 152 152
152 152 152
151 151 151
151 151 151
151 151 151
151 151 151
150 150 150
150 150 150
150 150 150
150 150 150
149 149 149
149 149 149
149 149 149
148 148 148
148 148 148
148 148 148
148 148 148
147 147 147
0 118 0
131 0 0
0 135 0
0 136 0
136 0 0
134 0 0
0 132 0
0 129 0
126 0 0
122 0 0
0 117 0
0 113 0
0 107 0
102 0 0
96 0 0
90 0 0
0 83 0
0 76 0
69 0 0
61 0 0
53 0 0
0 44 0
0 35 0
0 25 0
25 0 0
25 0 0
25 0 0
0 25 0
0 25 0
0 25 0
138 138 138
138 138 138
138 138 138
137 137 137
137 137 137
137 137 137
136 136 136
136 136 136
136 136 136
135 135 135
135 135 135
135 135 135
134 134 134
89 179 17
97 195 19
100 201 20
102 204 20
101 203 20
100 201 20
98 196 19
95 191 19
91 183 18
87 175 17
82 165 16
76 153 15
69 139 13
62 124 12
52 105 10
40 81 8
23 46 4
129 129 129
128 128 128
128 128 128
128 128 128
127 127 127
127 127 127
127 127 127
126 126 126
126 126 126
126 126 126
126 126 126
125 125 125
125 125 125
156 156 156
156 156 156
156 156 156
156 156 156
156 156 156
155 155 155
155 155 155
155 155 155
155 155 155
154 154 154
154 154 154
154 154 154
154 154 154
153 153 153
153 153 153
153 153 153
153 153 153
152 152 152
152 152 152
152 152 152
152 152 152
151 151 151
151 151 151
151 151 151
151 151 151
150 150 150
150 150 150
150 150 150
118 0 0
125 0 0
0 127 0
0 127 0
126 0 0
124 0 0
0 121 0
0 118 0
114 0 0
110 0 0
0 105 0
0 100 0
0 95 0
89 0 0
83 0 0
76 0 0
0 69 0
0 62 0
0 54 0
45 0 0
36 0 0
0 27 0
0 25 0
0 25 0
25 0 0
25 0 0
25 0 0
0 25 0
141 141 141
141 141 141
140 140 140
140 140 140
140 140 140
139 139 139
25 25 25
25 25 25
25 25 25
25 25 25
25 25 25
25 25 25
25 25 25
78 157 15
93 187 18
99 198 19
101 203 20
102 204 20
101 203 20
100 200 20
98 196 19
95 190 19
91 183 18
87 174 17
82 165 16
76 153 15
70 140 14
63 126 12
54 108 10
43 87 8
29 59 5
12 25 2
131 131 131
131 131 131
130 130 130
130 130 130
130 130 130
129 129 129
129 129 129
129 129 129
129 129 129
128 128 128
128 128 128
128 128 128
159 159 159
159 159 159
158 158 158
158 158 158
158 158 158
158 158 158
157 157 157
157 157 157
157 157 157
157 157 157
156 156 156
156 156 156
156 156 156
156 156 156
155 155 155
155 155 155
155 155 155
155 155 155
154 154 154
154 154 154
154 154 154
154 154 154
153 153 153
153 153 153
153 153 153
152 152 152
152 152 152
152 152 152
0 98 0
112 0 0
116 0 0
0 117 0
0 117 0
115 0 0
113 0 0
0 109 0
0 106 0
102 0 0
97 0 0
92 0 0
0 87 0
0 81 0
75 0 0
68 0 0
61 0 0
0 53 0
0 45 0
0 37 0
28 0 0
25 0 0
25 0 0
0 25 0
0 25 0
0 25 0
25 0 0
25 0 0
25 25 25
25 25 25
25 25 25
25 25 25
25 25 25
25 25 25
25 25 25
25 25 25
25 25 25
25 25 25
25 25 25
25 25 25
25 25 25
84 169 16
94 189 18
98 197 19
100 201 20
101 202 20
100 201 20
105 204 25
100 197 22
94 188 18
90 181 18
86 172 17
81 163 16
76 152 15
69 139 13
62 125 12
54 108 10
44 89 8
32 64 6
14 28 2
133 133 133
133 133 133
133 133 133
132 132 132
132 132 132
132 132 132
132 132 132
131 131 131
131 131 131
131 131 131
130 130 130
130 130 130
161 161 161
161 161 161
161 161 161
160 160 160
160 160 160
160 160 160
160 160 160
159 159 159
159 159 159
159 159 159
159 159 159
158 158 158
158 158 158
158 158 158
157 157 157
157 157 157
157 157 157
157 157 157
157 126 15
149 119 14
132 106 13
110 88 11
78 62 7
155 155 155
155 155 155
154 154 154
154 154 154
154 154 154
154 154 154
0 95 0
103 0 0
106 0 0
0 106 0
0 105 0
103 0 0
100 0 0
0 97 0
0 93 0
88 0 0
83 0 0
78 0 0
0 72 0
0 66 0
59 0 0
52 0 0
45 0 0
0 37 0
0 28 0
0 25 0
25 0 0
25 0 0
25 0 0
0 25 0
0 25 0
0 25 0
25 25 25
25 25 25
25 25 25
25 25 25
25 25 25
25 25 25
25 25 25
25 25 25
25 25 25
25 25 25
25 25 25
25 25 25
25 25 25
25 25 25
85 171 17
93 187 18
97 195 19
99 198 19
99 199 19
98 197 19
128 225 50
103 198 27
92 184 18
88 177 17
84 169 16
79 159 15
74 149 14
68 136 13
61 122 12
53 106 10
44 88 8
32 65 6
16 33 3
136 136 136
135 135 135
135 135 135
135 135 135
134 134 134
134 134 134
134 134 134
133 133 133
133 133 133
133 133 133
133 133 133
132 132 132
163 163 163
163 163 163
162 162 162
162 162 162
162 162 162
162 162 162
161 161 161
161 161 161
161 161 161
161 161 161
160 160 160
160 160 160
160 160 160
160 160 160
159 159 159
159 159 159
187 150 18
185 148 18
175 140 17
160 128 16
143 114 14
122 98 12
98 79 9
69 55 6
25 20 2
156 156 156
156 156 156
156 156 156
155 155 155
155 155 155
0 86 0
92 0 0
94 0 0
0 94 0
0 93 0
90 0 0
87 0 0
0 83 0
0 79 0
74 0 0
69 0 0
63 0 0
0 57 0
0 50 0
0 43 0
35 0 0
27 0 0
0 25 0
0 25 0
0 25 0
25 0 0
25 0 0
25 0 0
25 0 0
25 25 25
25 25 25
25 25 25
25 25 25
25 25 25
25 25 25
25 25 25
25 25 25
25 25 25
25 25 25
25 25 25
25 25 25
25 25 25
25 25 25
25 25 25
83 167 16
91 182 18
94 189 18
96 193 19
96 193 19
96 192 19
94 189 18
92 184 18
89 179 17
86 172 17
82 164 16
77 154 15
72 144 14
66 132 13
59 118 11
51 102 10
42 84 8
31 62 6
16 33 3
138 138 138
137 137 137
137 137 137
137 137 137
136 136 136
136 136 136
136 136 136
136 136 136
135 135 135
135 135 135
135 135 135
134 134 134
164 164 164
164 164 164
164 164 164
164 164 164
163 163 163
163 163 163
163 163 163
163 163 163
162 162 162
162 162 162
162 162 162
162 162 162
161 161 161
161 161 161
161 161 161
199 159 19
198 158 19
189 151 18
176 141 17
161 128 16
143 114 14
123 98 12
101 80 10
75 60 7
43 35 4
25 20 2
158 158 158
157 157 157
157 157 157
157 157 157
156 156 156
0 74 0
80 0 0
81 0 0
0 81 0
0 79 0
76 0 0
72 0 0
0 68 0
0 64 0
0 58 0
53 0 0
46 0 0
0 40 0
0 32 0
0 25 0
25 0 0
25 0 0
25 0 0
0 25 0
0 25 0
0 25 0
25 0 0
25 25 25
25 25 25
25 25 25
25 25 25
25 25 25
25 25 25
25 25 25
25 25 25
25 25 25
25 25 25
25 25 25
25 25 25
25 25 25
25 25 25
25 25 25
25 25 25
80 160 16
87 175 17
91 182 18
93 186 18
93 186 18
92 185 18
91 182 18
89 178 17
86 172 17
82 165 16
78 157 15
74 148 14
69 138 13
63 126 12
56 112 11
48 97 9
39 79 7
28 57 5
14 29 2
12 25 2
139 139 139
139 139 139
139 139 139
138 138 138
138 138 138
138 138 138
137 137 137
137 137 137
137 137 137
137 137 137
136 136 136
166 166 166
166 166 166
165 165 165
165 165 165
165 165 165
165 165 165
164 164 164
164 164 164
164 164 164
164 164 164
163 163 163
163 163 163
163 163 163
162 162 162
200 160 20
203 163 20
197 157 19
186 149 18
172 138 17
157 125 15
139 111 13
119 95 11
97 78 9
73 58 7
44 35 4
25 20 2
159 159 159
159 159 159
158 158 158
158 158 158
158 158 158
158 158 158
0 59 0
65 0 0
66 0 0
0 65 0
0 63 0
60 0 0
56 0 0
0 52 0
0 47 0
0 41 0
35 0 0
28 0 0
25 0 0
0 25 0
0 25 0
0 25 0
25 0 0
25 0 0
25 0 0
0 25 0
25 25 25
25 25 25
25 25 25
25 25 25
25 25 25
25 25 25
25 25 25
25 25 25
25 25 25
25 25 25
25 25 25
25 25 25
25 25 25
25 25 25
25 25 25
25 25 25
25 25 25
74 149 14
82 165 16
86 173 17
88 177 17
89 178 17
88 177 17
87 174 17
85 170 17
82 164 16
78 157 15
74 149 14
70 140 14
65 130 13
59 118 11
52 105 10
44 89 8
35 71 7
24 49 4
12 25 2
12 25 2
141 141 141
141 141 141
140 140 140
140 140 140
140 140 140
139 139 139
139 139 139
139 139 139
139 139 139
138 138 138
138 138 138
167 167 167
167 167 167
167 167 167
166 166 166
166 166 166
166 166 166
166 166 166
165 165 165
165 165 165
165 165 165
164 164 164
164 164 164
164 164 164
164 164 164
203 162 20
200 160 20
191 153 19
193 157 31
166 132 16
150 120 15
132 106 13
112 90 11
91 73 9
67 53 6
39 31 3
25 20 2
25 20 2
160 160 160
160 160 160
159 159 159
159 159 159
159 159 159
159 159 159
0 38 0
0 47 0
49 0 0
0 48 0
0 46 0
43 0 0
38 0 0
33 0 0
0 28 0
0 25 0
25 0 0
25 0 0
25 0 0
0 25 0
0 25 0
0 25 0
0 25 0
25 0 0
25 25 25
25 25 25
25 25 25
25 25 25
25 25 25
25 25 25
25 25 25
25 25 25
25 25 25
25 25 25
25 25 25
25 25 25
25 25 25
25 25 25
25 25 25
25 25 25
25 25 25
25 25 25
66 133 13
76 152 15
81 162 16
83 166 16
83 167 16
83 167 16
82 164 16
80 160 16
77 155 15
74 148 14
70 140 14
65 131 13
60 121 12
54 109 10
47 95 9
40 80 8
31 62 6
20 40 4
12 25 2
143 143 143
142 142 142
142 142 142
142 142 142
142 142 142
141 141 141
141 141 141
141 141 141
140 140 140
140 140 140
140 140 140
140 140 140
168 168 168
168 168 168
168 168 168
167 167 167
167 167 167
167 167 167
167 167 167
166 166 166
166 166 166
166 166 166
166 166 166
165 165 165
165 165 165
188 151 18
197 158 19
192 154 19
183 146 18
174 139 19
157 125 15
141 112 14
123 98 12
103 83 10
82 65 8
58 46 5
31 25 3
25 20 2
25 20 2
161 161 161
161 161 161
160 160 160
160 160 160
160 160 160
160 160 160
159 159 159
159 159 159
0 25 0
27 0 0
27 0 0
0 25 0
0 25 0
25 0 0
25 0 0
0 25 0
0 25 0
0 25 0
25 0 0
25 0 0
25 0 0
25 0 0
25 25 25
25 25 25
25 25 25
25 25 25
25 25 25
25 25 25
25 25 25
25 25 25
25 25 25
25 25 25
25 25 25
25 25 25
25 25 25
25 25 25
25 25 25
25 25 25
25 25 25
25 25 25
25 25 25
150 150 150
54 109 10
68 136 13
74 148 14
76 153 15
77 155 15
77 155 15
76 153 15
74 149 14
72 144 14
68 137 13
65 130 13
60 121 12
55 110 11
49 98 9
42 85 8
34 69 6
25 50 5
13 27 2
12 25 2
25 25 25
25 25 25
144 144 144
143 143 143
143 143 143
143 143 143
142 142 142
142 142 142
142 142 142
142 142 142
141 141 141
141 141 141
169 169 169
169 169 169
169 169 169
168 168 168
168 168 168
168 168 168
168 168 168
167 167 167
167 167 167
167 167 167
167 167 167
166 166 166
166 166 166
184 147 18
188 150 18
182 146 18
172 138 17
160 128 16
146 117 14
130 104 13
112 90 11
93 74 9
71 57 7
47 38 4
25 20 2
25 20 2
25 20 2
162 162 162
162 162 162
162 162 162
161 161 161
161 161 161
161 161 161
160 160 160
160 160 160
160 160 160
160 160 160
25 25 25
25 0 0
25 0 0
0 25 0
0 25 0
25 0 0
25 0 0
25 0 0
0 25 0
25 25 25
25 25 25
25 25 25
25 25 25
25 25 25
25 25 25
25 25 25
25 25 25
25 25 25
25 25 25
25 25 25
25 25 25
25 25 25
25 25 25
25 25 25
25 25 25
25 25 25
152 152 152
152 152 152
152 152 152
151 151 151
151 151 151
151 151 151
151 151 151
57 115 11
65 131 13
69 138 13
70 141 14
70 141 14
70 140 14
68 136 13
65 131 13
62 125 12
58 117 11
54 108 10
49 98 9
43 86 8
36 72 7
27 55 5
18 36 3
12 25 2
12 25 2
25 25 25
25 25 25
25 25 25
25 25 25
25 25 25
25 25 25
25 25 25
144 144 144
143 143 143
143 143 143
143 143 143
142 142 142
170 170 170
170 170 170
169 169 169
169 169 169
169 169 169
169 169 169
168 168 168
168 168 168
168 168 168
168 168 168
167 167 167
167 167 167
167 167 167
171 137 17
175 140 17
170 136 17
160 128 16
148 118 14
133 107 13
117 94 11
99 79 9
80 64 8
58 46 5
34 27 3
25 20 2
25 20 2
25 20 2
163 163 163
163 163 163
162 162 162
162 162 162
162 162 162
162 162 162
161 161 161
161 161 161
161 161 161
161 161 161
160 160 160
25 25 25
25 25 25
25 25 25
25 25 25
25 25 25
25 25 25
25 25 25
25 25 25
25 25 25
25 25 25
25 25 25
25 25 25
25 25 25
25 25 25
25 25 25
25 25 25
25 25 25
25 25 25
25 25 25
25 25 25
155 155 155
154 154 154
154 154 154
154 154 154
154 154 154
153 153 153
153 153 153
153 153 153
153 153 153
152 152 152
152 152 152
152 152 152
39 79 7
54 108 10
59 119 11
62 124 12
62 125 12
62 124 12
61 122 12
58 117 11
55 111 11
51 103 10
47 94 9
41 83 8
35 71 7
28 56 5
19 39 3
12 25 2
12 25 2
25 25 25
25 25 25
25 25 25
25 25 25
25 25 25
25 25 25
25 25 25
25 25 25
25 25 25
25 25 25
144 144 144
144 144 144
144 144 144
171 171 171
170 170 170
170 170 170
170 170 170
170 170 170
169 169 169
169 169 169
169 169 169
169 169 169
168 168 168
168 168 168
168 168 168
168 168 168
153 122 15
160 128 16
155 124 15
145 116 14
133 106 13
119 95 11
103 82 10
85 68 8
65 52 6
43 34 4
25 20 2
25 20 2
25 20 2
25 20 2
164 164 164
164 164 164
163 163 163
163 163 163
163 163 163
163 163 163
25 25 25
162 162 162
162 162 162
161 161 161
161 161 161
161 161 161
161 161 161
160 160 160
160 160 160
160 160 160
160 160 160
159 159 159
159 159 159
159 159 159
159 159 159
158 158 158
158 158 158
158 158 158
158 158 158
157 157 157
157 157 157
157 157 157
156 156 156
156 156 156
156 156 156
156 156 156
155 155 155
155 155 155
155 155 155
155 155 155
154 154 154
154 154 154
154 154 154
154 154 154
153 153 153
153 153 153
153 153 153
152 152 152
37 74 7
47 95 9
51 103 10
53 106 10
53 106 10
52 104 10
50 100 10
47 94 9
43 87 8
38 77 7
33 66 6
26 53 5
19 38 3
12 25 2
12 25 2
12 25 2
25 25 25
25 25 25
25 25 25
25 25 25
25 25 25
25 25 25
25 25 25
25 25 25
25 25 25
25 25 25
146 146 146
145 145 145
145 145 145
171 171 171
171 171 171
171 171 171
171 171 171
170 170 170
170 170 170
170 170 170
170 170 170
169 169 169
169 169 169
169 169 169
169 169 169
168 168 168
168 168 168
140 112 14
137 110 13
128 103 12
117 93 11
102 82 10
86 69 8
68 54 6
48 38 4
26 21 2
25 20 2
25 20 2
25 20 2
25 25 25
25 25 25
25 25 25
25 25 25
25 25 25
25 25 25
25 25 25
25 25 25
25 25 25
25 25 25
25 25 25
162 162 162
162 162 162
162 162 162
161 161 161
161 161 161
161 161 161
160 160 160
160 160 160
160 160 160
160 160 160
159 159 159
159 159 159
159 159 159
159 159 159
158 158 158
158 158 158
158 158 158
158 158 158
157 157 157
157 157 157
157 157 157
157 157 157
156 156 156
156 156 156
156 156 156
156 156 156
155 155 155
155 155 155
155 155 155
155 155 155
154 154 154
154 154 154
154 154 154
153 153 153
153 153 153
27 55 5
37 75 7
41 82 8
42 84 8
41 83 8
39 79 7
37 74 7
33 67 6
28 57 5
23 46 4
15 31 3
12 25 2
12 25 2
12 25 2
25 25 25
25 25 25
25 25 25
25 25 25
25 25 25
25 25 25
25 25 25
25 25 25
25 25 25
25 25 25
25 25 25
147 147 147
146 146 146
146 146 146
172 172 172
172 172 172
172 172 172
171 171 171
171 171 171
171 171 171
171 171 171
170 170 170
170 170 170
170 170 170
170 170 170
169 169 169
169 169 169
169 169 169
114 91 11
115 92 11
108 87 10
97 78 9
83 67 8
67 54 6
49 39 4
29 23 2
25 20 2
25 20 2
25 20 2
25 20 2
25 25 25
25 25 25
25 25 25
25 25 25
25 25 25
25 25 25
25 25 25
25 25 25
25 25 25
25 25 25
163 163 163
163 163 163
163 163 163
162 162 162
162 162 162
162 162 162
162 162 162
161 161 161
161 161 161
161 161 161
161 161 161
160 160 160
160 160 160
160 160 160
159 159 159
159 159 159
159 159 159
159 159 159
158 158 158
158 158 158
158 158 158
158 158 158
157 157 157
157 157 157
157 157 157
157 157 157
156 156 156
156 156 156
156 156 156
156 156 156
155 155 155
155 155 155
155 155 155
155 155 155
154 154 154
154 154 154
154 154 154
154 154 154
23 46 4
27 54 5
27 55 5
26 53 5
24 49 4
20 41 4
15 31 3
12 25 2
12 25 2
12 25 2
25 25 25
25 25 25
25 25 25
25 25 25
25 25 25
25 25 25
25 25 25
25 25 25
25 25 25
25 25 25
25 25 25
148 148 148
148 148 148
148 148 148
147 147 147
147 147 147
173 173 173
172 172 172
172 172 172
172 172 172
172 172 172
171 171 171
171 171 171
171 171 171
171 171 171
170 170 170
170 170 170
170 170 170
170 170 170
169 169 169
169 169 169
86 69 8
83 67 8
74 59 7
61 48 6
45 36 4
26 21 2
25 20 2
25 20 2
25 20 2
25 20 2
25 25 25
25 25 25
25 25 25
25 25 25
25 25 25
25 25 25
25 25 25
25 25 25
25 25 25
164 164 164
164 164 164
164 164 164
163 163 163
163 163 163
163 163 163
163 163 163
162 162 162
162 162 162
162 162 162
162 162 162
161 161 161
161 161 161
161 161 161
161 161 161
160 160 160
160 160 160
160 160 160
160 160 160
159 159 159
159 159 159
159 159 159
159 159 159
158 158 158
158 158 158
158 158 158
158 158 158
157 157 157
157 157 157
157 157 157
157 157 157
157 157 157
156 156 156
156 156 156
156 156 156
156 156 156
155 155 155
155 155 155
155 155 155
155 155 155
154 154 154
25 25 25
12 25 2
12 25 2
12 25 2
12 25 2
12 25 2
12 25 2
25 25 25
25 25 25
25 25 25
25 25 25
25 25 25
25 25 25
25 25 25
25 25 25
25 25 25
25 25 25
25 25 25
150 150 150
149 149 149
149 149 149
149 149 149
149 149 149
148 148 148
148 148 148
173 173 173
173 173 173
173 173 173
172 172 172
172 172 172
172 172 172
172 172 172
171 171 171
171 171 171
171 171 171
171 171 171
170 170 170
170 170 170
170 170 170
170 170 170
169 169 169
44 35 4
42 34 4
31 25 3
25 20 2
25 20 2
25 20 2
25 20 2
25 25 25
25 25 25
25 25 25
25 25 25
25 25 25
25 25 25
25 25 25
25 25 25
166 166 166
165 165 165
165 165 165
165 165 165
165 165 165
164 164 164
164 164 164
164 164 164
164 164 164
163 163 163
163 163 163
163 163 163
163 163 163
162 162 162
162 162 162
162 162 162
162 162 162
161 161 161
161 161 161
161 161 161
161 161 161
160 160 160
160 160 160
160 160 160
160 160 160
159 159 159
159 159 159
159 159 159
159 159 159
159 159 159
158 158 158
158 158 158
158 158 158
158 158 158
157 157 157
157 157 157
157 157 157
157 157 157
156 156 156
156 156 156
156 156 156
156 156 156
155 155 155
155 155 155
155 155 155
155 155 155
154 154 154
25 25 25
25 25 25
25 25 25
25 25 25
25 25 25
25 25 25
25 25 25
25 25 25
25 25 25
25 25 25
152 152 152
152 152 152
151 151 151
151 151 151
151 151 151
151 151 151
150 150 150
150 150 150
150 150 150
150 150 150
149 149 149
149 149 149
174 174 174
173 173 173
173 173 173
173 173 173
173 173 173
172 172 172
172 172 172
172 172 172
172 172 172
171 171 171
171 171 171
171 171 171
171 171 171
170 170 170
170 170 170
170 170 170
170 170 170
170 170 170
25 25 25
25 25 25
25 25 25
25 25 25
25 25 25
25 25 25
25 25 25
25 25 25
25 25 25
167 167 167
167 167 167
167 167 167
166 166 166
166 166 166
166 166 166
166 166 166
165 165 165
165 165 165
165 165 165
165 165 165
164 164 164
164 164 164
164 164 164
164 164 164
164 164 164
163 163 163
163 163 163
163 163 163
163 163 163
162 162 162
162 162 162
162 162 162
162 162 162
161 161 161
161 161 161
161 161 161
161 161 161
160 160 160
160 160 160
160 160 160
160 160 160
159 159 159
159 159 159
159 159 159
159 159 159
158 158 158
158 158 158
158 158 158
158 158 158
158 158 158
157 157 157
157 157 157
157 157 157
157 157 157
156 156 156
156 156 156
156 156 156
156 156 156
155 155 155
155 155 155
155 155 155
155 155 155
154 154 154
154 154 154
154 154 154
154 154 154
154 154 154
153 153 153
153 153 153
153 153 153
153 153 153
152 152 152
152 152 152
152 152 152
152 152 152
151 151 151
151 151 151
151 151 151
151 151 151
151 151 151
150 150 150
150 150 150
174 174 174
174 174 174
173 173 173
173 173 173
173 173 173
173 173 173
173 173 173
172 172 172
172 172 172
172 172 172
172 172 172
171 171 171
171 171 171
171 171 171
171 171 171
170 170 170
170 170 170
170 170 170
170 170 170
170 170 170
169 169 169
169 169 169
169 169 169
169 169 169
168 168 168
168 168 168
168 168 168
168 168 168
167 167 167
167 167 167
167 167 167
167 167 167
166 166 166
166 166 166
166 166 166
166 166 166
166 166 166
165 165 165
165 165 165
165 165 165
165 165 165
164 164 164
164 164 164
164 164 164
164 164 164
163 163 163
163 163 163
163 163 163
163 163 163
162 162 162
162 162 162
162 162 162
162 162 162
162 162 162
161 161 161
161 161 161
161 161 161
161 161 161
160 160 160
160 160 160
160 160 160
160 160 160
159 159 159
159 159 159
159 159 159
159 159 159
158 158 158
158 158 158
158 158 158
158 158 158
158 158 158
157 157 157
157 157 157
157 157 157
157 157 157
156 156 156
156 156 156
156 156 156
156 156 156
155 155 155
155 155 155
155 155 155
155 155 155
155 155 155
154 154 154
154 154 154
154 154 154
154 154 154
153 153 153
153 153 153
153 153 153
153 153 153
152 152 152
152 152 152
152 152 152
152 152 152
152 152 152
151 151 151
151 151 151
151 151 151
174 174 174
174 174 174
174 174 174
174 174 174
173 173 173
173 173 173
173 173 173
173 173 173
173 173 173
172 172 172
172 172 172
172 172 172
172 172 172
171 171 171
171 171 171
171 171 171
171 171 171
170 170 170
170 170 170
170 170 170
170 170 170
170 170 170
169 169 169
169 169 169
169 169 169
169 169 169
168 168 168
168 168 168
168 168 168
168 168 168
167 167 167
167 167 167
167 167 167
167 167 167
167 167 167
166 166 166
166 166 166
166 166 166
166 166 166
165 165 165
165 165 165
165 165 165
165 165 165
164 164 164
164 164 164
164 164 164
164 164 164
163 163 163
163 163 163
163 163 163
163 163 163
163 163 163
162 162 162
162 162 162
162 162 162
162 162 162
161 161 161
161 161 161
161 161 161
161 161 161
160 160 160
160 160 160
160 160 160
160 160 160
160 160 160
159 159 159
159 159 159
159 159 159
159 159 159
158 158 158
158 158 158
158 158 158
158 158 158
158 158 158
157 157 157
157 157 157
157 157 157
157 157 157
156 156 156
156 156 156
156 156 156
156 156 156
155 155 155
155 155 155
155 155 155
155 155 155
155 155 155
154 154 154
154 154 154
154 154 154
154 154 154
153 153 153
153 153 153
153 153 153
153 153 153
153 153 153
152 152 152
152 152 152
152 152 152
152 152 152
175 175 175
174 174 174
174 174 174
174 174 174
174 174 174
174 174 174
173 173 173
173 173 173
173 173 173
173 173 173
172 172 172
172 172 172
172 172 172
172 172 172
172 172 172
171 171 171
171 171 171
171 171 171
171 171 171
170 170 170
170 170 170
170 170 170
170 170 170
169 169 169
169 169 169
169 169 169
169 169 169
169 169 169
168 168 168
168 168 168
168 168 168
168 168 168
167 167 167
167 167 167
167 167 167
167 167 167
167 167 167
166 166 166
166 166 166
166 166 166
166 166 166
165 165 165
165 165 165
165 165 165
165 165 165
164 164 164
164 164 164
164 164 164
164 164 164
164 164 164
163 163 163
163 163 163
163 163 163
163 163 163
162 162 162
162 162 162
162 162 162
162 162 162
162 162 162
161 161 161
161 161 161
161 161 161
161 161 161
160 160 160
160 160 160
160 160 160
160 160 160
160 160 160
159 159 159
159 159 159
159 159 159
159 159 159
158 158 158
158 158 158
158 158 158
158 158 158
157 157 157
157 157 157
157 157 157
157 157 157
157 157 157
156 156 156
156 156 156
156 156 156
156 156 156
155 155 155
155 155 155
155 155 155
155 155 155
155 155 155
154 154 154
154 154 154
154 154 154
154 154 154
154 154 154
153 153 153
153 153 153
153 153 153
153 153 153
152 152 152

