P3
100 50
255
25 23 23
25 23 23
79 71 71
79 71 71
79 71 71
78 71 71
78 70 70
78 70 70
25 23 23
25 23 23
77 70 70
77 69 69
77 69 69
25 23 23
25 23 23
76 69 69
25 23 23
76 68 68
25 23 23
25 23 23
25 23 23
25 23 23
25 23 23
75 67 67
74 67 67
25 23 23
25 23 23
74 66 66
25 23 23
25 23 23
25 23 23
25 23 23
25 23 23
72 65 65
25 23 23
72 64 64
25 23 23
71 64 64
25 23 23
25 23 23
25 23 23
25 23 23
25 23 23
25 23 23
25 23 23
69 62 62
25 23 23
68 61 61
25 23 23
25 23 23
25 23 23
25 23 23
237 214 214
25 23 23
238 214 214
25 23 23
25 23 23
25 23 23
25 23 23
25 23 23
239 215 215
239 215 215
239 215 215
25 23 23
239 215 215
25 23 23
239 215 215
25 23 23
25 23 23
25 23 23
25 23 23
25 23 23
239 215 215
239 215 215
25 23 23
239 215 215
239 215 215
25 23 23
25 23 23
25 23 23
25 23 23
25 23 23
239 215 215
25 23 23
238 214 214
25 23 23
25 23 23
238 214 214
238 214 214
238 214 214
25 23 23
25 23 23
238 214 214
238 214 214
238 214 214
238 214 214
237 214 214
237 214 214
25 23 23
25 23 23
25 23 23
79 71 71
79 71 71
79 71 71
79 71 71
25 23 23
78 70 70
25 23 23
25 23 23
25 23 23
25 23 23
77 69 69
25 23 23
25 23 23
25 23 23
25 23 23
76 68 68
25 23 23
76 68 68
25 23 23
25 23 23
75 67 67
25 23 23
25 23 23
25 23 23
25 23 23
25 23 23
74 66 66
25 23 23
25 23 23
25 23 23
25 23 23
25 23 23
25 23 23
25 23 23
25 23 23
25 23 23
71 64 64
25 23 23
25 23 23
25 23 23
25 23 23
70 63 63
69 62 62
25 23 23
69 62 62
25 23 23
68 61 61
68 61 61
25 23 23
25 23 23
237 213 213
237 213 213
25 23 23
237 214 214
25 23 23
238 214 214
238 214 214
25 23 23
25 23 23
25 23 23
25 23 23
238 214 214
238 214 214
25 23 23
25 23 23
25 23 23
25 23 23
25 23 23
25 23 23
25 23 23
25 23 23
239 215 215
25 23 23
25 23 23
25 23 23
25 23 23
25 23 23
238 214 214
25 23 23
25 23 23
238 214 214
25 23 23
238 214 214
25 23 23
25 23 23
25 23 23
25 23 23
238 214 214
25 23 23
25 23 23
25 23 23
25 23 23
237 214 214
25 23 23
237 213 213
25 23 23
25 23 23
237 213 213
25 23 23
25 23 23
25 23 23
25 23 23
79 71 71
25 23 23
25 23 23
78 70 70
25 23 23
25 23 23
25 23 23
25 23 23
25 23 23
77 69 69
25 23 23
25 23 23
25 23 23
25 23 23
76 68 68
76 68 68
25 23 23
75 68 68
25 23 23
25 23 23
74 67 67
74 67 67
74 66 66
25 23 23
73 66 66
73 66 66
25 23 23
73 65 65
72 65 65
25 23 23
72 65 65
25 23 23
25 23 23
71 64 64
71 64 64
25 23 23
25 23 23
25 23 23
25 23 23
69 62 62
69 62 62
25 23 23
25 23 23
25 23 23
25 23 23
68 61 61
25 23 23
25 23 23
236 213 213
25 23 23
25 23 23
25 23 23
25 23 23
237 213 213
237 214 214
25 23 23
25 23 23
25 23 23
25 23 23
25 23 23
238 214 214
25 23 23
238 214 214
238 214 214
25 23 23
238 214 214
238 214 214
25 23 23
238 214 214
238 214 214
238 214 214
238 214 214
238 214 214
238 214 214
25 23 23
25 23 23
238 214 214
25 23 23
25 23 23
238 214 214
25 23 23
25 23 23
25 23 23
25 23 23
237 214 214
25 23 23
237 214 214
25 23 23
25 23 23
25 23 23
237 213 213
25 23 23
25 23 23
237 213 213
237 213 213
25 23 23
25 23 23
79 71 71
79 71 71
25 23 23
79 71 71
25 23 23
25 23 23
25 23 23
25 23 23
25 23 23
25 23 23
25 23 23
77 69 69
25 23 23
25 23 23
25 23 23
25 23 23
25 23 23
25 23 23
25 23 23
25 23 23
25 23 23
25 23 23
25 23 23
74 67 67
25 23 23
25 23 23
74 66 66
25 23 23
73 66 66
25 23 23
25 23 23
72 65 65
25 23 23
25 23 23
25 23 23
25 23 23
25 23 23
25 23 23
25 23 23
25 23 23
25 23 23
70 63 63
25 23 23
25 23 23
25 23 23
68 62 62
68 61 61
25 23 23
68 61 61
25 23 23
25 23 23
236 212 212
25 23 23
236 213 213
237 213 213
25 23 23
25 23 23
25 23 23
237 213 213
25 23 23
237 214 214
25 23 23
25 23 23
25 23 23
25 23 23
25 23 23
238 214 214
25 23 23
238 214 214
25 23 23
25 23 23
238 214 214
25 23 23
238 214 214
25 23 23
25 23 23
238 214 214
25 23 23
25 23 23
25 23 23
25 23 23
25 23 23
25 23 23
25 23 23
25 23 23
25 23 23
25 23 23
25 23 23
237 213 213
25 23 23
25 23 23
25 23 23
25 23 23
25 23 23
25 23 23
25 23 23
25 23 23
25 23 23
25 23 23
236 213 213
79 71 71
25 23 23
25 23 23
78 71 71
78 70 70
25 23 23
25 23 23
25 23 23
25 23 23
25 23 23
25 23 23
25 23 23
77 69 69
25 23 23
25 23 23
25 23 23
25 23 23
76 68 68
25 23 23
25 23 23
25 23 23
25 23 23
25 23 23
74 67 67
25 23 23
25 23 23
73 66 66
25 23 23
25 23 23
25 23 23
72 65 65
72 65 65
25 23 23
72 64 64
25 23 23
71 64 64
25 23 23
71 64 64
25 23 23
70 63 63
70 63 63
25 23 23
25 23 23
25 23 23
25 23 23
25 23 23
68 61 61
25 23 23
25 23 23
25 23 23
25 23 23
25 23 23
25 23 23
25 23 23
25 23 23
25 23 23
25 23 23
25 23 23
25 23 23
237 213 213
237 213 213
25 23 23
237 213 213
25 23 23
237 213 213
25 23 23
237 214 214
25 23 23
25 23 23
237 214 214
25 23 23
25 23 23
25 23 23
25 23 23
25 23 23
25 23 23
237 214 214
25 23 23
25 23 23
25 23 23
25 23 23
25 23 23
237 213 213
25 23 23
25 23 23
25 23 23
25 23 23
237 213 213
25 23 23
25 23 23
25 23 23
25 23 23
25 23 23
25 23 23
25 23 23
236 213 213
236 212 212
25 23 23
25 23 23
236 212 212
25 23 23
79 71 71
25 23 23
25 23 23
78 70 70
25 23 23
25 23 23
25 23 23
25 23 23
25 23 23
77 69 69
25 23 23
25 23 23
25 23 23
25 23 23
25 23 23
76 68 68
25 23 23
25 23 23
25 23 23
25 23 23
25 23 23
25 23 23
25 23 23
25 23 23
25 23 23
25 23 23
25 23 23
25 23 23
25 23 23
72 65 65
72 65 65
25 23 23
25 23 23
71 64 64
25 23 23
25 23 23
25 23 23
25 23 23
25 23 23
70 63 63
25 23 23
25 23 23
25 23 23
69 62 62
68 61 61
68 61 61
25 23 23
25 23 23
67 60 60
235 211 211
25 23 23
235 212 212
25 23 23
236 212 212
236 212 212
25 23 23
25 23 23
25 23 23
236 213 213
25 23 23
25 23 23
25 23 23
25 23 23
25 23 23
237 213 213
25 23 23
25 23 23
237 213 213
237 213 213
25 23 23
25 23 23
25 23 23
25 23 23
25 23 23
25 23 23
25 23 23
25 23 23
25 23 23
25 23 23
25 23 23
25 23 23
25 23 23
237 213 213
25 23 23
25 23 23
25 23 23
25 23 23
25 23 23
236 213 213
25 23 23
25 23 23
25 23 23
25 23 23
25 23 23
236 212 212
25 23 23
25 23 23
25 23 23
25 23 23
25 23 23
25 23 23
25 23 23
25 23 23
25 23 23
78 70 70
78 70 70
25 23 23
25 23 23
25 23 23
77 69 69
25 23 23
25 23 23
25 23 23
25 23 23
25 23 23
25 23 23
25 23 23
25 23 23
25 23 23
25 23 23
74 67 67
74 67 67
74 67 67
25 23 23
73 66 66
25 23 23
25 23 23
25 23 23
25 23 23
25 23 23
25 23 23
72 65 65
25 23 23
25 23 23
25 23 23
25 23 23
70 63 63
70 63 63
25 23 23
25 23 23
25 23 23
69 62 62
69 62 62
25 23 23
25 23 23
25 23 23
25 23 23
25 23 23
25 23 23
25 23 23
25 23 23
25 23 23
25 23 23
25 23 23
25 23 23
236 212 212
236 212 212
25 23 23
25 23 23
25 23 23
236 212 212
25 23 23
25 23 23
25 23 23
25 23 23
25 23 23
237 213 213
25 23 23
25 23 23
25 23 23
25 23 23
25 23 23
237 213 213
25 23 23
237 213 213
237 213 213
237 213 213
237 213 213
25 23 23
25 23 23
25 23 23
25 23 23
25 23 23
25 23 23
25 23 23
25 23 23
25 23 23
25 23 23
236 212 212
25 23 23
25 23 23
25 23 23
236 212 212
236 212 212
25 23 23
25 23 23
25 23 23
25 23 23
25 23 23
25 23 23
25 23 23
25 23 23
25 23 23
78 70 70
25 23 23
25 23 23
25 23 23
25 23 23
77 69 69
25 23 23
25 23 23
25 23 23
76 68 68
25 23 23
25 23 23
25 23 23
25 23 23
75 67 67
25 23 23
25 23 23
25 23 23
25 23 23
25 23 23
25 23 23
25 23 23
73 66 66
25 23 23
25 23 23
25 23 23
72 65 65
72 65 65
72 64 64
25 23 23
25 23 23
71 64 64
71 63 63
25 23 23
25 23 23
25 23 23
70 63 63
69 62 62
69 62 62
25 23 23
25 23 23
25 23 23
25 23 23
68 61 61
25 23 23
25 23 23
25 23 23
25 23 23
234 211 211
25 23 23
25 23 23
25 23 23
25 23 23
235 212 212
25 23 23
25 23 23
25 23 23
25 23 23
25 23 23
236 212 212
236 212 212
25 23 23
25 23 23
236 212 212
25 23 23
25 23 23
25 23 23
25 23 23
25 23 23
236 213 213
25 23 23
236 213 213
25 23 23
25 23 23
25 23 23
25 23 23
25 23 23
236 212 212
236 212 212
25 23 23
25 23 23
25 23 23
236 212 212
25 23 23
25 23 23
25 23 23
236 212 212
25 23 23
25 23 23
25 23 23
25 23 23
235 212 212
25 23 23
25 23 23
25 23 23
235 211 211
25 23 23
78 70 70
25 23 23
25 23 23
78 70 70
25 23 23
25 23 23
25 23 23
77 69 69
77 69 69
25 23 23
76 69 69
76 68 68
25 23 23
25 23 23
25 23 23
25 23 23
25 23 23
25 23 23
25 23 23
25 23 23
74 67 67
25 23 23
25 23 23
25 23 23
25 23 23
73 66 66
25 23 23
73 65 65
25 23 23
25 23 23
72 65 65
25 23 23
25 23 23
71 64 64
71 64 64
25 23 23
70 63 63
25 23 23
25 23 23
2 25 12
2 25 12
13 132 66
12 122 61
25 23 23
25 23 23
68 61 61
25 23 23
25 23 23
67 60 60
233 210 210
25 23 23
25 23 23
234 211 211
25 23 23
25 23 23
25 23 23
25 23 23
25 23 23
235 212 212
25 23 23
25 23 23
235 212 212
25 23 23
236 212 212
236 212 212
25 23 23
25 23 23
236 212 212
25 23 23
25 23 23
236 212 212
25 23 23
236 212 212
25 23 23
25 23 23
25 23 23
25 23 23
236 212 212
25 23 23
25 23 23
25 23 23
25 23 23
25 23 23
25 23 23
25 23 23
25 23 23
235 212 212
235 212 212
25 23 23
235 212 212
235 212 212
25 23 23
25 23 23
25 23 23
235 211 211
25 23 23
25 23 23
25 23 23
235 211 211
25 23 23
25 23 23
25 23 23
25 23 23
78 70 70
25 23 23
25 23 23
25 23 23
77 69 69
25 23 23
25 23 23
25 23 23
25 23 23
76 68 68
76 68 68
25 23 23
25 23 23
25 23 23
75 67 67
25 23 23
25 23 23
25 23 23
25 23 23
25 23 23
25 23 23
25 23 23
25 23 23
25 23 23
25 23 23
25 23 23
25 23 23
25 23 23
25 23 23
25 23 23
25 23 23
25 23 23
2 25 12
2 25 12
2 25 12
2 25 12
16 161 80
15 155 77
2 25 12
14 140 70
13 131 65
2 25 12
2 25 12
2 25 12
67 60 60
25 23 23
25 23 23
233 210 210
25 23 23
234 210 210
234 210 210
25 23 23
25 23 23
25 23 23
235 211 211
25 23 23
25 23 23
235 211 211
235 211 211
25 23 23
25 23 23
25 23 23
25 23 23
25 23 23
25 23 23
25 23 23
25 23 23
25 23 23
25 23 23
25 23 23
25 23 23
25 23 23
25 23 23
25 23 23
25 23 23
25 23 23
25 23 23
235 212 212
25 23 23
25 23 23
25 23 23
235 212 212
235 212 212
25 23 23
25 23 23
25 23 23
25 23 23
235 211 211
25 23 23
25 23 23
25 23 23
235 211 211
25 23 23
25 23 23
25 23 23
25 23 23
78 70 70
78 70 70
25 23 23
78 70 70
25 23 23
25 23 23
77 69 69
25 23 23
25 23 23
77 69 69
25 23 23
25 23 23
25 23 23
76 68 68
25 23 23
25 23 23
25 23 23
25 23 23
75 67 67
25 23 23
25 23 23
25 23 23
25 23 23
25 23 23
25 23 23
25 23 23
25 23 23
25 23 23
25 23 23
72 65 65
25 23 23
25 23 23
25 23 23
25 23 23
2 25 12
18 186 93
18 184 92
18 182 91
17 178 89
2 25 12
2 25 12
2 25 12
15 154 77
2 25 12
13 138 69
12 129 64
2 25 12
10 107 53
9 94 47
7 75 37
25 23 23
25 23 23
233 210 210
25 23 23
25 23 23
25 23 23
25 23 23
25 23 23
25 23 23
234 211 211
25 23 23
234 211 211
25 23 23
25 23 23
25 23 23
25 23 23
25 23 23
25 23 23
25 23 23
25 23 23
235 211 211
25 23 23
25 23 23
25 23 23
25 23 23
25 23 23
25 23 23
25 23 23
25 23 23
25 23 23
25 23 23
25 23 23
25 23 23
25 23 23
25 23 23
25 23 23
235 211 211
25 23 23
25 23 23
25 23 23
235 211 211
25 23 23
25 23 23
234 211 211
25 23 23
25 23 23
234 211 211
25 23 23
234 211 211
25 23 23
25 23 23
78 70 70
25 23 23
25 23 23
25 23 23
25 23 23
25 23 23
77 69 69
25 23 23
76 69 69
25 23 23
76 68 68
76 68 68
25 23 23
25 23 23
25 23 23
25 23 23
75 67 67
75 67 67
25 23 23
25 23 23
74 66 66
25 23 23
25 23 23
25 23 23
25 23 23
25 23 23
25 23 23
72 65 65
25 23 23
25 23 23
25 23 23
18 184 92
2 25 12
2 25 12
19 192 96
2 25 12
2 25 12
2 25 12
17 176 88
2 25 12
16 164 82
2 25 12
15 150 75
2 25 12
2 25 12
12 124 62
2 25 12
10 102 51
8 89 44
2 25 12
232 209 209
25 23 23
25 23 23
25 23 23
25 23 23
25 23 23
25 23 23
25 23 23
25 23 23
25 23 23
25 23 23
234 211 211
234 211 211
25 23 23
25 23 23
25 23 23
234 211 211
25 23 23
25 23 23
25 23 23
235 211 211
25 23 23
25 23 23
25 23 23
25 23 23
25 23 23
25 23 23
235 211 211
25 23 23
25 23 23
235 211 211
235 211 211
25 23 23
25 23 23
25 23 23
25 23 23
234 211 211
25 23 23
25 23 23
234 211 211
25 23 23
234 211 211
25 23 23
25 23 23
25 23 23
25 23 23
25 23 23
234 210 210
25 23 23
25 23 23
25 23 23
25 23 23
25 23 23
25 23 23
77 69 69
77 69 69
25 23 23
76 69 69
25 23 23
76 68 68
76 68 68
25 23 23
75 68 68
25 23 23
75 67 67
25 23 23
75 67 67
74 67 67
25 23 23
74 67 67
25 23 23
74 66 66
73 66 66
25 23 23
25 23 23
25 23 23
25 23 23
25 23 23
25 23 23
25 23 23
19 191 95
19 198 99
2 25 12
19 197 98
19 195 97
19 191 95
18 187 93
18 182 91
17 177 88
2 25 12
2 25 12
2 25 12
15 151 75
2 25 12
2 25 12
2 25 12
11 117 58
2 25 12
2 25 12
2 25 12
6 65 32
2 25 12
232 209 209
25 23 23
25 23 23
25 23 23
233 210 210
25 23 23
233 210 210
25 23 23
234 210 210
25 23 23
234 210 210
25 23 23
25 23 23
234 211 211
234 211 211
234 211 211
25 23 23
25 23 23
25 23 23
25 23 23
25 23 23
25 23 23
25 23 23
234 211 211
234 211 211
25 23 23
234 211 211
25 23 23
234 211 211
234 211 211
25 23 23
234 211 211
25 23 23
234 211 211
25 23 23
234 211 211
234 210 210
234 210 210
234 210 210
25 23 23
234 210 210
234 210 210
25 23 23
25 23 23
233 210 210
25 23 23
25 23 23
25 23 23
25 23 23
25 23 23
25 23 23
77 69 69
25 23 23
25 23 23
25 23 23
25 23 23
25 23 23
76 68 68
76 68 68
76 68 68
25 23 23
25 23 23
25 23 23
25 23 23
25 23 23
25 23 23
25 23 23
25 23 23
25 23 23
25 23 23
25 23 23
73 66 66
73 65 65
25 23 23
25 23 23
25 23 23
72 65 65
2 25 12
2 25 12
20 202 101
20 201 100
2 25 12
2 25 12
19 192 96
18 187 93
2 25 12
2 25 12
17 171 85
2 25 12
2 25 12
2 25 12
2 25 12
2 25 12
12 127 63
11 118 59
2 25 12
2 25 12
2 25 12
7 71 35
5 54 27
2 27 13
25 23 23
25 23 23
25 23 23
233 209 209
25 23 23
25 23 23
25 23 23
25 23 23
25 23 23
25 23 23
25 23 23
25 23 23
234 210 210
25 23 23
25 23 23
25 23 23
234 210 210
25 23 23
25 23 23
234 210 210
234 210 210
234 210 210
234 210 210
25 23 23
25 23 23
25 23 23
25 23 23
25 23 23
234 210 210
25 23 23
25 23 23
25 23 23
25 23 23
234 210 210
234 210 210
234 210 210
25 23 23
25 23 23
25 23 23
25 23 23
25 23 23
233 210 210
25 23 23
25 23 23
25 23 23
25 23 23
25 23 23
78 70 70
77 70 70
77 69 69
25 23 23
77 69 69
77 69 69
25 23 23
25 23 23
76 68 68
76 68 68
76 68 68
75 68 68
25 23 23
25 23 23
25 23 23
75 67 67
25 23 23
74 67 67
25 23 23
74 66 66
73 66 66
73 66 66
73 66 66
73 65 65
25 23 23
72 65 65
25 23 23
72 65 65
19 192 96
20 201 100
2 25 12
20 203 101
2 25 12
19 199 99
19 195 97
19 191 95
2 25 12
2 25 12
17 176 88
17 170 85
2 25 12
15 158 79
15 151 75
2 25 12
2 25 12
2 25 12
11 118 59
2 25 12
2 25 12
2 25 12
7 74 37
6 60 30
4 41 20
2 25 12
25 23 23
25 23 23
25 23 23
25 23 23
232 209 209
25 23 23
25 23 23
233 209 209
25 23 23
25 23 23
25 23 23
25 23 23
25 23 23
233 210 210
233 210 210
25 23 23
233 210 210
25 23 23
233 210 210
25 23 23
233 210 210
233 210 210
233 210 210
233 210 210
233 210 210
25 23 23
233 210 210
25 23 23
233 210 210
25 23 23
25 23 23
25 23 23
233 210 210
233 210 210
25 23 23
233 210 210
25 23 23
25 23 23
233 210 210
233 210 210
25 23 23
233 210 210
233 209 209
233 209 209
25 23 23
78 70 70
25 23 23
77 69 69
77 69 69
25 23 23
25 23 23
25 23 23
76 69 69
25 23 23
25 23 23
25 23 23
25 23 23
75 68 68
25 23 23
75 67 67
25 23 23
25 23 23
25 23 23
25 23 23
25 23 23
25 23 23
25 23 23
73 66 66
25 23 23
25 23 23
25 23 23
25 23 23
25 23 23
25 23 23
20 200 100
2 25 12
2 25 12
20 203 101
2 25 12
2 25 12
19 194 97
2 25 12
18 185 92
2 25 12
2 25 12
16 169 84
2 25 12
2 25 12
2 25 12
2 25 12
2 25 12
2 25 12
2 25 12
2 25 12
2 25 12
2 25 12
7 76 38
2 25 12
4 46 23
2 25 12
231 208 208
231 208 208
25 23 23
232 209 209
25 23 23
25 23 23
25 23 23
25 23 23
232 209 209
25 23 23
233 209 209
25 23 23
25 23 23
25 23 23
25 23 23
25 23 23
25 23 23
25 23 23
25 23 23
25 23 23
25 23 23
25 23 23
233 210 210
25 23 23
25 23 23
25 23 23
25 23 23
25 23 23
25 23 23
25 23 23
233 210 210
25 23 23
233 210 210
25 23 23
25 23 23
25 23 23
25 23 23
233 209 209
25 23 23
25 23 23
25 23 23
25 23 23
25 23 23
25 23 23
232 209 209
77 70 70
77 70 70
25 23 23
25 23 23
25 23 23
77 69 69
25 23 23
25 23 23
76 68 68
25 23 23
25 23 23
25 23 23
25 23 23
25 23 23
25 23 23
25 23 23
25 23 23
25 23 23
25 23 23
25 23 23
25 23 23
25 23 23
25 23 23
25 23 23
73 65 65
25 23 23
72 65 65
25 23 23
19 196 98
20 202 101
20 204 102
20 204 102
2 25 12
2 25 12
2 25 12
19 192 96
2 25 12
2 25 12
17 178 89
17 173 86
16 167 83
2 25 12
2 25 12
2 25 12
14 140 70
2 25 12
2 25 12
2 25 12
10 107 53
2 25 12
2 25 12
2 25 12
6 63 31
2 25 12
2 25 12
2 25 12
231 208 208
25 23 23
231 208 208
25 23 23
25 23 23
25 23 23
25 23 23
25 23 23
25 23 23
25 23 23
232 209 209
25 23 23
25 23 23
25 23 23
25 23 23
25 23 23
25 23 23
233 209 209
25 23 23
233 209 209
25 23 23
25 23 23
25 23 23
25 23 23
25 23 23
233 209 209
233 209 209
25 23 23
25 23 23
25 23 23
25 23 23
25 23 23
25 23 23
25 23 23
25 23 23
232 209 209
25 23 23
25 23 23
232 209 209
25 23 23
25 23 23
232 209 209
25 23 23
232 209 209
25 23 23
77 69 69
25 23 23
25 23 23
77 69 69
25 23 23
76 69 69
25 23 23
25 23 23
76 68 68
75 68 68
25 23 23
75 68 68
75 67 67
25 23 23
25 23 23
25 23 23
25 23 23
74 66 66
25 23 23
73 66 66
25 23 23
25 23 23
25 23 23
72 65 65
25 23 23
25 23 23
2 25 12
19 199 99
2 25 12
20 203 101
2 25 12
2 25 12
2 25 12
2 25 12
2 25 12
18 186 93
2 25 12
2 25 12
17 170 85
16 165 82
2 25 12
15 152 76
2 25 12
2 25 12
13 131 65
2 25 12
11 115 57
2 25 12
9 96 48
8 86 43
2 25 12
6 63 31
2 25 12
2 25 12
2 25 12
230 207 207
231 208 208
25 23 23
25 23 23
25 23 23
25 23 23
25 23 23
25 23 23
25 23 23
232 209 209
25 23 23
25 23 23
25 23 23
232 209 209
25 23 23
25 23 23
232 209 209
25 23 23
25 23 23
25 23 23
25 23 23
25 23 23
25 23 23
232 209 209
25 23 23
232 209 209
25 23 23
25 23 23
25 23 23
25 23 23
232 209 209
232 209 209
25 23 23
232 209 209
232 209 209
25 23 23
25 23 23
232 209 209
25 23 23
232 209 209
25 23 23
25 23 23
232 208 208
25 23 23
77 69 69
25 23 23
25 23 23
77 69 69
76 69 69
25 23 23
25 23 23
76 68 68
25 23 23
25 23 23
25 23 23
75 68 68
75 67 67
25 23 23
75 67 67
25 23 23
74 67 67
25 23 23
25 23 23
25 23 23
25 23 23
25 23 23
25 23 23
25 23 23
25 23 23
25 23 23
72 65 65
19 191 95
19 199 99
20 201 100
2 25 12
20 200 100
19 197 98
2 25 12
19 191 95
2 25 12
2 25 12
2 25 12
2 25 12
16 167 83
16 162 81
2 25 12
14 149 74
2 25 12
13 136 68
2 25 12
12 120 60
2 25 12
2 25 12
9 94 47
8 84 42
2 25 12
2 25 12
4 48 24
3 33 16
2 25 12
2 25 12
25 23 23
25 23 23
25 23 23
25 23 23
231 208 208
25 23 23
25 23 23
25 23 23
25 23 23
25 23 23
231 208 208
25 23 23
25 23 23
25 23 23
25 23 23
25 23 23
25 23 23
25 23 23
25 23 23
25 23 23
25 23 23
25 23 23
25 23 23
25 23 23
25 23 23
25 23 23
232 209 209
25 23 23
232 209 209
25 23 23
25 23 23
232 209 209
25 23 23
25 23 23
25 23 23
232 208 208
25 23 23
25 23 23
232 208 208
231 208 208
25 23 23
25 23 23
25 23 23
77 69 69
25 23 23
25 23 23
25 23 23
76 69 69
25 23 23
25 23 23
25 23 23
76 68 68
25 23 23
25 23 23
25 23 23
25 23 23
25 23 23
74 67 67
25 23 23
25 23 23
25 23 23
25 23 23
73 66 66
25 23 23
25 23 23
25 23 23
25 23 23
72 65 65
25 23 23
25 23 23
2 25 12
19 197 98
19 199 99
19 198 99
2 25 12
2 25 12
2 25 12
2 25 12
2 25 12
2 25 12
2 25 12
2 25 12
2 25 12
2 25 12
15 153 76
14 146 73
14 140 70
13 133 66
2 25 12
2 25 12
2 25 12
2 25 12
2 25 12
2 25 12
2 25 12
2 25 12
2 25 12
2 25 12
2 25 12
2 25 12
230 207 207
25 23 23
25 23 23
25 23 23
25 23 23
25 23 23
231 208 208
231 208 208
25 23 23
231 208 208
25 23 23
25 23 23
25 23 23
231 208 208
25 23 23
25 23 23
25 23 23
25 23 23
231 208 208
25 23 23
25 23 23
25 23 23
25 23 23
232 208 208
25 23 23
25 23 23
25 23 23
25 23 23
231 208 208
25 23 23
231 208 208
25 23 23
25 23 23
25 23 23
231 208 208
25 23 23
25 23 23
25 23 23
231 208 208
231 208 208
25 23 23
25 23 23
231 208 208
77 69 69
25 23 23
25 23 23
76 69 69
76 69 69
76 68 68
76 68 68
25 23 23
75 68 68
25 23 23
25 23 23
25 23 23
75 67 67
25 23 23
25 23 23
25 23 23
25 23 23
25 23 23
25 23 23
25 23 23
25 23 23
73 65 65
25 23 23
25 23 23
25 23 23
72 65 65
17 175 87
2 25 12
2 25 12
2 25 12
19 195 97
2 25 12
2 25 12
2 25 12
2 25 12
36 199 108
29 188 100
2 25 12
2 25 12
2 25 12
15 155 77
2 25 12
2 25 12
13 136 68
2 25 12
2 25 12
2 25 12
2 25 12
2 25 12
8 88 44
7 79 39
6 68 34
2 25 12
2 25 12
3 30 15
2 25 12
2 25 12
25 23 23
25 23 23
230 207 207
25 23 23
230 207 207
25 23 23
230 207 207
25 23 23
25 23 23
25 23 23
25 23 23
25 23 23
25 23 23
25 23 23
25 23 23
231 208 208
25 23 23
231 208 208
25 23 23
25 23 23
25 23 23
231 208 208
25 23 23
25 23 23
25 23 23
25 23 23
25 23 23
25 23 23
25 23 23
25 23 23
25 23 23
25 23 23
25 23 23
25 23 23
231 208 208
25 23 23
231 208 208
231 208 208
231 208 208
231 208 208
25 23 23
231 208 208
231 208 208
77 69 69
25 23 23
25 23 23
76 69 69
76 68 68
25 23 23
25 23 23
76 68 68
75 68 68
25 23 23
25 23 23
75 67 67
75 67 67
25 23 23
25 23 23
25 23 23
25 23 23
25 23 23
25 23 23
25 23 23
25 23 23
25 23 23
25 23 23
25 23 23
72 65 65
25 23 23
2 25 12
18 189 94
2 25 12
2 25 12
2 25 12
19 190 95
18 187 93
18 184 92
18 180 90
2 25 12
2 25 12
2 25 12
16 162 81
2 25 12
15 151 75
14 145 72
2 25 12
2 25 12
12 125 62
11 118 59
2 25 12
2 25 12
9 94 47
2 25 12
2 25 12
6 65 32
2 25 12
4 41 20
2 25 12
2 25 12
2 25 12
2 25 12
229 206 206
25 23 23
25 23 23
25 23 23
25 23 23
25 23 23
25 23 23
25 23 23
25 23 23
25 23 23
25 23 23
25 23 23
230 207 207
25 23 23
25 23 23
231 207 207
25 23 23
231 207 207
25 23 23
25 23 23
25 23 23
25 23 23
25 23 23
231 208 208
231 208 208
25 23 23
25 23 23
25 23 23
25 23 23
231 208 208
231 208 208
25 23 23
231 207 207
231 207 207
231 207 207
25 23 23
25 23 23
230 207 207
230 207 207
25 23 23
25 23 23
25 23 23
77 69 69
25 23 23
25 23 23
76 69 69
76 68 68
25 23 23
25 23 23
25 23 23
75 68 68
75 67 67
25 23 23
75 67 67
74 67 67
74 67 67
25 23 23
25 23 23
25 23 23
73 66 66
73 66 66
73 66 66
73 65 65
25 23 23
25 23 23
25 23 23
72 65 65
25 23 23
17 176 88
18 185 92
18 188 94
18 188 94
2 25 12
2 25 12
2 25 12
2 25 12
2 25 12
2 25 12
16 168 84
2 25 12
15 158 79
2 25 12
14 147 73
2 25 12
2 25 12
2 25 12
2 25 12
2 25 12
10 106 53
2 25 12
9 90 45
2 25 12
7 71 35
2 25 12
5 50 25
3 38 19
2 25 12
2 25 12
2 25 12
2 25 12
25 23 23
25 23 23
229 206 206
229 206 206
229 206 206
229 206 206
229 206 206
229 206 206
25 23 23
25 23 23
25 23 23
230 207 207
25 23 23
25 23 23
25 23 23
25 23 23
25 23 23
230 207 207
25 23 23
25 23 23
25 23 23
230 207 207
230 207 207
230 207 207
230 207 207
25 23 23
25 23 23
25 23 23
230 207 207
230 207 207
230 207 207
25 23 23
230 207 207
230 207 207
25 23 23
25 23 23
25 23 23
230 207 207
230 207 207
25 23 23
25 23 23
230 207 207
25 23 23
76 69 69
76 69 69
25 23 23
25 23 23
25 23 23
75 68 68
25 23 23
25 23 23
25 23 23
75 67 67
75 67 67
25 23 23
25 23 23
25 23 23
74 66 66
25 23 23
73 66 66
25 23 23
25 23 23
25 23 23
25 23 23
25 23 23
25 23 23
25 23 23
25 23 23
2 25 12
2 25 12
18 183 91
18 184 92
18 183 91
18 181 90
2 25 12
17 175 87
2 25 12
2 25 12
16 163 81
15 159 79
2 25 12
2 25 12
2 25 12
13 137 68
2 25 12
12 124 62
2 25 12
2 25 12
10 102 51
2 25 12
8 86 43
2 25 12
2 25 12
5 57 28
4 46 23
2 25 12
2 25 12
2 25 12
2 25 12
2 25 12
25 23 23
25 23 23
25 23 23
25 23 23
229 206 206
25 23 23
25 23 23
229 206 206
25 23 23
229 206 206
25 23 23
25 23 23
229 206 206
25 23 23
25 23 23
230 207 207
25 23 23
25 23 23
25 23 23
25 23 23
25 23 23
25 23 23
25 23 23
25 23 23
25 23 23
25 23 23
230 207 207
25 23 23
25 23 23
25 23 23
230 207 207
230 207 207
25 23 23
25 23 23
25 23 23
230 207 207
25 23 23
25 23 23
25 23 23
230 207 207
230 207 207
25 23 23
76 69 69
25 23 23
76 68 68
76 68 68
25 23 23
76 68 68
25 23 23
25 23 23
25 23 23
25 23 23
25 23 23
25 23 23
25 23 23
74 67 67
25 23 23
25 23 23
25 23 23
25 23 23
25 23 23
25 23 23
25 23 23
72 65 65
72 65 65
25 23 23
25 23 23
25 23 23
2 25 12
17 175 87
2 25 12
2 25 12
2 25 12
17 176 88
2 25 12
2 25 12
16 167 83
2 25 12
15 158 79
2 25 12
2 25 12
2 25 12
13 138 69
2 25 12
12 126 63
11 119 59
11 112 56
2 25 12
9 97 48
2 25 12
2 25 12
2 25 12
6 62 31
2 25 12
4 41 20
2 25 12
2 25 12
2 25 12
2 25 12
2 25 12
25 23 23
25 23 23
25 23 23
25 23 23
25 23 23
25 23 23
25 23 23
25 23 23
229 206 206
25 23 23
229 206 206
25 23 23
229 206 206
229 206 206
25 23 23
25 23 23
25 23 23
25 23 23
229 206 206
229 206 206
229 206 206
25 23 23
25 23 23
25 23 23
25 23 23
25 23 23
25 23 23
25 23 23
230 207 207
25 23 23
25 23 23
25 23 23
25 23 23
25 23 23
25 23 23
25 23 23
229 206 206
25 23 23
229 206 206
229 206 206
25 23 23
25 23 23
76 69 69
25 23 23
25 23 23
25 23 23
25 23 23
25 23 23
25 23 23
75 67 67
25 23 23
25 23 23
25 23 23
25 23 23
25 23 23
74 66 66
25 23 23
25 23 23
25 23 23
25 23 23
25 23 23
25 23 23
72 65 65
25 23 23
72 65 65
72 65 65
72 64 64
25 23 23
2 25 12
16 169 84
2 25 12
2 25 12
2 25 12
2 25 12
2 25 12
16 165 82
16 161 80
15 157 78
15 153 76
2 25 12
2 25 12
2 25 12
13 133 66
2 25 12
12 121 60
11 114 57
2 25 12
10 100 50
2 25 12
8 84 42
2 25 12
6 67 33
2 25 12
2 25 12
3 36 18
2 25 12
2 25 12
2 25 12
2 25 12
2 25 12
25 23 23
25 23 23
25 23 23
227 205 205
25 23 23
25 23 23
228 205 205
25 23 23
25 23 23
25 23 23
25 23 23
25 23 23
25 23 23
25 23 23
25 23 23
25 23 23
25 23 23
229 206 206
229 206 206
229 206 206
25 23 23
229 206 206
25 23 23
25 23 23
229 206 206
25 23 23
25 23 23
25 23 23
229 206 206
25 23 23
25 23 23
25 23 23
25 23 23
25 23 23
229 206 206
25 23 23
25 23 23
25 23 23
25 23 23
25 23 23
25 23 23
25 23 23
76 69 69
25 23 23
76 68 68
25 23 23
25 23 23
75 68 68
75 68 68
25 23 23
25 23 23
25 23 23
74 67 67
74 67 67
25 23 23
25 23 23
25 23 23
25 23 23
25 23 23
25 23 23
73 65 65
72 65 65
25 23 23
25 23 23
72 65 65
25 23 23
25 23 23
25 23 23
15 152 76
16 162 81
2 25 12
16 167 83
2 25 12
16 164 82
16 162 81
2 25 12
15 156 78
2 25 12
14 148 74
2 25 12
2 25 12
2 25 12
2 25 12
12 121 60
2 25 12
2 25 12
2 25 12
9 95 47
2 25 12
7 79 39
2 25 12
2 25 12
2 25 12
4 42 21
3 30 15
2 25 12
2 25 12
2 25 12
2 25 12
2 25 12
25 23 23
227 204 204
227 204 204
25 23 23
25 23 23
25 23 23
25 23 23
25 23 23
25 23 23
25 23 23
228 205 205
25 23 23
25 23 23
25 23 23
25 23 23
25 23 23
25 23 23
77 154 15
79 158 15
77 155 15
74 148 14
68 137 13
60 121 12
46 93 9
25 23 23
25 23 23
25 23 23
25 23 23
25 23 23
25 23 23
229 206 206
229 206 206
25 23 23
25 23 23
25 23 23
229 206 206
229 206 206
25 23 23
229 206 206
229 206 206
25 23 23
229 206 206
25 23 23
25 23 23
76 68 68
25 23 23
75 68 68
25 23 23
25 23 23
75 67 67
25 23 23
25 23 23
25 23 23
25 23 23
25 23 23
25 23 23
73 66 66
25 23 23
73 66 66
25 23 23
25 23 23
25 23 23
25 23 23
72 65 65
25 23 23
25 23 23
25 23 23
71 64 64
2 25 12
15 154 77
2 25 12
16 160 80
2 25 12
2 25 12
2 25 12
15 153 76
15 150 75
2 25 12
2 25 12
2 25 12
13 132 66
2 25 12
2 25 12
11 116 58
2 25 12
2 25 12
2 25 12
2 25 12
2 25 12
2 25 12
6 65 32
2 25 12
4 46 23
2 25 12
2 25 12
2 25 12
2 25 12
2 25 12
2 25 12
2 25 12
226 203 203
25 23 23
25 23 23
25 23 23
25 23 23
25 23 23
25 23 23
227 204 204
25 23 23
25 23 23
25 23 23
228 205 205
25 23 23
25 23 23
25 23 23
12 25 2
90 180 18
91 182 18
12 25 2
87 174 17
83 167 16
79 158 15
72 145 14
12 25 2
12 25 2
39 78 7
25 23 23
228 205 205
25 23 23
25 23 23
25 23 23
25 23 23
25 23 23
25 23 23
228 205 205
25 23 23
25 23 23
228 205 205
25 23 23
228 205 205
25 23 23
228 205 205
76 68 68
76 68 68
25 23 23
25 23 23
25 23 23
75 67 67
25 23 23
25 23 23
25 23 23
25 23 23
74 67 67
74 66 66
25 23 23
25 23 23
25 23 23
73 66 66
25 23 23
73 65 65
72 65 65
72 65 65
72 65 65
72 65 65
72 64 64
25 23 23
25 23 23
25 23 23
25 23 23
2 25 12
15 151 75
15 152 76
15 152 76
15 151 75
14 149 74
2 25 12
2 25 12
2 25 12
13 135 67
2 25 12
2 25 12
12 121 60
2 25 12
11 110 55
2 25 12
2 25 12
2 25 12
2 25 12
2 25 12
6 67 33
2 25 12
4 49 24
3 39 19
2 25 12
2 25 12
2 25 12
2 25 12
2 25 12
2 25 12
25 23 23
25 23 23
25 23 23
226 203 203
25 23 23
25 23 23
25 23 23
227 204 204
25 23 23
25 23 23
227 204 204
227 204 204
227 204 204
25 23 23
75 151 15
91 183 18
12 25 2
97 194 19
96 193 19
95 190 19
92 184 18
88 177 17
84 168 16
78 156 15
12 25 2
63 127 12
53 107 10
39 79 7
25 23 23
25 23 23
25 23 23
228 205 205
228 205 205
25 23 23
25 23 23
25 23 23
25 23 23
228 205 205
25 23 23
25 23 23
228 205 205
228 205 205
228 205 205
25 23 23
76 68 68
25 23 23
75 68 68
25 23 23
25 23 23
25 23 23
75 67 67
25 23 23
25 23 23
25 23 23
25 23 23
74 66 66
25 23 23
25 23 23
25 23 23
25 23 23
25 23 23
25 23 23
72 65 65
25 23 23
72 64 64
25 23 23
25 23 23
25 23 23
25 23 23
25 23 23
2 25 12
2 25 12
2 25 12
14 145 72
14 144 72
2 25 12
2 25 12
2 25 12
13 133 66
2 25 12
2 25 12
2 25 12
11 114 57
10 109 54
10 103 51
2 25 12
2 25 12
2 25 12
7 76 38
2 25 12
2 25 12
5 52 26
2 25 12
2 25 12
2 25 12
2 25 12
2 25 12
2 25 12
2 25 12
2 25 12
25 23 23
225 202 202
25 23 23
225 203 203
226 203 203
25 23 23
226 203 203
25 23 23
25 23 23
25 23 23
25 23 23
25 23 23
227 204 204
227 204 204
92 185 18
98 196 19
100 200 20
100 201 20
12 25 2
97 195 19
94 189 18
12 25 2
12 25 2
81 162 16
12 25 2
67 135 13
59 118 11
48 97 9
12 25 2
25 23 23
25 23 23
25 23 23
25 23 23
25 23 23
25 23 23
228 205 205
25 23 23
25 23 23
25 23 23
228 205 205
228 205 205
25 23 23
25 23 23
25 23 23
25 23 23
75 68 68
75 68 68
25 23 23
25 23 23
25 23 23
25 23 23
74 67 67
25 23 23
25 23 23
74 66 66
25 23 23
25 23 23
73 66 66
25 23 23
25 23 23
72 65 65
25 23 23
25 23 23
25 23 23
25 23 23
25 23 23
25 23 23
71 64 64
25 23 23
25 23 23
11 118 59
13 131 65
2 25 12
2 25 12
2 25 12
13 134 67
13 132 66
12 129 64
2 25 12
2 25 12
11 117 58
2 25 12
2 25 12
2 25 12
2 25 12
2 25 12
8 83 41
2 25 12
6 69 34
2 25 12
5 53 26
2 25 12
3 35 17
2 25 12
2 25 12
2 25 12
2 25 12
2 25 12
2 25 12
2 25 12
138 124 124
25 23 23
225 202 202
225 202 202
225 202 202
25 23 23
25 23 23
226 203 203
25 23 23
226 203 203
25 23 23
25 23 23
25 23 23
89 179 17
97 195 19
100 201 20
102 204 20
12 25 2
100 201 20
98 196 19
95 191 19
91 183 18
87 175 17
82 165 16
76 153 15
12 25 2
62 124 12
12 25 2
40 81 8
23 46 4
25 23 23
227 204 204
25 23 23
25 23 23
227 204 204
25 23 23
25 23 23
25 23 23
25 23 23
25 23 23
227 204 204
25 23 23
25 23 23
25 23 23
25 23 23
75 68 68
25 23 23
25 23 23
25 23 23
25 23 23
25 23 23
74 67 67
25 23 23
25 23 23
25 23 23
25 23 23
25 23 23
25 23 23
25 23 23
72 65 65
72 65 65
72 65 65
72 65 65
25 23 23
71 64 64
25 23 23
71 64 64
71 64 64
71 63 63
25 23 23
25 23 23
2 25 12
2 25 12
2 25 12
12 127 63
2 25 12
2 25 12
12 121 60
11 118 59
11 114 57
11 110 55
2 25 12
2 25 12
9 95 47
2 25 12
8 83 41
2 25 12
2 25 12
2 25 12
5 54 27
2 25 12
3 36 18
2 25 12
2 25 12
2 25 12
2 25 12
2 25 12
2 25 12
2 25 12
141 127 127
141 127 127
140 126 126
140 126 126
25 23 23
25 23 23
25 23 23
25 23 23
25 23 23
25 23 23
25 23 23
25 23 23
25 23 23
78 157 15
12 25 2
12 25 2
101 203 20
102 204 20
101 203 20
100 200 20
12 25 2
95 190 19
12 25 2
12 25 2
82 165 16
12 25 2
70 140 14
63 126 12
12 25 2
12 25 2
29 59 5
12 25 2
25 23 23
25 23 23
227 204 204
227 204 204
25 23 23
25 23 23
25 23 23
25 23 23
25 23 23
25 23 23
25 23 23
25 23 23
75 68 68
75 68 68
25 23 23
75 67 67
75 67 67
75 67 67
25 23 23
74 67 67
25 23 23
25 23 23
25 23 23
25 23 23
25 23 23
25 23 23
25 23 23
25 23 23
25 23 23
25 23 23
72 65 65
72 65 65
25 23 23
25 23 23
25 23 23
25 23 23
71 64 64
25 23 23
25 23 23
25 23 23
9 98 49
2 25 12
11 116 58
2 25 12
2 25 12
2 25 12
2 25 12
10 109 54
10 106 53
2 25 12
9 97 48
2 25 12
8 87 43
2 25 12
7 75 37
2 25 12
2 25 12
2 25 12
2 25 12
2 25 12
2 25 12
2 25 12
2 25 12
2 25 12
2 25 12
2 25 12
2 25 12
2 25 12
25 23 23
25 23 23
25 23 23
25 23 23
25 23 23
25 23 23
25 23 23
25 23 23
25 23 23
25 23 23
25 23 23
25 23 23
25 23 23
84 169 16
94 189 18
98 197 19
100 201 20
101 202 20
100 201 20
12 25 2
100 197 22
12 25 2
90 181 18
12 25 2
81 163 16
12 25 2
69 139 13
62 125 12
54 108 10
12 25 2
32 64 6
14 28 2
25 23 23
25 23 23
25 23 23
25 23 23
226 204 204
25 23 23
226 204 204
226 204 204
25 23 23
25 23 23
226 204 204
226 204 204
25 23 23
25 23 23
25 23 23
25 23 23
25 23 23
25 23 23
25 23 23
25 23 23
25 23 23
25 23 23
25 23 23
73 66 66
25 23 23
73 66 66
73 65 65
72 65 65
25 23 23
72 65 65
25 20 2
25 20 2
25 20 2
25 20 2
25 20 2
155 140 140
25 23 23
155 139 139
154 139 139
154 139 139
154 138 138
2 25 12
10 103 51
2 25 12
2 25 12
10 105 52
2 25 12
2 25 12
2 25 12
2 25 12
2 25 12
2 25 12
7 78 39
2 25 12
6 66 33
2 25 12
5 52 26
2 25 12
2 25 12
2 28 14
2 25 12
2 25 12
2 25 12
2 25 12
2 25 12
2 25 12
2 25 12
25 23 23
25 23 23
25 23 23
25 23 23
25 23 23
25 23 23
25 23 23
25 23 23
25 23 23
25 23 23
25 23 23
25 23 23
25 23 23
25 23 23
85 171 17
93 187 18
97 195 19
99 198 19
99 199 19
98 197 19
128 225 50
12 25 2
92 184 18
12 25 2
84 169 16
79 159 15
74 149 14
12 25 2
12 25 2
53 106 10
44 88 8
32 65 6
16 33 3
226 203 203
25 23 23
25 23 23
25 23 23
25 23 23
25 23 23
25 23 23
25 23 23
226 203 203
25 23 23
25 23 23
25 23 23
75 68 68
75 67 67
75 67 67
25 23 23
25 23 23
25 23 23
74 67 67
74 66 66
25 23 23
74 66 66
73 66 66
73 66 66
25 23 23
25 23 23
159 143 143
25 23 23
25 20 2
185 148 18
25 20 2
25 20 2
25 20 2
25 20 2
98 79 9
25 20 2
25 20 2
25 23 23
156 140 140
25 23 23
25 23 23
155 140 140
8 86 43
2 25 12
2 25 12
2 25 12
2 25 12
2 25 12
8 87 43
2 25 12
2 25 12
2 25 12
6 69 34
2 25 12
5 57 28
5 50 25
2 25 12
3 35 17
2 25 12
2 25 12
2 25 12
2 25 12
2 25 12
2 25 12
2 25 12
2 25 12
25 23 23
25 23 23
25 23 23
25 23 23
25 23 23
25 23 23
25 23 23
25 23 23
25 23 23
25 23 23
25 23 23
25 23 23
25 23 23
25 23 23
25 23 23
83 167 16
12 25 2
94 189 18
96 193 19
96 193 19
96 192 19
94 189 18
92 184 18
12 25 2
86 172 17
82 164 16
12 25 2
12 25 2
66 132 13
12 25 2
51 102 10
42 84 8
12 25 2
16 33 3
226 203 203
226 203 203
226 203 203
25 23 23
226 203 203
226 203 203
25 23 23
25 23 23
25 23 23
226 203 203
25 23 23
25 23 23
25 23 23
25 23 23
75 67 67
25 23 23
25 23 23
74 67 67
25 23 23
25 23 23
162 146 146
25 23 23
162 146 146
162 145 145
161 145 145
25 23 23
161 145 145
199 159 19
25 20 2
189 151 18
25 20 2
25 20 2
25 20 2
25 20 2
101 80 10
25 20 2
43 35 4
25 20 2
158 142 142
25 23 23
25 23 23
25 23 23
156 141 141
2 25 12
8 80 40
2 25 12
2 25 12
7 79 39
7 76 38
2 25 12
2 25 12
2 25 12
2 25 12
5 53 26
4 46 23
4 40 20
3 32 16
2 25 12
2 25 12
2 25 12
2 25 12
2 25 12
2 25 12
2 25 12
2 25 12
25 23 23
25 23 23
25 23 23
25 23 23
25 23 23
25 23 23
25 23 23
25 23 23
25 23 23
25 23 23
25 23 23
25 23 23
25 23 23
25 23 23
25 23 23
25 23 23
80 160 16
87 175 17
91 182 18
12 25 2
93 186 18
92 185 18
91 182 18
89 178 17
12 25 2
12 25 2
12 25 2
74 148 14
12 25 2
63 126 12
56 112 11
12 25 2
39 79 7
12 25 2
14 29 2
12 25 2
139 125 125
25 23 23
139 125 125
25 23 23
25 23 23
225 203 203
25 23 23
25 23 23
225 203 203
25 23 23
225 203 203
25 23 23
166 149 149
25 23 23
165 149 149
165 148 148
165 148 148
25 23 23
25 23 23
164 147 147
25 23 23
163 147 147
163 147 147
163 146 146
163 146 146
25 20 2
25 20 2
25 20 2
186 149 18
25 20 2
25 20 2
25 20 2
119 95 11
97 78 9
25 20 2
25 20 2
25 20 2
159 143 143
25 23 23
158 143 143
158 142 142
158 142 142
158 142 142
2 25 12
2 25 12
6 66 33
2 25 12
2 25 12
6 60 30
2 25 12
5 52 26
4 47 23
2 25 12
3 35 17
2 28 14
2 25 12
2 25 12
2 25 12
2 25 12
2 25 12
2 25 12
2 25 12
2 25 12
25 23 23
25 23 23
25 23 23
25 23 23
25 23 23
25 23 23
25 23 23
25 23 23
25 23 23
25 23 23
25 23 23
25 23 23
25 23 23
25 23 23
25 23 23
25 23 23
25 23 23
12 25 2
82 165 16
86 173 17
88 177 17
89 178 17
88 177 17
87 174 17
12 25 2
82 164 16
12 25 2
74 149 14
70 140 14
12 25 2
12 25 2
52 105 10
44 89 8
12 25 2
24 49 4
12 25 2
12 25 2
141 127 127
25 23 23
140 126 126
25 23 23
25 23 23
139 125 125
139 125 125
139 125 125
25 23 23
138 124 124
25 23 23
25 23 23
25 23 23
167 150 150
166 150 150
166 149 149
166 149 149
166 149 149
25 23 23
165 149 149
25 23 23
25 23 23
164 148 148
164 148 148
25 23 23
25 20 2
200 160 20
25 20 2
25 20 2
166 132 16
25 20 2
25 20 2
25 20 2
25 20 2
67 53 6
25 20 2
25 20 2
25 20 2
25 23 23
160 144 144
25 23 23
159 143 143
159 143 143
159 143 143
2 25 12
2 25 12
4 49 24
4 48 24
2 25 12
2 25 12
2 25 12
3 33 16
2 25 12
2 25 12
2 25 12
2 25 12
2 25 12
2 25 12
2 25 12
2 25 12
2 25 12
2 25 12
25 23 23
25 23 23
25 23 23
25 23 23
25 23 23
25 23 23
25 23 23
25 23 23
25 23 23
25 23 23
25 23 23
25 23 23
25 23 23
25 23 23
25 23 23
25 23 23
25 23 23
25 23 23
66 133 13
76 152 15
12 25 2
83 166 16
83 167 16
83 167 16
12 25 2
80 160 16
12 25 2
12 25 2
70 140 14
65 131 13
12 25 2
12 25 2
47 95 9
12 25 2
31 62 6
12 25 2
12 25 2
143 128 128
25 23 23
25 23 23
142 128 128
25 23 23
141 127 127
141 127 127
141 127 127
25 23 23
140 126 126
25 23 23
25 23 23
168 151 151
25 23 23
168 151 151
25 23 23
25 23 23
25 23 23
167 150 150
166 150 150
166 149 149
166 149 149
166 149 149
165 149 149
165 149 149
188 151 18
25 20 2
25 20 2
25 20 2
25 20 2
157 125 15
141 112 14
123 98 12
25 20 2
82 65 8
25 20 2
25 20 2
25 20 2
25 20 2
161 145 145
161 145 145
161 144 144
160 144 144
160 144 144
25 23 23
159 143 143
159 143 143
2 25 12
2 27 13
2 25 12
2 25 12
2 25 12
2 25 12
2 25 12
2 25 12
2 25 12
2 25 12
2 25 12
2 25 12
2 25 12
2 25 12
25 23 23
25 23 23
25 23 23
25 23 23
25 23 23
25 23 23
25 23 23
25 23 23
25 23 23
25 23 23
25 23 23
25 23 23
25 23 23
25 23 23
25 23 23
25 23 23
25 23 23
25 23 23
25 23 23
150 135 135
54 109 10
68 136 13
74 148 14
76 153 15
77 155 15
12 25 2
12 25 2
74 149 14
12 25 2
68 137 13
65 130 13
12 25 2
55 110 11
12 25 2
42 85 8
12 25 2
25 50 5
13 27 2
12 25 2
25 23 23
25 23 23
25 23 23
143 129 129
143 129 129
143 128 128
25 23 23
25 23 23
25 23 23
142 127 127
25 23 23
141 127 127
169 152 152
25 23 23
25 23 23
25 23 23
25 23 23
25 23 23
168 151 151
167 151 151
167 150 150
167 150 150
167 150 150
166 150 150
166 149 149
25 20 2
25 20 2
25 20 2
25 20 2
25 20 2
146 117 14
130 104 13
25 20 2
93 74 9
71 57 7
25 20 2
25 20 2
25 20 2
25 20 2
162 146 146
162 146 146
25 23 23
161 145 145
161 145 145
161 145 145
161 144 144
25 23 23
25 23 23
25 23 23
25 23 23
2 25 12
2 25 12
2 25 12
2 25 12
2 25 12
2 25 12
2 25 12
2 25 12
25 23 23
25 23 23
25 23 23
25 23 23
25 23 23
25 23 23
25 23 23
25 23 23
25 23 23
25 23 23
25 23 23
25 23 23
25 23 23
25 23 23
25 23 23
25 23 23
25 23 23
25 23 23
25 23 23
25 23 23
151 136 136
151 136 136
151 136 136
151 136 136
57 115 11
12 25 2
12 25 2
70 141 14
70 141 14
12 25 2
68 136 13
65 131 13
62 125 12
58 117 11
12 25 2
49 98 9
43 86 8
36 72 7
12 25 2
18 36 3
12 25 2
12 25 2
25 23 23
25 23 23
25 23 23
25 23 23
25 23 23
25 23 23
25 23 23
25 23 23
25 23 23
25 23 23
25 23 23
143 128 128
170 153 153
25 23 23
170 153 153
25 23 23
169 152 152
25 23 23
169 152 152
168 151 151
168 151 151
168 151 151
25 23 23
167 150 150
167 150 150
171 137 17
25 20 2
25 20 2
25 20 2
25 20 2
133 107 13
25 20 2
99 79 9
25 20 2
25 20 2
25 20 2
25 20 2
25 20 2
25 20 2
25 23 23
25 23 23
25 23 23
25 23 23
162 146 146
25 23 23
161 145 145
161 145 145
161 145 145
25 23 23
160 144 144
160 144 144
25 23 23
25 23 23
25 23 23
25 23 23
25 23 23
25 23 23
25 23 23
25 23 23
25 23 23
25 23 23
25 23 23
25 23 23
25 23 23
25 23 23
25 23 23
25 23 23
25 23 23
25 23 23
155 139 139
155 139 139
154 139 139
154 139 139
154 138 138
154 138 138
25 23 23
153 138 138
153 138 138
153 137 137
25 23 23
152 137 137
25 23 23
39 79 7
54 108 10
12 25 2
62 124 12
62 125 12
62 124 12
61 122 12
58 117 11
12 25 2
51 103 10
12 25 2
41 83 8
12 25 2
28 56 5
19 39 3
12 25 2
12 25 2
25 23 23
25 23 23
25 23 23
25 23 23
25 23 23
25 23 23
25 23 23
25 23 23
25 23 23
25 23 23
144 130 130
25 23 23
144 129 129
25 23 23
171 153 153
25 23 23
170 153 153
170 153 153
170 153 153
169 152 152
169 152 152
169 152 152
169 152 152
168 151 151
168 151 151
168 151 151
153 122 15
25 20 2
25 20 2
25 20 2
25 20 2
25 20 2
25 20 2
25 20 2
65 52 6
25 20 2
25 20 2
25 20 2
25 20 2
25 20 2
164 147 147
164 147 147
25 23 23
163 147 147
25 23 23
25 23 23
25 23 23
25 23 23
162 146 146
25 23 23
161 145 145
161 145 145
161 145 145
25 23 23
25 23 23
25 23 23
160 144 144
159 143 143
159 143 143
25 23 23
159 143 143
158 142 142
25 23 23
25 23 23
158 142 142
157 142 142
25 23 23
157 141 141
157 141 141
156 141 141
25 23 23
25 23 23
25 23 23
155 140 140
155 139 139
155 139 139
25 23 23
154 139 139
154 138 138
154 138 138
153 138 138
153 138 138
153 137 137
25 23 23
12 25 2
12 25 2
51 103 10
53 106 10
12 25 2
52 104 10
50 100 10
12 25 2
43 87 8
38 77 7
33 66 6
12 25 2
19 38 3
12 25 2
12 25 2
12 25 2
25 23 23
25 23 23
25 23 23
25 23 23
25 23 23
25 23 23
25 23 23
25 23 23
25 23 23
25 23 23
25 23 23
145 131 131
25 23 23
25 23 23
25 23 23
25 23 23
171 154 154
25 23 23
25 23 23
170 153 153
170 153 153
25 23 23
169 152 152
169 152 152
169 152 152
168 152 152
25 23 23
25 20 2
137 110 13
25 20 2
117 93 11
102 82 10
86 69 8
25 20 2
25 20 2
25 20 2
25 20 2
25 20 2
25 20 2
25 23 23
25 23 23
25 23 23
25 23 23
25 23 23
25 23 23
25 23 23
25 23 23
25 23 23
25 23 23
25 23 23
25 23 23
162 146 146
162 145 145
25 23 23
161 145 145
161 145 145
161 144 144
25 23 23
160 144 144
160 144 144
159 143 143
159 143 143
159 143 143
159 143 143
158 143 143
158 142 142
158 142 142
158 142 142
25 23 23
157 141 141
157 141 141
157 141 141
25 23 23
156 140 140
156 140 140
25 23 23
25 23 23
155 140 140
155 139 139
155 139 139
154 139 139
154 139 139
154 138 138
25 23 23
25 23 23
27 55 5
37 75 7
12 25 2
12 25 2
12 25 2
39 79 7
37 74 7
33 67 6
28 57 5
23 46 4
15 31 3
12 25 2
12 25 2
12 25 2
25 23 23
25 23 23
25 23 23
25 23 23
25 23 23
25 23 23
25 23 23
25 23 23
25 23 23
25 23 23
25 23 23
25 23 23
25 23 23
25 23 23
25 23 23
25 23 23
172 154 154
25 23 23
171 154 154
25 23 23
171 153 153
25 23 23
170 153 153
170 153 153
170 153 153
25 23 23
169 152 152
169 152 152
25 20 2
115 92 11
25 20 2
25 20 2
25 20 2
25 20 2
25 20 2
25 20 2
25 20 2
25 20 2
25 20 2
25 20 2
25 23 23
25 23 23
25 23 23
25 23 23
25 23 23
25 23 23
25 23 23
25 23 23
25 23 23
25 23 23
163 147 147
25 23 23
25 23 23
25 23 23
25 23 23
162 146 146
25 23 23
161 145 145
25 23 23
25 23 23
25 23 23
160 144 144
160 144 144
160 144 144
160 144 144
159 143 143
159 143 143
25 23 23
25 23 23
25 23 23
158 142 142
25 23 23
157 142 142
25 23 23
25 23 23
25 23 23
25 23 23
156 141 141
156 140 140
156 140 140
25 23 23
155 140 140
155 139 139
25 23 23
25 23 23
25 23 23
25 23 23
25 23 23
23 46 4
27 54 5
12 25 2
12 25 2
24 49 4
20 41 4
15 31 3
12 25 2
12 25 2
12 25 2
25 23 23
25 23 23
25 23 23
25 23 23
25 23 23
25 23 23
25 23 23
25 23 23
25 23 23
25 23 23
25 23 23
148 133 133
25 23 23
148 133 133
25 23 23
25 23 23
173 155 155
172 155 155
172 155 155
25 23 23
172 154 154
171 154 154
171 154 154
171 154 154
25 23 23
25 23 23
170 153 153
25 23 23
170 153 153
169 152 152
169 152 152
25 20 2
25 20 2
25 20 2
25 20 2
25 20 2
25 20 2
25 20 2
25 20 2
25 20 2
25 20 2
25 23 23
25 23 23
25 23 23
25 23 23
25 23 23
25 23 23
25 23 23
25 23 23
25 23 23
164 148 148
164 148 148
164 147 147
25 23 23
25 23 23
163 147 147
163 146 146
25 23 23
162 146 146
25 23 23
25 23 23
162 145 145
25 23 23
161 145 145
25 23 23
161 144 144
160 144 144
25 23 23
160 144 144
25 23 23
159 143 143
25 23 23
25 23 23
159 143 143
25 23 23
158 142 142
158 142 142
25 23 23
25 23 23
157 141 141
157 141 141
157 141 141
25 23 23
25 23 23
156 140 140
156 140 140
25 23 23
155 140 140
25 23 23
25 23 23
154 139 139
25 23 23
12 25 2
12 25 2
12 25 2
12 25 2
12 25 2
12 25 2
25 23 23
25 23 23
25 23 23
25 23 23
25 23 23
25 23 23
25 23 23
25 23 23
25 23 23
25 23 23
150 135 135
150 135 135
149 134 134
149 134 134
25 23 23
149 134 134
149 134 134
148 133 133
173 156 156
25 23 23
25 23 23
172 155 155
25 23 23
172 155 155
172 154 154
171 154 154
25 23 23
25 23 23
171 154 154
25 23 23
25 23 23
170 153 153
25 23 23
170 153 153
44 35 4
25 20 2
25 20 2
25 20 2
25 20 2
25 20 2
25 20 2
25 23 23
25 23 23
25 23 23
25 23 23
25 23 23
25 23 23
25 23 23
25 23 23
166 149 149
25 23 23
165 149 149
165 148 148
165 148 148
164 148 148
25 23 23
164 147 147
164 147 147
163 147 147
163 147 147
163 147 147
163 146 146
162 146 146
162 146 146
25 23 23
25 23 23
25 23 23
161 145 145
161 145 145
25 23 23
25 23 23
25 23 23
160 144 144
160 144 144
160 144 144
159 143 143
159 143 143
159 143 143
159 143 143
158 142 142
25 23 23
158 142 142
158 142 142
157 142 142
157 141 141
25 23 23
157 141 141
25 23 23
156 140 140
156 140 140
156 140 140
155 140 140
155 140 140
155 139 139
155 139 139
25 23 23
25 23 23
25 23 23
25 23 23
25 23 23
25 23 23
25 23 23
25 23 23
25 23 23
25 23 23
25 23 23
25 23 23
152 136 136
25 23 23
25 23 23
151 136 136
151 136 136
150 135 135
25 23 23
150 135 135
25 23 23
25 23 23
149 134 134
174 156 156
173 156 156
25 23 23
25 23 23
173 155 155
25 23 23
172 155 155
172 155 155
25 23 23
171 154 154
25 23 23
25 23 23
171 154 154
25 23 23
170 153 153
170 153 153
25 23 23
170 153 153
25 23 23
25 23 23
25 23 23
25 23 23
25 23 23
25 23 23
25 23 23
25 23 23
167 151 151
167 150 150
167 150 150
167 150 150
166 150 150
166 150 150
166 149 149
25 23 23
166 149 149
25 23 23
165 148 148
165 148 148
165 148 148
164 148 148
25 23 23
164 147 147
25 23 23
25 23 23
163 147 147
25 23 23
25 23 23
25 23 23
162 146 146
162 146 146
162 145 145
161 145 145
25 23 23
25 23 23
25 23 23
160 144 144
25 23 23
25 23 23
160 144 144
25 23 23
159 143 143
159 143 143
159 143 143
159 143 143
25 23 23
158 142 142
25 23 23
158 142 142
157 142 142
157 141 141
157 141 141
157 141 141
156 141 141
156 140 140
25 23 23
25 23 23
155 140 140
155 140 140
155 139 139
25 23 23
155 139 139
154 139 139
154 139 139
25 23 23
154 138 138
153 138 138
25 23 23
153 138 138
25 23 23
25 23 23
152 137 137
25 23 23
152 136 136
151 136 136
25 23 23
151 136 136
151 136 136
25 23 23
150 135 135
150 135 135
174 157 157
174 156 156
25 23 23
173 156 156
25 23 23
173 155 155
25 23 23
172 155 155
25 23 23
172 155 155
172 154 154
25 23 23
171 154 154
171 154 154
171 154 154
171 153 153
170 153 153
25 23 23
25 23 23
25 23 23
169 152 152
25 23 23
169 152 152
169 152 152
168 152 152
25 23 23
168 151 151
25 23 23
167 151 151
167 150 150
167 150 150
25 23 23
167 150 150
166 150 150
25 23 23
166 149 149
166 149 149
165 149 149
25 23 23
25 23 23
25 23 23
164 148 148
25 23 23
164 147 147
164 147 147
25 23 23
163 147 147
163 147 147
25 23 23
163 146 146
162 146 146
25 23 23
162 146 146
162 145 145
25 23 23
161 145 145
161 145 145
25 23 23
160 144 144
25 23 23
25 23 23
25 23 23
159 143 143
159 143 143
159 143 143
25 23 23
159 143 143
158 142 142
25 23 23
158 142 142
158 142 142
157 142 142
25 23 23
157 141 141
25 23 23
156 141 141
156 141 141
156 140 140
25 23 23
155 140 140
25 23 23
25 23 23
25 23 23
155 139 139
154 139 139
154 139 139
154 138 138
154 138 138
25 23 23
153 138 138
153 138 138
25 23 23
153 137 137
25 23 23
152 137 137
25 23 23
152 136 136
25 23 23
151 136 136
151 136 136
174 157 157
174 157 157
174 156 156
25 23 23
173 156 156
173 156 156
25 23 23
173 155 155
173 155 155
172 155 155
172 155 155
25 23 23
172 154 154
25 23 23
25 23 23
171 154 154
171 154 154
25 23 23
170 153 153
170 153 153
25 23 23
25 23 23
169 152 152
25 23 23
25 23 23
25 23 23
25 23 23
168 151 151
168 151 151
168 151 151
167 151 151
167 150 150
167 150 150
25 23 23
25 23 23
166 150 150
166 149 149
166 149 149
166 149 149
165 149 149
165 149 149
165 148 148
165 148 148
164 148 148
164 148 148
25 23 23
25 23 23
164 147 147
25 23 23
163 147 147
163 147 147
25 23 23
162 146 146
25 23 23
25 23 23
162 145 145
161 145 145
161 145 145
161 145 145
161 145 145
161 144 144
160 144 144
160 144 144
160 144 144
160 144 144
25 23 23
25 23 23
159 143 143
159 143 143
158 143 143
158 142 142
158 142 142
158 142 142
25 23 23
25 23 23
25 23 23
25 23 23
157 141 141
25 23 23
25 23 23
156 140 140
156 140 140
25 23 23
155 140 140
155 140 140
25 23 23
25 23 23
154 139 139
25 23 23
154 139 139
154 138 138
153 138 138
153 138 138
25 23 23
153 137 137
153 137 137
25 23 23
152 137 137
152 137 137
152 136 136
175 157 157
25 23 23
174 157 157
174 157 157
174 156 156
25 23 23
173 156 156
173 156 156
173 156 156
25 23 23
172 155 155
25 23 23
25 23 23
25 23 23
172 154 154
25 23 23
25 23 23
171 154 154
25 23 23
25 23 23
25 23 23
170 153 153
170 153 153
170 153 153
169 152 152
169 152 152
169 152 152
25 23 23
168 151 151
168 151 151
168 151 151
168 151 151
25 23 23
167 150 150
167 150 150
25 23 23
167 150 150
166 150 150
166 149 149
166 149 149
166 149 149
165 149 149
25 23 23
165 148 148
165 148 148
25 23 23
164 148 148
164 148 148
25 23 23
164 147 147
163 147 147
25 23 23
163 147 147
163 146 146
25 23 23
162 146 146
162 146 146
25 23 23
162 145 145
161 145 145
161 145 145
161 145 145
161 145 145
160 144 144
25 23 23
160 144 144
160 144 144
25 23 23
159 143 143
159 143 143
159 143 143
159 143 143
25 23 23
158 142 142
158 142 142
158 142 142
158 142 142
157 142 142
157 141 141
25 23 23
25 23 23
25 23 23
156 141 141
25 23 23
25 23 23
156 140 140
25 23 23
25 23 23
25 23 23
155 139 139
25 23 23
154 139 139
154 139 139
154 138 138
25 23 23
153 138 138
153 138 138
153 138 138
25 23 23
152 137 137

